<?xml version="1.0" standalone="no"?>
<!DOCTYPE svg PUBLIC "-//W3C//DTD SVG 1.1//EN" "http://www.w3.org/Graphics/SVG/1.1/DTD/svg11.dtd" >
<svg>
<metadata>
Created by FontForge 20090914 at Sat Jun  8 10:30:59 2019
 By www-data
Copyright (c) 2015, 2018 by Jakob Runge, under exclusive license to TypeMates. All rights reserved.
</metadata>
<defs>
<font id="CeraPro-Medium" horiz-adv-x="560" >
  <font-face 
    font-family="Cera Pro"
    font-weight="500"
    font-stretch="normal"
    units-per-em="1000"
    panose-1="0 0 6 0 0 0 0 0 0 0"
    ascent="808"
    descent="-192"
    x-height="491"
    cap-height="660"
    bbox="-459 -243 1337 1000"
    underline-thickness="76"
    underline-position="-176"
    unicode-range="U+0020-U+FB02"
  />
<missing-glyph horiz-adv-x="710" 
d="M83 660h544v-660h-544v660zM552 64v528h-396z" />
    <glyph glyph-name="fi" unicode="fi" horiz-adv-x="595" 
d="M199 581l0.000976562 -90.001h116v-91h-116v-400h-105v400h-70v91h70v99c0 56.667 15.333 99.334 46 128.001s73.667 43 129 43c26 0 48.667 -3 68 -9v-89c-16 2 -30 3 -42 3c-32.667 0 -56.834 -6.5 -72.501 -19.5s-23.5 -34.833 -23.5 -65.5zM413.001 -0.000976562v491
h105v-491h-105zM394.001 673.999c0 19.333 7 35.833 21 49.5s31 20.5 51 20.5c19.333 0 36 -6.83301 50 -20.5s21 -30.167 21 -49.5s-7 -35.666 -21 -48.999s-30.667 -20 -50 -20c-20 0 -37 6.66699 -51 20s-21 29.666 -21 48.999z" />
    <glyph glyph-name="fl" unicode="fl" horiz-adv-x="595" 
d="M199 581l0.000976562 -90.001h116v-91h-116v-400h-105v400h-70v91h70v99c0 56.667 15.333 99.334 46 128.001s73.667 43 129 43c26 0 48.667 -3 68 -9v-89c-16 2 -30 3 -42 3c-32.667 0 -56.834 -6.5 -72.501 -19.5s-23.5 -34.833 -23.5 -65.5zM413.001 -0.000976562v750
h105v-750h-105z" />
    <glyph glyph-name=".notdef" horiz-adv-x="710" 
d="M83 660h544v-660h-544v660zM552 64v528h-396z" />
    <glyph glyph-name="space" unicode=" " horiz-adv-x="280" 
 />
    <glyph glyph-name="exclam" unicode="!" horiz-adv-x="326" 
d="M119 225l-20 435h126l-19 -435h-87zM85 66c0 22.667 7.5 41.334 22.5 56.001s33.5 22 55.5 22s40.333 -7.33301 55 -22s22 -33.334 22 -56.001c0 -22 -7.33301 -40.333 -22 -55s-33 -22 -55 -22s-40.5 7.33301 -55.5 22s-22.5 33 -22.5 55z" />
    <glyph glyph-name="quotedbl" unicode="&#x22;" horiz-adv-x="500" 
d="M89 392l9 268h121l-49 -268h-81zM299 392l9 268h121l-49 -268h-81z" />
    <glyph glyph-name="numbersign" unicode="#" horiz-adv-x="614" 
d="M586 408h-96l-21 -156h95v-90h-107l-22 -162h-87l22 162h-171l-22 -162h-87l22 162h-85v90h97l20 156h-94v90h106l22 162h89l-22 -162h169l22 162h88l-22 -162h84v-90zM211 249h170l22 162h-170z" />
    <glyph glyph-name="dollar" unicode="$" horiz-adv-x="537" 
d="M316 24l0.000976562 -118.998h-97v121c-80.667 15.333 -141.667 60.333 -183 135l73 54c43.333 -67.333 98 -101 164 -101c31.333 0 56.666 7 75.999 21s29 32.667 29 56c0 19.333 -6.83301 35.333 -20.5 48s-36.5 26 -68.5 40l-69 27c-96.667 38 -145 93.667 -145 167
c0 40 13.167 74 39.5 102s61.166 46.333 104.499 55v119h97v-117c66.667 -12 117.334 -49 152.001 -111l-72 -54c-34 49.333 -75.333 74 -124 74c-26.667 0 -48.667 -5.83301 -66 -17.5s-26 -28.167 -26 -49.5c0 -18.667 6 -33.834 18 -45.501s32.667 -23.834 62 -36.501
l74 -28c99.333 -38 149 -95 149 -171c0 -45.333 -15.167 -83 -45.5 -113s-70.833 -48.667 -121.5 -56z" />
    <glyph glyph-name="percent" unicode="%" horiz-adv-x="851" 
d="M61 509c0 44.667 16.333 82.834 49 114.501s72.334 47.5 119.001 47.5c45.333 0 84.333 -15.833 117 -47.5s49 -69.834 49 -114.501c0 -45.333 -16.333 -83.833 -49 -115.5s-71.667 -47.5 -117 -47.5c-46.667 0 -86.334 15.667 -119.001 47s-49 70 -49 116zM193 0
l378 660h89l-379 -660h-88zM312 509c0 24.667 -8 45.5 -24 62.5s-35.667 25.5 -59 25.5c-24 0 -43.833 -8.33301 -59.5 -25s-23.5 -37.667 -23.5 -63s7.66699 -46.333 23 -63s35.333 -25 60 -25c23.333 0 43 8.33301 59 25s24 37.667 24 63zM457 152
c0 46 16.167 84.667 48.5 116s71.5 47 117.5 47s85.333 -15.667 118 -47s49 -70 49 -116c0 -44.667 -16.333 -82.834 -49 -114.501s-72 -47.5 -118 -47.5s-85.167 15.833 -117.5 47.5s-48.5 69.834 -48.5 114.501zM706 152c0 25.333 -7.83301 46.3311 -23.5 62.998
s-35.167 25 -58.5 25c-24.667 0 -44.667 -8.16699 -60 -24.5s-23 -37.5 -23 -63.5c0 -25.333 7.66699 -46.166 23 -62.499s35.333 -24.5 60 -24.5c23.333 0 42.833 8.33301 58.5 25s23.5 37.334 23.5 62.001z" />
    <glyph glyph-name="ampersand" unicode="&#x26;" horiz-adv-x="649" 
d="M622 293l-29.002 -42c-36.667 -55.333 -64.667 -94.666 -84 -117.999l110 -133h-125l-51 62c-56 -48.667 -118 -73 -186 -73c-60.667 0 -110.667 16.667 -150 50s-59 75.666 -59 126.999c0 36 10.333 68.667 31 98s57.334 64.333 110.001 105
c-42.667 54 -64 104.333 -64 151c0 45.333 14.5 81.833 43.5 109.5s67.167 41.5 114.5 41.5c45.333 0 82.5 -13 111.5 -39s43.5 -59.667 43.5 -101c0 -59.333 -37.667 -118 -113 -176l119 -143c4.66699 6 25.334 36.333 62.001 91l32 48zM222.998 519
c0 -24 15.667 -56.333 47 -97c26 20 44.167 37.5 54.5 52.5s15.5 31.167 15.5 48.5s-5.16699 31 -15.5 41s-24.5 15 -42.5 15c-39.333 0 -59 -20 -59 -60zM379.998 138l-132 160c-37.333 -29.333 -62 -52 -74 -68s-18 -34 -18 -54c0 -26.667 9.83301 -48.667 29.5 -66
s45.167 -26 76.5 -26c40.667 0 80 18 118 54z" />
    <glyph glyph-name="quotesingle" unicode="'" horiz-adv-x="291" 
d="M89 392l9 268h121l-49 -268h-81z" />
    <glyph glyph-name="parenleft" unicode="(" horiz-adv-x="349" 
d="M73 302c0 120 19.333 215.334 58 286.001s88 120 148 148l43 -66c-45.333 -30 -82 -74 -110 -132c-28 -56.667 -42 -135.334 -42 -236.001c0 -178.667 50.667 -301 152 -367l-43 -66c-60 28 -109.333 77.333 -148 148s-58 165.667 -58 285z" />
    <glyph glyph-name="parenright" unicode=")" horiz-adv-x="349" 
d="M71 -131l-44 65.999c101.333 66 152 188.333 152 367c0 100.667 -14 179.334 -42 236.001c-28 58 -64.667 102 -110 132l44 66c60 -28 108.667 -77.333 146 -148c38.667 -70.667 58 -166 58 -286c0 -119.333 -19.333 -214.333 -58 -285
c-37.333 -70.667 -86 -120 -146 -148z" />
    <glyph glyph-name="asterisk" unicode="*" horiz-adv-x="438" 
d="M395 630l-92 -66l92 -66l-31 -53l-103 47l-11 -113h-62l-11 113l-103 -47l-31 53l92 66l-92 66l31 54l103 -47l11 113h62l11 -113l103 47z" />
    <glyph glyph-name="plus" unicode="+" 
d="M231 87v185h-180v91h180v183h102v-183h176v-91h-176v-185h-102z" />
    <glyph glyph-name="comma" unicode="," horiz-adv-x="280" 
d="M77 -178l10 284h122l-47 -284h-85z" />
    <glyph glyph-name="hyphen" unicode="-" horiz-adv-x="344" 
d="M49 273v89h246v-89h-246z" />
    <glyph glyph-name="period" unicode="." horiz-adv-x="280" 
d="M62 66c0 22 7.66699 40.501 23 55.501s34 22.5 56 22.5s40.333 -7.33301 55 -22s22 -33.334 22 -56.001c0 -22 -7.33301 -40.333 -22 -55s-33 -22 -55 -22s-40.667 7.33301 -56 22s-23 33 -23 55z" />
    <glyph glyph-name="slash" unicode="/" horiz-adv-x="650" 
d="M5 -121l523 901h117l-523 -901h-117z" />
    <glyph glyph-name="zero" unicode="0" horiz-adv-x="625" 
d="M61 336c0 100.667 21.3311 181.333 63.998 242c42.667 62 105.334 93 188.001 93s145 -30.667 187 -92c42.667 -60.667 64 -141.667 64 -243c0 -102.667 -21.5 -186.167 -64.5 -250.5s-105.167 -96.5 -186.5 -96.5s-143.666 32.333 -186.999 97s-65 148 -65 250z
M453.998 334.999c0 159.333 -47 239 -141 239c-94.667 0 -142 -79.667 -142 -239c0 -166 47.333 -249 142 -249c94 0 141 83 141 249z" />
    <glyph glyph-name="one" unicode="1" horiz-adv-x="390" 
d="M253 660h37v-660h-106v535l-134 -43l-26 93z" />
    <glyph glyph-name="two" unicode="2" horiz-adv-x="572" 
d="M240 92l279 0.000976562v-92h-473v24l235 253c38 40 65 73.333 81 100s24 53.667 24 81c0 34 -10 61.833 -30 83.5s-46.667 32.5 -80 32.5s-60.333 -11.333 -81 -34s-31 -51.334 -31 -86.001c0 -12 1.66699 -29 5 -51h-107c-4.66699 16.667 -7 35.667 -7 57
c0 56.667 20.667 106 62 148s94.666 63 159.999 63c62.667 0 114.834 -19.667 156.501 -59s62.5 -88 62.5 -146c0 -45.333 -12 -86.333 -36 -123c-21.333 -34 -56 -76.667 -104 -128z" />
    <glyph glyph-name="three" unicode="3" horiz-adv-x="543" 
d="M494 212c0 -65.333 -23.501 -118.833 -70.501 -160.5s-103.833 -62.5 -170.5 -62.5c-52 0 -98 12.833 -138 38.5s-71.333 60.5 -94 104.5l74 52c42.667 -65.333 94.334 -98 155.001 -98c40 0 72.5 11.5 97.5 34.5s37.5 53.167 37.5 90.5s-13.167 66 -39.5 86
s-63.833 30 -112.5 30h-73v29l154 207h-246v97h411v-29l-160 -216c48 -8 89.333 -29.667 124 -65c34 -34.667 51 -80.667 51 -138z" />
    <glyph glyph-name="four" unicode="4" horiz-adv-x="562" 
d="M544 206v-91h-90v-115h-106v115h-330v29l211 516h109l-187 -454h197v203h106v-203h90z" />
    <glyph glyph-name="five" unicode="5" horiz-adv-x="559" 
d="M510 213c0 -65.333 -23.6689 -118.999 -71.002 -160.999s-104.666 -63 -171.999 -63c-53.333 0 -100.333 12.667 -141 38s-72.667 60 -96 104l74 53c42.667 -65.333 96 -98 160 -98c40 0 72.833 11.5 98.5 34.5s38.5 53.167 38.5 90.5s-13.167 66.166 -39.5 86.499
s-63.833 30.5 -112.5 30.5h-152v332h376v-95h-272v-155c26 6 54 9 84 9c62.667 0 115.834 -18.333 159.501 -55s65.5 -87 65.5 -151z" />
    <glyph glyph-name="six" unicode="6" horiz-adv-x="556" 
d="M512 217c0 -64 -23 -117.998 -69 -161.998s-101 -66 -165 -66c-63.333 -1.33301 -118.333 20.5 -165 65.5s-69.334 99.5 -68.001 163.5c0 24.667 3.66699 48.667 11 72c8 23.333 17.333 43.666 28 60.999c9.33301 15.333 26.333 40.666 51 75.999l165 233h125l-159 -225
c8.66699 2 18.334 3 29.001 3c58.667 0 109.5 -21.5 152.5 -64.5s64.5 -95.167 64.5 -156.5zM407 217.002c0 36.667 -12.6689 67.668 -38.002 93.001s-55.666 38 -90.999 38c-36 0 -66.667 -12.667 -92 -38c-24.667 -24.667 -37 -55.667 -37 -93
c0 -38 12.333 -69.333 37 -94s55.334 -37 92.001 -37c36 0 66.333 12.333 91 37c25.333 25.333 38 56.666 38 93.999z" />
    <glyph glyph-name="seven" unicode="7" horiz-adv-x="513" 
d="M36 660h453v-29l-319 -631h-115l291 565h-310v95z" />
    <glyph glyph-name="eight" unicode="8" horiz-adv-x="583" 
d="M531 172c0 -55.333 -22.167 -99.666 -66.5 -132.999s-101.833 -50 -172.5 -50c-71.333 0 -129.333 16.667 -174 50s-67 77.666 -67 132.999c0 79.333 47.667 136.333 143 171c-74.667 40.667 -112 93.667 -112 159c0 53.333 19.667 94.666 59 123.999
c40 30 90.333 45 151 45c60 0 109.667 -15 149 -45c39.333 -29.333 59 -70.666 59 -123.999c0 -66 -37.333 -119 -112 -159c95.333 -35.333 143 -92.333 143 -171zM183 498c0 -23.333 8.16895 -42.6689 24.502 -58.002s44.166 -31.666 83.499 -48.999
c39.333 16.667 67.166 32.834 83.499 48.501s24.5 35.167 24.5 58.5c0 26 -9.83301 46.833 -29.5 62.5s-45.5 23.5 -77.5 23.5c-32.667 0 -59 -7.83301 -79 -23.5s-30 -36.5 -30 -62.5zM424.002 175.997c0 28.667 -10.333 51.668 -31 69.001s-54.667 34.666 -102 51.999
c-46.667 -16.667 -80.5 -34 -101.5 -52s-31.5 -41 -31.5 -69c0 -30.667 11.833 -54.834 35.5 -72.501s56.5 -26.5 98.5 -26.5s74.5 8.83301 97.5 26.5s34.5 41.834 34.5 72.501z" />
    <glyph glyph-name="nine" unicode="9" horiz-adv-x="556" 
d="M512 442c0 -25.333 -4.00098 -49.667 -12.001 -73c-6 -18.667 -15.333 -39 -28 -61c-10.667 -18 -27.667 -43 -51 -75l-164 -233h-126l159 225c-8.66699 -2 -18.334 -3 -29.001 -3c-57.333 0 -107.666 21.5 -150.999 64.5s-65 95.167 -65 156.5c0 64 23 118 69 162
s101 66 165 66c63.333 1.33301 118.333 -20.5 165 -65.5s69.334 -99.5 68.001 -163.5zM406.999 442.999c0 37.333 -12.333 68.333 -37 93c-25.333 25.333 -55.666 38 -90.999 38c-36.667 0 -67.667 -12.667 -93 -38c-24.667 -24.667 -37 -55.667 -37 -93
c0 -38 12.333 -69.333 37 -94s55.667 -37 93 -37c35.333 0 65.666 12.667 90.999 38c24.667 24.667 37 55.667 37 93z" />
    <glyph glyph-name="colon" unicode=":" horiz-adv-x="280" 
d="M62 420c0 22 7.66699 40.501 23 55.501s34 22.5 56 22.5s40.333 -7.33301 55 -22s22 -33.334 22 -56.001c0 -22 -7.33301 -40.333 -22 -55s-33 -22 -55 -22s-40.667 7.33301 -56 22s-23 33 -23 55zM62 66.001c0 22 7.66699 40.501 23 55.501s34 22.5 56 22.5
s40.333 -7.33301 55 -22s22 -33.334 22 -56.001c0 -22 -7.33301 -40.333 -22 -55s-33 -22 -55 -22s-40.667 7.33301 -56 22s-23 33 -23 55z" />
    <glyph glyph-name="semicolon" unicode=";" horiz-adv-x="280" 
d="M62 420c0 22 7.66699 40.501 23 55.501s34 22.5 56 22.5s40.333 -7.33301 55 -22s22 -33.334 22 -56.001c0 -22 -7.33301 -40.333 -22 -55s-33 -22 -55 -22s-40.667 7.33301 -56 22s-23 33 -23 55zM77 -177.999l10 284h122l-47 -284h-85z" />
    <glyph glyph-name="less" unicode="&#x3c;" 
d="M495 529v-95l-275 -116l275 -116v-95l-450 196v30z" />
    <glyph glyph-name="equal" unicode="=" 
d="M61 378v91h439v-91h-439zM61 166v91h439v-91h-439z" />
    <glyph glyph-name="greater" unicode="&#x3e;" 
d="M65 529l451 -196v-30l-451 -196v95l275 116l-275 116v95z" />
    <glyph glyph-name="question" unicode="?" horiz-adv-x="448" 
d="M152 271c0 19.333 6.33398 38.002 19.001 56.002s32.667 38.667 60 62c27.333 24.667 45.666 43.667 54.999 57s14 29 14 47c0 23.333 -7.83301 42.666 -23.5 57.999s-34.834 23 -57.501 23c-45.333 0 -77.666 -28.667 -96.999 -86l-88 38
c14 46.667 37.5 82.5 70.5 107.5s72.5 37.5 118.5 37.5c52 0 96 -16.167 132 -48.5s54 -72.833 54 -121.5c0 -28.667 -7 -54.834 -21 -78.501s-36.667 -49.167 -68 -76.5c-28.667 -25.333 -47.667 -43.833 -57 -55.5s-14 -24.5 -14 -38.5c0 -8 1.33301 -17 4 -27h-90
c-7.33301 16.667 -11 32 -11 46zM134.001 66.002c0 22 7.5 40.501 22.5 55.501s33.5 22.5 55.5 22.5s40.5 -7.33301 55.5 -22s22.5 -33.334 22.5 -56.001c0 -22 -7.5 -40.333 -22.5 -55s-33.5 -22 -55.5 -22s-40.5 7.33301 -55.5 22s-22.5 33 -22.5 55z" />
    <glyph glyph-name="at" unicode="@" horiz-adv-x="937" 
d="M894 284c0 -81.333 -25.002 -143.335 -75.002 -186.002c-49.333 -43.333 -114.666 -65 -195.999 -65h-37v57c-30 -45.333 -77.333 -68 -142 -68c-57.333 0 -105 20.5 -143 61.5s-57 92.167 -57 153.5s19 112.5 57 153.5s86 61.5 144 61.5c61.333 0 107 -20.333 137 -61
v52h92v-324c41.333 3.33301 73.5 19 96.5 47s34.5 67.333 34.5 118c0 84.667 -29.833 154.667 -89.5 210s-137.167 83 -232.5 83c-100 1.33301 -183.667 -30 -251 -94s-100.333 -143.667 -99 -239c-1.33301 -96 31.167 -176 97.5 -240s147.5 -95.333 243.5 -94
c41.333 0 83 6.33301 125 19l17 -76c-46 -18 -96.667 -27 -152 -27c-74.667 -1.33301 -144.667 16.334 -210 53.001s-117.166 87.334 -155.499 152.001s-56.833 135 -55.5 211c-1.33301 78 17.834 149.5 57.501 214.5s93.167 115.667 160.5 152s140.666 53.833 219.999 52.5
c114.667 2 212.667 -34.667 294 -110s121 -164.333 119 -267zM575.998 237.998c0 39.333 -10.5 69.833 -31.5 91.5s-47.833 32.5 -80.5 32.5c-34 0 -62.167 -11.5 -84.5 -34.5s-33.5 -53.167 -33.5 -90.5c0 -36 11 -65.667 33 -89s50 -35 84 -35
c32 0 58.833 11.167 80.5 33.5s32.5 52.833 32.5 91.5z" />
    <glyph glyph-name="A" unicode="A" horiz-adv-x="662" 
d="M526 0l-47 110h-297l-47 -110h-113l291 671h36l291 -671h-114zM441 201l-110 273l-111 -273h221z" />
    <glyph glyph-name="B" unicode="B" horiz-adv-x="618" 
d="M580 192c0 -56 -19.667 -102.001 -59 -138.001s-91 -54 -155 -54h-283v660h231c59.333 0 107.166 -16.5 143.499 -49.5s54.5 -75.167 54.5 -126.5s-18.333 -92.666 -55 -123.999c38.667 -12.667 68.834 -33.667 90.501 -63s32.5 -64.333 32.5 -105zM304 566.999h-116.999
v-178h117c32 0 57 8 75 24s27 38 27 66c0 27.333 -8.83301 48.833 -26.5 64.5s-42.834 23.5 -75.501 23.5zM473.001 194.999c0 32 -10.333 57.168 -31 75.501s-49 27.5 -85 27.5h-170v-205h170c36.667 0 65.167 9.16699 85.5 27.5s30.5 43.166 30.5 74.499z" />
    <glyph glyph-name="C" unicode="C" horiz-adv-x="717" 
d="M43 330c-2 94 31.6689 174.667 101.002 242s151.333 100.333 246 99c60 0 115 -13.667 165 -41s89.333 -64.333 118 -111l-80 -59c-48.667 76 -116 114 -202 114c-68 0 -124.667 -23.167 -170 -69.5s-68 -104.5 -68 -174.5s22.667 -128.167 68 -174.5
s102 -69.5 170 -69.5c86 0 153.333 38 202 114l80 -59c-28.667 -47.333 -67.834 -84.5 -117.501 -111.5s-104.834 -40.5 -165.501 -40.5c-94.667 -1.33301 -176.667 31.667 -246 99s-103 148 -101 242z" />
    <glyph glyph-name="D" unicode="D" horiz-adv-x="692" 
d="M83 0v660h207c107.333 0 194 -30.333 260 -91s99 -140 99 -238c0 -96.667 -33.167 -176 -99.5 -238s-152.833 -93 -259.5 -93h-207zM189 95h100c76 0 136.833 21.833 182.5 65.5s68.5 100.5 68.5 170.5c0 70.667 -22.667 127.167 -68 169.5s-106.333 63.5 -183 63.5h-100
v-469z" />
    <glyph glyph-name="E" unicode="E" horiz-adv-x="569" 
d="M83 0v660h434v-95h-328v-169h247v-92h-247v-209h340v-95h-446z" />
    <glyph glyph-name="F" unicode="F" horiz-adv-x="529" 
d="M83 0v660h424v-95h-318v-197h262v-96h-262v-272h-106z" />
    <glyph glyph-name="G" unicode="G" horiz-adv-x="746" 
d="M43 330c-2 94 31.498 174.666 100.498 241.999s151.5 100.333 247.5 99c116 0 207 -46 273 -138l-77 -63c-49.333 69.333 -115 104 -197 104c-69.333 0 -126.166 -23 -170.499 -69s-66.5 -104 -66.5 -174c0 -70.667 22.833 -129.5 68.5 -176.5
s103.834 -70.5 174.501 -70.5c88 0 153.667 33.333 197 100v71h-203v94h309v-186c-30 -53.333 -72.333 -95.666 -127 -126.999s-115 -47 -181 -47c-96.667 -1.33301 -179.167 31.5 -247.5 98.5s-101.833 147.833 -100.5 242.5z" />
    <glyph glyph-name="H" unicode="H" horiz-adv-x="711" 
d="M83 0v660h106v-263h332v263h106v-660h-106v302h-332v-302h-106z" />
    <glyph glyph-name="I" unicode="I" horiz-adv-x="272" 
d="M83 0v660h106v-660h-106z" />
    <glyph glyph-name="J" unicode="J" horiz-adv-x="381" 
d="M21 0l-0.00195312 91c33.333 -3.33301 56 -5 68 -5c35.333 0 61.333 6.66699 78 20s25 36.333 25 69v485h106v-496c0 -57.333 -16.167 -100.833 -48.5 -130.5s-78.166 -44.5 -137.499 -44.5c-27.333 0 -57.666 3.66699 -90.999 11z" />
    <glyph glyph-name="K" unicode="K" horiz-adv-x="651" 
d="M83 0v660h106v-660h-106zM325 351l304 -351h-131l-306 351l277 309h130z" />
    <glyph glyph-name="L" unicode="L" horiz-adv-x="515" 
d="M83 0v660h106v-565h302v-95h-408z" />
    <glyph glyph-name="M" unicode="M" horiz-adv-x="793" 
d="M674 671h36v-671h-106v414l-189 -248h-36l-190 249v-415h-106v671h37l277 -369z" />
    <glyph glyph-name="N" unicode="N" horiz-adv-x="711" 
d="M521 660h106v-671h-36l-402 458v-447h-106v671h37l401 -456v445z" />
    <glyph glyph-name="O" unicode="O" horiz-adv-x="780" 
d="M43 330c-1.33301 94 32.332 174.667 100.999 242s150.334 100.333 245.001 99c94 1.33301 175.833 -31.667 245.5 -99s103.5 -148 101.5 -242c2 -94 -31.833 -174.667 -101.5 -242s-151.5 -100.333 -245.5 -99c-94.667 -1.33301 -176.5 31.667 -245.5 99
s-102.5 148 -100.5 242zM626.998 331c0 69.333 -22.668 127.167 -68.001 173.5s-101.666 69.5 -168.999 69.5c-68 0 -124.5 -23 -169.5 -69s-67.5 -104 -67.5 -174c0 -70.667 22.333 -129.167 67 -175.5s101.334 -69.5 170.001 -69.5c67.333 0 123.666 23.333 168.999 70
s68 105 68 175z" />
    <glyph glyph-name="P" unicode="P" horiz-adv-x="583" 
d="M83 0v660h241c66.667 0 120.667 -18.833 162 -56.5s62 -86.167 62 -145.5s-20.833 -108 -62.5 -146s-95.5 -57 -161.5 -57h-135v-255h-106zM189 349l133 0.000976562c36.667 0 65.334 9.66699 86.001 29s31 45.666 31 78.999s-10.333 59.833 -31 79.5
s-49.334 29.5 -86.001 29.5h-133v-217z" />
    <glyph glyph-name="Q" unicode="Q" horiz-adv-x="780" 
d="M1048 -117l-0.00292969 -84c-40.667 -7.33301 -77.667 -11 -111 -11c-179.333 0 -321.666 74 -426.999 222c-38 -14 -78.333 -21 -121 -21c-94.667 -1.33301 -176.5 31.667 -245.5 99s-102.5 148 -100.5 242c-1.33301 94 32.334 174.667 101.001 242
s150.334 100.333 245.001 99c94 1.33301 175.833 -31.667 245.5 -99s103.5 -148 101.5 -242c0 -55.333 -12.167 -106.833 -36.5 -154.5s-58.5 -87.5 -102.5 -119.5c89.333 -118 208.333 -177 357 -177c22.667 0 54 1.33301 94 4zM389.997 86
c67.333 0 123.666 23.166 168.999 69.499s68 104.5 68 174.5s-22.667 128.167 -68 174.5s-102 69.5 -170 69.5c-67.333 0 -123.5 -23.167 -168.5 -69.5s-67.5 -104.166 -67.5 -173.499c0 -70.667 22.333 -129.167 67 -175.5s101.334 -69.5 170.001 -69.5z" />
    <glyph glyph-name="R" unicode="R" horiz-adv-x="631" 
d="M619 0h-121l-188 255h-121v-255h-106v660h241c66.667 0 120.667 -18.833 162 -56.5s62 -86.167 62 -145.5c0 -43.333 -11.167 -81.333 -33.5 -114s-53.5 -56.667 -93.5 -72zM189 566v-217.001h133c36 0 64.5 9.83301 85.5 29.5s31.5 45.834 31.5 78.501
s-10.5 59 -31.5 79s-49.5 30 -85.5 30h-133z" />
    <glyph glyph-name="S" unicode="S" horiz-adv-x="559" 
d="M36 132l74.998 57.002c48 -70 105.667 -105 173 -105c34 0 61.5 8.33301 82.5 25s31.5 39 31.5 67c0 22.667 -7 40.5 -21 53.5s-39.333 28.167 -76 45.5l-73 34c-51.333 23.333 -89.833 49.166 -115.5 77.499s-38.5 63.5 -38.5 105.5c0 52.667 20 95.667 60 129
s89.333 50 148 50c46 0 87.833 -10.667 125.5 -32s66.834 -50 87.501 -86l-74 -57c-36 53.333 -82.333 80 -139 80c-29.333 0 -53.333 -7 -72 -21s-28 -33.667 -28 -59c0.666992 -12 2.16699 -21.833 4.5 -29.5s8.5 -15.667 18.5 -24s17 -13.5 21 -15.5l39 -20
c4 -2 7 -3.66699 9 -5l74 -34c55.333 -25.333 95.5 -52.333 120.5 -81s37.5 -64.334 37.5 -107.001c0 -56.667 -20.833 -102.667 -62.5 -138s-94.5 -53 -158.5 -53c-53.333 0 -101.666 12.667 -144.999 38s-78 60.333 -104 105z" />
    <glyph glyph-name="T" unicode="T" horiz-adv-x="583" 
d="M238 0v565h-222v95h551v-95h-223v-565h-106z" />
    <glyph glyph-name="U" unicode="U" horiz-adv-x="694" 
d="M76 267l-0.000976562 393h106v-400c0 -54.667 15.167 -97.334 45.5 -128.001s70.5 -46 120.5 -46c49.333 0 89 15.333 119 46s45 73.334 45 128.001v400h106v-393c0 -85.333 -25.167 -153 -75.5 -203s-115.166 -75 -194.499 -75c-80.667 0 -146.167 25 -196.5 75
s-75.5 117.667 -75.5 203z" />
    <glyph glyph-name="V" unicode="V" horiz-adv-x="662" 
d="M521 660h119l-291 -671h-36l-291 671h119l190 -459z" />
    <glyph glyph-name="W" unicode="W" horiz-adv-x="1051" 
d="M899 660h116l-257 -671h-35l-197 468l-197 -468h-36l-257 671h117l165 -446l189 457h37l190 -457z" />
    <glyph glyph-name="X" unicode="X" horiz-adv-x="607" 
d="M584 0h-121l-160 246l-159 -246h-122l223 337l-209 323h122l146 -233l144 233h121l-205 -323z" />
    <glyph glyph-name="Y" unicode="Y" horiz-adv-x="620" 
d="M591 660l-228 -394v-266h-106v266l-228 394h118l163 -287l164 287h117z" />
    <glyph glyph-name="Z" unicode="Z" horiz-adv-x="588" 
d="M190 95h368v-95h-532v29l366 536h-323v95h488v-29z" />
    <glyph glyph-name="bracketleft" unicode="[" horiz-adv-x="350" 
d="M96 -131v860h209v-88h-115v-682h115v-90h-209z" />
    <glyph glyph-name="backslash" unicode="\" horiz-adv-x="650" 
d="M528 -121l-523 901h117l523 -901h-117z" />
    <glyph glyph-name="bracketright" unicode="]" horiz-adv-x="350" 
d="M44 -131v90h116v682h-116v88h210v-860h-210z" />
    <glyph glyph-name="asciicircum" unicode="^" horiz-adv-x="524" 
d="M469 280h-104l-103 216l-103 -216h-104l189 390h36z" />
    <glyph glyph-name="underscore" unicode="_" horiz-adv-x="504" 
d="M39 -155v85h426v-85h-426z" />
    <glyph glyph-name="grave" unicode="`" horiz-adv-x="600" 
d="M325 568l-129 193v19h128l79 -212h-78z" />
    <glyph glyph-name="a" unicode="a" horiz-adv-x="536" 
d="M466 297l-0.000976562 -297h-98v55c-36.667 -44 -89 -66 -157 -66c-51.333 0 -92.666 13 -123.999 39s-47 60.333 -47 103s16.333 76.667 49 102s76.667 38 132 38h139v32c0 34 -9.16699 60 -27.5 78s-44.166 27 -77.499 27c-50 0 -95.333 -24.333 -136 -73l-61 62
c48 70 117 105 207 105c61.333 0 110.166 -18 146.499 -54s54.5 -86.333 54.5 -151zM359.999 186v9h-126c-58 0 -87 -20 -87 -60c0 -20 7.83301 -35.833 23.5 -47.5s36.5 -17.5 62.5 -17.5c36 0 66.167 11 90.5 33s36.5 49.667 36.5 83z" />
    <glyph glyph-name="b" unicode="b" horiz-adv-x="631" 
d="M586 245c0 -72.667 -22.833 -133.5 -68.5 -182.5s-102.834 -73.5 -171.501 -73.5c-76.667 0 -134 26.333 -172 79v-68h-98v750h105v-319c38.667 47.333 93.334 71 164.001 71c69.333 0 126.833 -24.5 172.5 -73.5s68.5 -110.167 68.5 -183.5zM478 246
c0 46.667 -14.333 85 -43 115s-64.334 45 -107.001 45c-41.333 0 -76.333 -14 -105 -42s-43 -67.667 -43 -119c0 -50.667 14.333 -90 43 -118s63.667 -42 105 -42c42.667 0 78.334 15.167 107.001 45.5s43 68.833 43 115.5z" />
    <glyph glyph-name="c" unicode="c" horiz-adv-x="552" 
d="M45 246c-1.33301 70 24 130.501 76 181.501s113.333 75.833 184 74.5c92 0 161 -38 207 -114l-74 -58c-34.667 50 -78.667 75 -132 75c-44 0 -80.667 -15.333 -110 -46s-44 -68.334 -44 -113.001c0 -45.333 14.667 -83.333 44 -114s66 -46 110 -46c52 0 96 24.667 132 74
l74 -57c-22 -36 -51 -64 -87 -84s-76 -30 -120 -30c-72.667 0 -134.167 25 -184.5 75s-75.5 110.667 -75.5 182z" />
    <glyph glyph-name="d" unicode="d" horiz-adv-x="631" 
d="M449 750h105.999v-750h-98v70c-38 -54 -95.333 -81 -172 -81c-68.667 0 -125.834 24.5 -171.501 73.5s-68.5 109.833 -68.5 182.5c-1.33301 72 21.334 133.167 68.001 183.5s104 74.833 172 73.5c70.667 0 125.334 -23.667 164.001 -71v319zM450.999 245
c0 50.667 -14.5 90.167 -43.5 118.5s-63.833 42.5 -104.5 42.5c-42.667 0 -78.5 -15 -107.5 -45s-43.5 -68.333 -43.5 -115s14.333 -85.167 43 -115.5s64.667 -45.5 108 -45.5c41.333 0 76.333 14 105 42s43 67.333 43 118z" />
    <glyph glyph-name="e" unicode="e" horiz-adv-x="570" 
d="M518 211h-366.001c6.66699 -40 24.5 -71.5 53.5 -94.5s64.5 -34.5 106.5 -34.5c52 0 99.667 19.333 143 58l50 -72c-55.333 -52.667 -120.666 -79 -195.999 -79c-74.667 0 -137.334 24.5 -188.001 73.5s-76 109.833 -76 182.5c-1.33301 70.667 23.334 131.5 74.001 182.5
s110.667 75.833 180 74.5c64.667 0 118.667 -21.5 162 -64.5s65 -96.5 65 -160.5c0 -19.333 -2.66699 -41.333 -8 -66zM153.999 293h267.001c-0.666992 36.667 -13 65.834 -37 87.501s-53.667 32.5 -89 32.5c-34.667 0 -64.834 -10.833 -90.501 -32.5
s-42.5 -50.834 -50.5 -87.501z" />
    <glyph glyph-name="f" unicode="f" horiz-adv-x="322" 
d="M199 581l0.000976562 -90.001h116v-91h-116v-400h-105v400h-70v91h70v99c0 56.667 15.333 99.334 46 128.001s73.667 43 129 43c26 0 48.667 -3 68 -9v-89c-16 2 -30 3 -42 3c-32.667 0 -56.834 -6.5 -72.501 -19.5s-23.5 -34.833 -23.5 -65.5z" />
    <glyph glyph-name="g" unicode="g" horiz-adv-x="634" 
d="M461 491l97.001 0.00195312v-440c0 -76.667 -22.167 -136.167 -66.5 -178.5s-104.166 -63.5 -179.499 -63.5c-90.667 0 -169.334 31 -236.001 93l58 73c58 -46.667 115.333 -70 172 -70c45.333 0 81.166 12 107.499 36s39.5 58.667 39.5 104v35
c-38.667 -46.667 -94 -70 -166 -70c-68.667 0 -125.667 23.167 -171 69.5s-68 105.166 -68 176.499s22.667 130.166 68 176.499s102.333 69.5 171 69.5c78 0 136 -27 174 -81v70zM454.001 257.002c0 48 -14 85.168 -42 111.501s-63.333 39.5 -106 39.5
s-78.334 -14 -107.001 -42s-43 -64.667 -43 -110c0 -46 14.333 -83.333 43 -112c29.333 -28 65 -42 107 -42c40.667 0 75.334 13.333 104.001 40c29.333 27.333 44 65.666 44 114.999z" />
    <glyph glyph-name="h" unicode="h" horiz-adv-x="575" 
d="M505 307v-307h-105v292c0 34 -9.66699 61.5 -29 82.5s-45.333 31.5 -78 31.5s-59.5 -10.667 -80.5 -32s-31.5 -48.666 -31.5 -81.999v-292h-105v750h105v-308c34 40 81.333 60 142 60c55.333 0 99.5 -17.833 132.5 -53.5s49.5 -82.834 49.5 -141.501z" />
    <glyph glyph-name="i" unicode="i" horiz-adv-x="257" 
d="M76 0v491h105v-491h-105zM57 674c0 19.333 7 35.833 21 49.5s31 20.5 51 20.5c19.333 0 36 -6.83301 50 -20.5s21 -30.167 21 -49.5s-7 -35.666 -21 -48.999s-30.667 -20 -50 -20c-20 0 -37 6.66699 -51 20s-21 29.666 -21 48.999z" />
    <glyph glyph-name="j" unicode="j" horiz-adv-x="257" 
d="M-61 -182l-0.000976562 89.001c16 -2 30.333 -3 43 -3c32 0 55.667 6.66699 71 20s23 35 23 65v502h105v-511c0 -56.667 -15.167 -99.334 -45.5 -128.001s-73.166 -43 -128.499 -43c-27.333 0 -50 3 -68 9zM56.999 674.001c0 19.333 7 35.833 21 49.5s31 20.5 51 20.5
c19.333 0 36 -6.83301 50 -20.5s21 -30.167 21 -49.5s-7 -35.666 -21 -48.999s-30.667 -20 -50 -20c-20 0 -37 6.66699 -51 20s-21 29.666 -21 48.999z" />
    <glyph glyph-name="k" unicode="k" horiz-adv-x="533" 
d="M76 0v750h105v-750h-105zM308 275l215 -275h-126l-213 276l192 215h130z" />
    <glyph glyph-name="l" unicode="l" horiz-adv-x="257" 
d="M76 0v750h105v-750h-105z" />
    <glyph glyph-name="m" unicode="m" horiz-adv-x="883" 
d="M813 307v-307h-106v292c0 34.667 -9.16699 62.334 -27.5 83.001s-43.166 31 -74.499 31c-32 0 -58 -10.167 -78 -30.5s-30 -46.5 -30 -78.5v-297h-105v292c0 34 -9.33301 61.5 -28 82.5s-43.667 31.5 -75 31.5c-32 0 -58 -10.5 -78 -31.5s-30 -48.5 -30 -82.5v-292h-105
v491h98v-46c36.667 38 84 57 142 57c68 0 117.667 -25.667 149 -77c39.333 51.333 94.666 77 165.999 77c56 0 100.333 -17.833 133 -53.5s49 -82.834 49 -141.501z" />
    <glyph glyph-name="n" unicode="n" horiz-adv-x="575" 
d="M505 307v-307.002h-105v293c0 34 -9.83301 61.5 -29.5 82.5s-45.5 31.5 -77.5 31.5c-32.667 0 -59.5 -10.667 -80.5 -32s-31.5 -48.666 -31.5 -81.999v-293h-105v491h98v-48c37.333 39.333 86.333 59 147 59c56.667 0 101.5 -17.667 134.5 -53
s49.5 -82.666 49.5 -141.999z" />
    <glyph glyph-name="o" unicode="o" horiz-adv-x="609" 
d="M45 246c-1.33301 70 23.834 130.498 75.501 181.498s112.834 75.833 183.501 74.5c71.333 1.33301 133 -23.667 185 -75s77.333 -111.666 76 -180.999c1.33301 -70 -24 -130.667 -76 -182s-113.667 -76.333 -185 -75c-70.667 -1.33301 -131.834 23.834 -183.501 75.501
s-76.834 112.167 -75.501 181.5zM457 244.998c0 45.333 -14.667 83.498 -44 114.498s-65.333 46.5 -108 46.5c-43.333 0 -79.666 -15.5 -108.999 -46.5s-44 -69.167 -44 -114.5s14.5 -83.166 43.5 -113.499s65.167 -45.5 108.5 -45.5s79.666 15.333 108.999 46
s44 68.334 44 113.001z" />
    <glyph glyph-name="p" unicode="p" horiz-adv-x="631" 
d="M586 246c0 -73.333 -22.833 -134.5 -68.5 -183.5s-103.167 -73.5 -172.5 -73.5c-68 0 -122.667 23.667 -164 71v-240h-105v671h98v-69c37.333 53.333 94.333 80 171 80c69.333 0 126.833 -24.5 172.5 -73.5s68.5 -109.833 68.5 -182.5zM478 245
c0 46.667 -14.333 85.167 -43 115.5s-64.334 45.5 -107.001 45.5c-41.333 0 -76.333 -14 -105 -42s-43 -67.333 -43 -118c0 -51.333 14.333 -91 43 -119s63.667 -42 105 -42c42.667 0 78.334 15 107.001 45s43 68.333 43 115z" />
    <glyph glyph-name="q" unicode="q" horiz-adv-x="631" 
d="M457 491h98.001v-671h-106v239c-38.667 -46.667 -93.334 -70 -164.001 -70c-68.667 0 -125.834 24.5 -171.501 73.5s-68.5 110.167 -68.5 183.5c0 72.667 22.833 133.5 68.5 182.5s102.834 73.5 171.501 73.5c76.667 0 134 -27 172 -81v70zM451.001 246
c0 50.667 -14.333 90 -43 118s-63.667 42 -105 42c-43.333 0 -79.333 -15.167 -108 -45.5s-43 -68.833 -43 -115.5s14.5 -85 43.5 -115s64.833 -45 107.5 -45c40.667 0 75.5 14.167 104.5 42.5s43.5 67.833 43.5 118.5z" />
    <glyph glyph-name="r" unicode="r" horiz-adv-x="375" 
d="M357 491l0.000976562 -93h-32c-42.667 0 -77.334 -12 -104.001 -36s-40 -57.333 -40 -100v-262h-105v491h98v-64c36.667 46 84.334 69 143.001 69c13.333 0 26.666 -1.66699 39.999 -5z" />
    <glyph glyph-name="s" unicode="s" horiz-adv-x="455" 
d="M30 84l59.999 66c44.667 -46.667 90.667 -70 138 -70c23.333 0 42.333 4.83301 57 14.5s22 23.167 22 40.5c0 13.333 -5 24.166 -15 32.499s-28 17.833 -54 28.5l-50 21c-44.667 18.667 -77.167 38.834 -97.5 60.501s-30.5 49.167 -30.5 82.5
c0 43.333 16.167 77.833 48.5 103.5s73.833 38.5 124.5 38.5c70.667 0 127.334 -25.333 170.001 -76l-57 -65c-32 33.333 -70.333 50 -115 50s-67 -15.667 -67 -47c0 -12 4.66699 -22.167 14 -30.5s26.333 -17.5 51 -27.5l47 -19c47.333 -20 81.5 -41.167 102.5 -63.5
s31.5 -50.5 31.5 -84.5c0 -47.333 -17.333 -84.333 -52 -111c-34.667 -26 -78 -39 -130 -39c-83.333 0 -149.333 31.667 -198 95z" />
    <glyph glyph-name="t" unicode="t" horiz-adv-x="398" 
d="M368 89v-89.001c-34.667 -7.33301 -63.667 -11 -87 -11c-57.333 0 -101.833 14.333 -133.5 43s-47.5 71.334 -47.5 128.001v240h-80v91h80v129h106v-129h146v-91h-146v-231c0 -30.667 7.83301 -52.5 23.5 -65.5s40.167 -19.5 73.5 -19.5c11.333 0 33 1.66699 65 5z" />
    <glyph glyph-name="u" unicode="u" horiz-adv-x="570" 
d="M71 206l-0.000976562 285h104v-293c0 -33.333 10.333 -60.333 31 -81s47.334 -31 80.001 -31c31.333 0 57.166 10.333 77.499 31s30.5 47.667 30.5 81v293h105v-285c0 -64.667 -20.167 -117 -60.5 -157s-91.166 -60 -152.499 -60c-62.667 0 -114.167 19.833 -154.5 59.5
s-60.5 92.167 -60.5 157.5z" />
    <glyph glyph-name="v" unicode="v" horiz-adv-x="549" 
d="M418 491h112l-237 -502h-36l-238 502h112l144 -325z" />
    <glyph glyph-name="w" unicode="w" horiz-adv-x="854" 
d="M723 491h112l-218 -502h-36l-154 327l-154 -327h-36l-218 502h112l129 -321l149 332h36l151 -328z" />
    <glyph glyph-name="x" unicode="x" horiz-adv-x="514" 
d="M499 0h-120l-123 180l-122 -180h-120l182 255l-169 236h120l110 -162l109 162h120l-170 -237z" />
    <glyph glyph-name="y" unicode="y" horiz-adv-x="549" 
d="M418 491l112.001 0.000976562l-239 -547c-20.667 -46.667 -45.334 -80.834 -74.001 -102.501s-64 -32.5 -106 -32.5c-28 0 -55 3.33301 -81 10v89c27.333 -2.66699 46.666 -4 57.999 -4c50.667 0 86.334 24 107.001 72l20 46l-196 469h113l141 -357z" />
    <glyph glyph-name="z" unicode="z" horiz-adv-x="461" 
d="M179 91h260v-91h-417v29l257 371h-234v91h392v-30z" />
    <glyph glyph-name="braceleft" unicode="{" horiz-adv-x="404" 
d="M236 567c0 -16.667 3.99902 -46.335 11.999 -89.002c8 -45.333 12 -76.333 12 -93c0 -23.333 -5 -41.666 -15 -54.999s-26 -23.666 -48 -30.999c22.667 -7.33301 38.834 -17.5 48.501 -30.5s14.5 -31.167 14.5 -54.5c0 -17.333 -4 -48.333 -12 -93
c-8 -43.333 -12 -73 -12 -89c0 -50 23.667 -75 71 -75h53v-88h-72c-97.333 0 -146 45.667 -146 137c0 24.667 4.66699 63.334 14 116.001c6.66699 38 10 63.667 10 77c0 36.667 -19 55 -57 55h-60v91h60c38 0 57 18 57 54c0 13.333 -3.33301 39.666 -10 78.999
c-9.33301 52.667 -14 91 -14 115c0 90.667 48.667 136 146 136h72v-88h-53c-47.333 0 -71 -24.667 -71 -74z" />
    <glyph glyph-name="bar" unicode="|" horiz-adv-x="332" 
d="M122 -121v901h88v-901h-88z" />
    <glyph glyph-name="braceright" unicode="}" horiz-adv-x="404" 
d="M296 345h58.999v-91h-59c-38.667 0 -58 -18.333 -58 -55c0 -13.333 3.33301 -39 10 -77c9.33301 -52.667 14 -91.334 14 -116.001c0 -91.333 -48.667 -137 -146 -137h-72v88h54c46.667 0 70 25 70 75c0 16.667 -4 46.334 -12 89.001c-8 44.667 -12 75.667 -12 93
c0 23.333 4.83301 41.5 14.5 54.5s25.834 23.167 48.501 30.5c-22 7.33301 -38 17.666 -48 30.999s-15 31.666 -15 54.999c0 16.667 4 47.667 12 93c8 42.667 12 72.334 12 89.001c0 49.333 -23.333 74 -70 74h-54v88h72c97.333 0 146 -45.333 146 -136
c0 -24 -4.66699 -62.333 -14 -115c-6.66699 -39.333 -10 -65.666 -10 -78.999c0 -36 19.333 -54 58 -54z" />
    <glyph glyph-name="asciitilde" unicode="~" 
d="M319 242l-90.998 55c-26.667 16.667 -46.334 25 -59.001 25c-11.333 0 -20.166 -3.83301 -26.499 -11.5s-9.5 -17.834 -9.5 -30.501v-24h-82c-1.33301 22.667 -2 35 -2 37c0 35.333 10.167 64.833 30.5 88.5s46.166 35.5 77.499 35.5c24.667 0 52.667 -8.66699 84 -26
l91 -56c29.333 -16 49 -24 59 -24c11.333 0 20 3.83301 26 11.5s9 17.834 9 30.501v25h83l2 -38c0 -36 -10.167 -65.667 -30.5 -89s-46.5 -35 -78.5 -35c-26.667 0 -54.334 8.66699 -83.001 26z" />
    <glyph glyph-name="uni00A0" unicode="&#xa0;" horiz-adv-x="280" 
 />
    <glyph glyph-name="exclamdown" unicode="&#xa1;" horiz-adv-x="326" 
d="M85 424c0 22.667 7.5 41.334 22.5 56.001s33.5 22 55.5 22s40.333 -7.33301 55 -22s22 -33.334 22 -56.001c0 -22 -7.5 -40.333 -22.5 -55s-33.167 -22 -54.5 -22c-22 0 -40.5 7.33301 -55.5 22s-22.5 33 -22.5 55zM99 -180l20 445h87l20 -445h-127z" />
    <glyph glyph-name="cent" unicode="&#xa2;" horiz-adv-x="555" 
d="M428 242l73.001 -58.0029c-38.667 -65.333 -96.334 -102.666 -173.001 -111.999v-167h-98v173c-56.667 14 -103.667 43.667 -141 89c-36 46 -54 99.333 -54 160s18 113.334 54 158.001c36.667 46 83.667 76 141 90v174h98v-168c76.667 -9.33301 134.667 -46.333 174 -111
l-73 -58c-38 49.333 -82.333 74 -133 74c-44 0 -80.667 -15.167 -110 -45.5s-44 -68.166 -44 -113.499s14.667 -83.333 44 -114s66 -46 110 -46c53.333 0 97.333 25 132 75z" />
    <glyph glyph-name="sterling" unicode="&#xa3;" horiz-adv-x="548" 
d="M243 91l261 0.00195312v-91h-455v24c44.667 31.333 78 61.833 100 91.5s33 62.5 33 98.5c0 10.667 -0.333008 17.667 -1 21h-122v91h89l-21 39c-22.667 44 -34 85 -34 123c0 54.667 19.167 98.834 57.5 132.501s87.166 50.5 146.499 50.5c54 0 99.667 -14.667 137 -44
s63.666 -72 78.999 -128l-91 -33c-22 72 -61.667 108 -119 108c-31.333 0 -56.166 -9.5 -74.499 -28.5s-27.5 -43.833 -27.5 -74.5s13.333 -68.334 40 -113.001c10.667 -18.667 16.334 -29.334 17.001 -32.001h159v-91h-130c0.666992 -2.66699 1 -9.33398 1 -20.001
c0 -48.667 -15 -90 -45 -124z" />
    <glyph glyph-name="currency" unicode="&#xa4;" horiz-adv-x="649" 
d="M519 198l108.001 -110l-63 -63l-110 112c-38.667 -24.667 -82.334 -37 -131.001 -37c-47.333 0 -90.666 12 -129.999 36l-107 -111l-64 63l106 109c-28.667 38.667 -43 83 -43 133c0 49.333 14.333 93.333 43 132l-106 108l64 63l108 -109c38.667 24 81.667 36 129 36
c49.333 0 92.666 -12.333 129.999 -37l110 110l64 -63l-108 -107c28.667 -38.667 43 -83 43 -133c0 -49.333 -14.333 -93.333 -43 -132zM454.001 329c0 38.667 -12.667 70.668 -38 96.001s-56.333 38 -93 38c-38 0 -69.167 -12.667 -93.5 -38s-36.5 -57.333 -36.5 -96
c0 -38 12.167 -69.5 36.5 -94.5s55.5 -37.5 93.5 -37.5c36.667 0 67.667 12.667 93 38s38 56.666 38 93.999z" />
    <glyph glyph-name="yen" unicode="&#xa5;" horiz-adv-x="575" 
d="M569 660l-204 -292h164v-89h-188v-77h188v-88h-188v-114h-106v114h-187v88h187v77h-187v89h163l-204 292h118l163 -237l163 237h118z" />
    <glyph glyph-name="brokenbar" unicode="&#xa6;" horiz-adv-x="332" 
d="M122 480v300h88v-300h-88zM122 -121v300h88v-300h-88z" />
    <glyph glyph-name="section" unicode="&#xa7;" horiz-adv-x="590" 
d="M438 43c0.666992 -2 0.999023 -7.66797 0.999023 -17.001c0 -44.667 -16 -81.167 -48 -109.5s-74 -42.5 -126 -42.5c-78 0 -139.333 32.333 -184 97l71 58c34 -42 72.333 -63 115 -63c46 0 69 19.333 69 58c0 14 -3.66699 26.667 -11 38
c-6 10.667 -13.333 19.834 -22 27.501s-26.334 21.5 -53.001 41.5l-99 76c-42.667 30.667 -73.167 58.334 -91.5 83.001s-27.5 52 -27.5 82c0 34 10.5 62.833 31.5 86.5s50.5 40.167 88.5 49.5c-0.666992 2 -1 7.66699 -1 17c0 44 16.167 80.333 48.5 109s74.5 43 126.5 43
c77.333 0 138.333 -32.333 183 -97l-71 -59c-34 42 -72.333 63 -115 63c-46 0 -69 -19 -69 -57c-1.33301 -15.333 3.33398 -30.333 14.001 -45s25.334 -28.667 44.001 -42l28 -21l99 -75c42.667 -30.667 73.167 -58.334 91.5 -83.001s27.5 -52 27.5 -82
c0 -34 -10.5 -62.833 -31.5 -86.5s-50.5 -40.167 -88.5 -49.5zM455.999 177.999c0 14 -5.16797 26.833 -15.501 38.5s-30.833 29.167 -61.5 52.5l-102 78c-45.333 33.333 -76.666 62 -93.999 86c-32 -12 -48 -32 -48 -60c0 -14 5 -26.833 15 -38.5s30.333 -29.5 61 -53.5
l99 -75c46 -32.667 78.333 -62 97 -88c32.667 12.667 49 32.667 49 60z" />
    <glyph glyph-name="dieresis" unicode="&#xa8;" horiz-adv-x="600" 
d="M119 674c0 18 6.83301 33.501 20.5 46.501s29.834 19.5 48.501 19.5s34.5 -6.33301 47.5 -19s19.5 -28.334 19.5 -47.001c0 -17.333 -6.5 -32.5 -19.5 -45.5s-28.833 -19.5 -47.5 -19.5s-34.834 6.5 -48.501 19.5s-20.5 28.167 -20.5 45.5zM344 674.001
c0 18 6.83301 33.5 20.5 46.5s29.834 19.5 48.501 19.5c18 0 33.667 -6.5 47 -19.5s20 -28.5 20 -46.5c0 -17.333 -6.66699 -32.5 -20 -45.5s-29 -19.5 -47 -19.5c-18.667 0 -34.834 6.5 -48.501 19.5s-20.5 28.167 -20.5 45.5z" />
    <glyph glyph-name="copyright" unicode="&#xa9;" horiz-adv-x="780" 
d="M43 330c-2 93.333 32 173.832 102 241.499s151.333 100.834 244 99.501c93.333 2 175 -31.167 245 -99.5s104 -148.833 102 -241.5c2 -93.333 -32 -173.833 -102 -241.5s-151.667 -100.834 -245 -99.501c-92.667 -1.33301 -174 31.834 -244 99.501
s-104 148.167 -102 241.5zM663 329.999c1.33301 78 -25.334 143.504 -80.001 196.504s-119.334 78.833 -194.001 77.5c-74 1.33301 -138.167 -24.334 -192.5 -77.001s-80.833 -118.334 -79.5 -197.001c-1.33301 -78.667 25.167 -144.334 79.5 -197.001
s118.5 -78.334 192.5 -77.001c74.667 -1.33301 139.334 24.5 194.001 77.5s81.334 118.5 80.001 196.5zM208 330.003c0 54 18.168 99.001 54.501 135.001s81.5 54 135.5 54c62 0 112.667 -26 152 -78l-60 -52c-25.333 33.333 -55.333 50 -90 50
c-30.667 0 -55.667 -10.333 -75 -31s-29 -46.667 -29 -78c0 -30.667 9.66699 -56.334 29 -77.001s44 -31 74 -31c36.667 0 67 16.333 91 49l60 -52c-39.333 -51.333 -90.333 -77 -153 -77c-52.667 0 -97.334 18 -134.001 54s-55 80.667 -55 134z" />
    <glyph glyph-name="ordfeminine" unicode="&#xaa;" horiz-adv-x="361" 
d="M308 430v-186h-78v27c-22.667 -22.667 -53.334 -34 -92.001 -34c-33.333 0 -59.666 8.5 -78.999 25.5s-29 39.833 -29 68.5s10.5 51 31.5 67s49.5 24 85.5 24h77v14c0 36 -19.667 54 -59 54c-27.333 0 -55.333 -12 -84 -36l-38 55c38 36 81.667 54 131 54
c42 0 74.833 -11.667 98.5 -35s35.5 -56 35.5 -98zM224 358v10h-63c-14 0 -24.833 -3.16699 -32.5 -9.5s-11.5 -14.5 -11.5 -24.5c0 -22.667 14.667 -34 44 -34c18 0 33 5.33301 45 16s18 24.667 18 42z" />
    <glyph glyph-name="guillemotleft" unicode="&#xab;" horiz-adv-x="550" 
d="M220 58l-186 199v29l186 199l68 -60l-138 -153l138 -155zM447 58l-186 199v29l186 199l68 -60l-138 -153l138 -155z" />
    <glyph glyph-name="logicalnot" unicode="&#xac;" 
d="M377 99v173h-328v91h429v-264h-101z" />
    <glyph glyph-name="uni00AD" unicode="&#xad;" horiz-adv-x="344" 
d="M49 273v89h246v-89h-246z" />
    <glyph glyph-name="registered" unicode="&#xae;" horiz-adv-x="572" 
d="M534 435c1.33301 -68 -23 -127.331 -73 -177.998s-108 -75.334 -174 -74.001c-66.667 -1.33301 -125.167 23.5 -175.5 74.5s-74.833 110.167 -73.5 177.5c-1.33301 67.333 23.167 126.666 73.5 177.999s108.833 76.333 175.5 75c66 1.33301 124 -23.5 174 -74.5
s74.333 -110.5 73 -178.5zM476 436.002c0 54.667 -18.333 100.834 -55 138.501s-81.334 56.5 -134.001 56.5c-53.333 0 -98.166 -18.833 -134.499 -56.5s-54.5 -83.834 -54.5 -138.501s18.167 -101 54.5 -139s81.166 -57 134.499 -57c52.667 0 97.334 18.833 134.001 56.5
s55 84.167 55 139.5zM346 404.002l69 -93.999h-71l-60 79h-32v-79h-64v251h103c28 0 51 -7.83301 69 -23.5s27 -36.5 27 -62.5c0 -30.667 -13.667 -54.334 -41 -71.001zM252 505.003v-60h38c9.33301 0 16.833 2.66699 22.5 8s8.5 12.333 8.5 21c0 20.667 -10.333 31 -31 31
h-38z" />
    <glyph glyph-name="overscore" unicode="&#xaf;" horiz-adv-x="600" 
d="M156 632v84h288v-84h-288z" />
    <glyph glyph-name="degree" unicode="&#xb0;" horiz-adv-x="361" 
d="M28 521c0 41.333 14.833 76.666 44.5 105.999s65.5 44 107.5 44s78 -14.667 108 -44s45 -64.666 45 -105.999s-15 -76.666 -45 -105.999s-66 -44 -108 -44s-77.833 14.667 -107.5 44s-44.5 64.666 -44.5 105.999zM256 521c0 22 -7.16699 40.333 -21.5 55
s-32.5 22 -54.5 22c-20.667 0 -38.334 -7.5 -53.001 -22.5s-22 -33.167 -22 -54.5s7.33301 -39.5 22 -54.5s32.334 -22.5 53.001 -22.5c22 0 40.167 7.33301 54.5 22s21.5 33 21.5 55z" />
    <glyph glyph-name="plusminus" unicode="&#xb1;" 
d="M229 162v151h-168v88h168v145h103v-145h168v-88h-168v-151h-103zM61 0v88h439v-88h-439z" />
    <glyph glyph-name="uni00B2" unicode="&#xb2;" horiz-adv-x="376" 
d="M184 439l153.002 0.000976562v-75h-303v18l148 160c21.333 22.667 36.333 41.667 45 57s13 31.666 13 48.999c0 18 -5.33301 33 -16 45s-24.667 18 -42 18c-18 0 -32.5 -6 -43.5 -18s-16.5 -27.667 -16.5 -47c0 -1.33301 0.166992 -3.33301 0.5 -6
s0.666016 -6.5 0.999023 -11.5s0.5 -9.5 0.5 -13.5h-82c-2.66699 10 -4 22 -4 36c0 36.667 13.667 68.5 41 95.5s61.666 40.5 102.999 40.5c40.667 0 74.667 -12.667 102 -38s41 -56.666 41 -93.999c0 -26.667 -6.83301 -51.834 -20.5 -75.501s-36.5 -52.5 -68.5 -86.5z" />
    <glyph glyph-name="uni00B3" unicode="&#xb3;" horiz-adv-x="357" 
d="M320 500c0 -41.333 -15.168 -75.499 -45.501 -102.499s-66.833 -40.5 -109.5 -40.5c-33.333 0 -63.166 8.33301 -89.499 25s-46.5 39.334 -60.5 68.001l58 41c24 -38.667 53.667 -58 89 -58c22 0 39.667 6.16699 53 18.5s20 28.5 20 48.5c0 40.667 -28.667 61 -86 61h-45
v21l88 123h-146v75h266v-23l-92 -130c28.667 -6.66699 52.5 -21.334 71.5 -44.001s28.5 -50.334 28.5 -83.001z" />
    <glyph glyph-name="acute" unicode="&#xb4;" horiz-adv-x="600" 
d="M196 568l79 212h128v-19l-129 -193h-78z" />
    <glyph glyph-name="uni00B5" unicode="&#xb5;" horiz-adv-x="602" 
d="M555 86l28 2v-88c-20 -5.33301 -40.667 -8 -62 -8c-48 0 -81.333 18.333 -100 55c-30 -38.667 -71 -58 -123 -58c-49.333 0 -88.333 17.333 -117 52v-221h-105v671h105v-288c0 -34.667 10.167 -63 30.5 -85s46.5 -33 78.5 -33c32.667 0 59.167 11 79.5 33
s30.5 50.333 30.5 85v288h105v-337c0 -45.333 16.667 -68 50 -68z" />
    <glyph glyph-name="paragraph" unicode="&#xb6;" horiz-adv-x="588" 
d="M36 445c0 64 22.833 115.833 68.5 155.5s103.5 59.5 173.5 59.5h60v-433h-60c-69.333 0 -127 20.167 -173 60.5s-69 92.833 -69 157.5zM237 -180v90c16 -1.33301 24.667 -2 26 -2c14 -2 27 -3 39 -3c33.333 0 58 7 74 21s24 37.333 24 70v664h105v-674
c0 -118 -60.667 -177 -182 -177c-24 0 -52.667 3.66699 -86 11z" />
    <glyph glyph-name="middot" unicode="&#xb7;" horiz-adv-x="280" 
d="M62 317c0 22 7.66699 40.501 23 55.501s34 22.5 56 22.5s40.333 -7.33301 55 -22s22 -33.334 22 -56.001c0 -22 -7.33301 -40.333 -22 -55s-33 -22 -55 -22s-40.667 7.33301 -56 22s-23 33 -23 55z" />
    <glyph glyph-name="cedilla" unicode="&#xb8;" horiz-adv-x="600" 
d="M193 -182l0.000976562 72.001c24 -2 43 -3 57 -3c22 0 39.333 5.33301 52 16s19 25.667 19 45c0 21.333 -8 43.333 -24 66l43 21c44.667 -22.667 67 -58 67 -106c0 -34.667 -13 -63.334 -39 -86.001s-60.667 -34 -104 -34c-22.667 0 -46.334 3 -71.001 9z" />
    <glyph glyph-name="uni00B9" unicode="&#xb9;" horiz-adv-x="361" 
d="M45 364v75h104v266h-98v75h181v-341h88v-75h-275z" />
    <glyph glyph-name="ordmasculine" unicode="&#xba;" horiz-adv-x="401" 
d="M34 399c0 46 16 84.6689 48 116.002s71.333 47 118 47c46 0 85.333 -15.667 118 -47s49 -70 49 -116c0 -44.667 -16.333 -82.834 -49 -114.501s-72 -47.5 -118 -47.5c-46.667 0 -86 15.667 -118 47s-48 69.666 -48 114.999zM283 399.002
c0 25.333 -7.66699 46.167 -23 62.5s-35.333 24.5 -60 24.5s-44.5 -8 -59.5 -24s-22.5 -37 -22.5 -63c0 -25.333 7.5 -46 22.5 -62s34.833 -24 59.5 -24s44.667 8 60 24s23 36.667 23 62z" />
    <glyph glyph-name="guillemotright" unicode="&#xbb;" horiz-adv-x="550" 
d="M103 58l-68 59l138 155l-138 153l68 60l186 -199v-29zM330 58l-68 59l138 155l-138 153l68 60l186 -199v-29z" />
    <glyph glyph-name="onequarter" unicode="&#xbc;" horiz-adv-x="911" 
d="M45 244v75h104v266h-98v75h181v-341h88v-75h-275zM249 0l379 660h89l-379 -660h-89zM897 137v-68h-53v-69h-76v69h-209v22l127 325h85l-110 -279h107l1 120h75v-120h53z" />
    <glyph glyph-name="onehalf" unicode="&#xbd;" horiz-adv-x="947" 
d="M45 244v75h104v266h-98v75h181v-341h88v-75h-275zM249 0l379 660h89l-379 -660h-89zM754 75l153.002 0.000976562v-75h-303v18l148 160c21.333 22.667 36.333 41.667 45 57s13 31.666 13 48.999c0 18 -5.33301 33 -16 45s-24.667 18 -42 18c-18 0 -32.5 -6 -43.5 -18
s-16.5 -27.667 -16.5 -47c0 -1.33301 0.166992 -3.33301 0.5 -6s0.666016 -6.5 0.999023 -11.5s0.5 -9.5 0.5 -13.5h-82c-2.66699 10 -4 22 -4 36c0 36.667 13.667 68.5 41 95.5s61.666 40.5 102.999 40.5c40.667 0 74.667 -12.667 102 -38s41 -56.666 41 -93.999
c0 -26.667 -6.83301 -51.834 -20.5 -75.501s-36.5 -52.5 -68.5 -86.5z" />
    <glyph glyph-name="threequarters" unicode="&#xbe;" horiz-adv-x="872" 
d="M320 380c0 -41.333 -15.168 -75.499 -45.501 -102.499s-66.833 -40.5 -109.5 -40.5c-33.333 0 -63.166 8.33301 -89.499 25s-46.5 39.334 -60.5 68.001l58 41c24 -38.667 53.667 -58 89 -58c22 0 39.667 6.16699 53 18.5s20 28.5 20 48.5c0 40.667 -28.667 61 -86 61h-45
v21l88 123h-146v75h266v-23l-92 -130c28.667 -6.66699 52.5 -21.334 71.5 -44.001s28.5 -50.334 28.5 -83.001zM209.999 0.000976562l379 660h89l-379 -660h-89zM857.999 137.001v-68h-53v-69h-76v69h-209v22l127 325h85l-110 -279h107l1 120h75v-120h53z" />
    <glyph glyph-name="questiondown" unicode="&#xbf;" horiz-adv-x="447" 
d="M157 424c0 22 7.49902 40.501 22.499 55.501s33.5 22.5 55.5 22.5s40.5 -7.33301 55.5 -22s22.5 -33.334 22.5 -56.001c0 -22 -7.5 -40.5 -22.5 -55.5s-33.5 -22.5 -55.5 -22.5c-21.333 0 -39.666 7.5 -54.999 22.5s-23 33.5 -23 55.5zM38.999 -16.999
c0 31.333 6.99902 58.832 20.999 82.499s36.667 48.834 68 75.501c27.333 24.667 45.833 43.5 55.5 56.5s14.5 26.833 14.5 41.5c0 10 -1 18.667 -3 26h91c6.66699 -15.333 10 -30.333 10 -45c0 -20.667 -6 -39.5 -18 -56.5s-32.667 -38.833 -62 -65.5
c-25.333 -23.333 -43.166 -42.833 -53.499 -58.5s-15.5 -32.5 -15.5 -50.5c0 -24 8 -43.833 24 -59.5s35.333 -23.5 58 -23.5c44.667 0 77 28.667 97 86l87 -38c-13.333 -46.667 -36.333 -82.5 -69 -107.5s-72 -37.5 -118 -37.5c-52 0 -96.167 16.5 -132.5 49.5
s-54.5 74.5 -54.5 124.5z" />
    <glyph glyph-name="Agrave" unicode="&#xc0;" horiz-adv-x="662" 
d="M526 0l-47 110h-297l-47 -110h-113l291 671h36l291 -671h-114zM441 201l-110 273l-111 -273h221zM293 724l-129 167v19h128l79 -186h-78z" />
    <glyph glyph-name="Aacute" unicode="&#xc1;" horiz-adv-x="662" 
d="M526 0l-47 110h-297l-47 -110h-113l291 671h36l291 -671h-114zM441 201l-110 273l-111 -273h221zM290 724l79 186h128v-19l-129 -167h-78z" />
    <glyph glyph-name="Acircumflex" unicode="&#xc2;" horiz-adv-x="662" 
d="M526 0l-47 110h-297l-47 -110h-113l291 671h36l291 -671h-114zM441 201l-110 273l-111 -273h221zM512 724h-81l-100 94l-101 -94h-81l148 186h67z" />
    <glyph glyph-name="Atilde" unicode="&#xc3;" horiz-adv-x="662" 
d="M526 0l-47 110h-297l-47 -110h-113l291 671h36l291 -671h-114zM441 201l-110 273l-111 -273h221zM339 757l-31.999 18c-20 12 -34.667 18 -44 18c-18.667 0 -28 -12 -28 -36v-13h-84c-1.33301 16 -2 25.667 -2 29c0 34 9.5 62 28.5 84s43.167 33 72.5 33
c24.667 0 48.667 -7.33301 72 -22l33 -20c22 -12 36.667 -18 44 -18c18.667 0 28 11.667 28 35v15h84c1.33301 -16 2 -25.667 2 -29c0 -34 -9.5 -62 -28.5 -84s-42.833 -33 -71.5 -33c-22.667 0 -47.334 7.66699 -74.001 23z" />
    <glyph glyph-name="Adieresis" unicode="&#xc4;" horiz-adv-x="662" 
d="M526 0l-47 110h-297l-47 -110h-113l291 671h36l291 -671h-114zM441 201l-110 273l-111 -273h221zM140 812c0 18 6.83301 33.333 20.5 46s29.5 19 47.5 19c19.333 0 35.5 -6.16699 48.5 -18.5s19.5 -27.833 19.5 -46.5c0 -17.333 -6.66699 -32.5 -20 -45.5
s-29.333 -19.5 -48 -19.5c-18 0 -33.833 6.5 -47.5 19.5s-20.5 28.167 -20.5 45.5zM385 811c0 18 6.83301 33.501 20.5 46.501s29.5 19.5 47.5 19.5c18.667 0 34.667 -6.33301 48 -19s20 -28.334 20 -47.001c0 -17.333 -6.66699 -32.5 -20 -45.5s-29.333 -19.5 -48 -19.5
c-18 0 -33.833 6.5 -47.5 19.5s-20.5 28.167 -20.5 45.5z" />
    <glyph glyph-name="Aring" unicode="&#xc5;" horiz-adv-x="662" 
d="M526 0l-47 110h-297l-47 -110h-113l291 671h36l291 -671h-114zM441 201l-110 273l-111 -273h221zM212 802c0 32 11.167 59.167 33.5 81.5s50.5 33.5 84.5 33.5s62.333 -11.167 85 -33.5s34 -49.5 34 -81.5c0 -32.667 -11.333 -60 -34 -82s-51 -33 -85 -33
s-62.167 11 -84.5 33s-33.5 49.333 -33.5 82zM376 802c0 13.333 -4.33301 24.333 -13 33s-19.334 13 -32.001 13c-13.333 0 -24.333 -4.33301 -33 -13s-13 -19.667 -13 -33s4.33301 -24.333 13 -33s19.667 -13 33 -13c12.667 0 23.334 4.33301 32.001 13s13 19.667 13 33z
" />
    <glyph glyph-name="AE" unicode="&#xc6;" horiz-adv-x="836" 
d="M551 95h245v-95h-334l-19 110h-262l-58 -110h-114l342 660h433v-95h-311l28 -169h203v-92h-188zM379 505l-151 -304h199z" />
    <glyph glyph-name="Ccedilla" unicode="&#xc7;" horiz-adv-x="717" 
d="M43 330c-2 94 31.6689 174.667 101.002 242s151.333 100.333 246 99c60 0 115 -13.667 165 -41s89.333 -64.333 118 -111l-80 -59c-48.667 76 -116 114 -202 114c-68 0 -124.667 -23.167 -170 -69.5s-68 -104.5 -68 -174.5s22.667 -128.167 68 -174.5
s102 -69.5 170 -69.5c86 0 153.333 38 202 114l80 -59c-28.667 -47.333 -67.834 -84.5 -117.501 -111.5s-104.834 -40.5 -165.501 -40.5c-94.667 -1.33301 -176.667 31.667 -246 99s-103 148 -101 242zM263.002 -182v72.001c24 -2 43 -3 57 -3c22 0 39.333 5.33301 52 16
s19 25.667 19 45c0 21.333 -8 43.333 -24 66l43 21c44.667 -22.667 67 -58 67 -106c0 -34.667 -13 -63.334 -39 -86.001s-60.667 -34 -104 -34c-22 0 -45.667 3 -71 9z" />
    <glyph glyph-name="Egrave" unicode="&#xc8;" horiz-adv-x="569" 
d="M83 0v660h434v-95h-328v-169h247v-92h-247v-209h340v-95h-446zM261 724l-129 167v19h128l79 -186h-78z" />
    <glyph glyph-name="Eacute" unicode="&#xc9;" horiz-adv-x="569" 
d="M83 0v660h434v-95h-328v-169h247v-92h-247v-209h340v-95h-446zM258 724l79 186h128v-19l-129 -167h-78z" />
    <glyph glyph-name="Ecircumflex" unicode="&#xca;" horiz-adv-x="569" 
d="M83 0v660h434v-95h-328v-169h247v-92h-247v-209h340v-95h-446zM480 724h-81l-100 94l-101 -94h-81l148 186h67z" />
    <glyph glyph-name="Edieresis" unicode="&#xcb;" horiz-adv-x="569" 
d="M83 0v660h434v-95h-328v-169h247v-92h-247v-209h340v-95h-446zM108 812c0 18 6.83301 33.333 20.5 46s29.5 19 47.5 19c19.333 0 35.5 -6.16699 48.5 -18.5s19.5 -27.833 19.5 -46.5c0 -17.333 -6.66699 -32.5 -20 -45.5s-29.333 -19.5 -48 -19.5
c-18 0 -33.833 6.5 -47.5 19.5s-20.5 28.167 -20.5 45.5zM353 811c0 18 6.83301 33.501 20.5 46.501s29.5 19.5 47.5 19.5c18.667 0 34.667 -6.33301 48 -19s20 -28.334 20 -47.001c0 -17.333 -6.66699 -32.5 -20 -45.5s-29.333 -19.5 -48 -19.5
c-18 0 -33.833 6.5 -47.5 19.5s-20.5 28.167 -20.5 45.5z" />
    <glyph glyph-name="Igrave" unicode="&#xcc;" horiz-adv-x="272" 
d="M83 0v660h106v-660h-106zM99 724l-129 167v19h128l79 -186h-78z" />
    <glyph glyph-name="Iacute" unicode="&#xcd;" horiz-adv-x="272" 
d="M83 0v660h106v-660h-106zM96 724l79 186h128v-19l-129 -167h-78z" />
    <glyph glyph-name="Icircumflex" unicode="&#xce;" horiz-adv-x="272" 
d="M83 0v660h106v-660h-106zM318 724h-81l-100 94l-101 -94h-81l148 186h67z" />
    <glyph glyph-name="Idieresis" unicode="&#xcf;" horiz-adv-x="272" 
d="M83 0v660h106v-660h-106zM-54 812c0 18 6.83301 33.333 20.5 46s29.5 19 47.5 19c19.333 0 35.5 -6.16699 48.5 -18.5s19.5 -27.833 19.5 -46.5c0 -17.333 -6.66699 -32.5 -20 -45.5s-29.333 -19.5 -48 -19.5c-18 0 -33.833 6.5 -47.5 19.5s-20.5 28.167 -20.5 45.5z
M191 811c0 18 6.83301 33.501 20.5 46.501s29.5 19.5 47.5 19.5c18.667 0 34.667 -6.33301 48 -19s20 -28.334 20 -47.001c0 -17.333 -6.66699 -32.5 -20 -45.5s-29.333 -19.5 -48 -19.5c-18 0 -33.833 6.5 -47.5 19.5s-20.5 28.167 -20.5 45.5z" />
    <glyph glyph-name="Eth" unicode="&#xd0;" horiz-adv-x="692" 
d="M649 331c0 -96.667 -33.167 -176 -99.5 -238s-152.833 -93 -259.5 -93h-207v265h-89v90h89v305h207c107.333 0 194 -30.333 260 -91s99 -140 99 -238zM540 331c0 70.667 -22.667 127.167 -68 169.5s-106.333 63.5 -183 63.5h-100v-209h120v-90h-120v-170h100
c76 0 136.833 21.833 182.5 65.5s68.5 100.5 68.5 170.5z" />
    <glyph glyph-name="Ntilde" unicode="&#xd1;" horiz-adv-x="711" 
d="M521 660h106v-671h-36l-402 458v-447h-106v671h37l401 -456v445zM363 757l-31.999 18c-20 12 -34.667 18 -44 18c-18.667 0 -28 -12 -28 -36v-13h-84c-1.33301 16 -2 25.667 -2 29c0 34 9.5 62 28.5 84s43.167 33 72.5 33c24.667 0 48.667 -7.33301 72 -22l33 -20
c22 -12 36.667 -18 44 -18c18.667 0 28 11.667 28 35v15h84c1.33301 -16 2 -25.667 2 -29c0 -34 -9.5 -62 -28.5 -84s-42.833 -33 -71.5 -33c-22.667 0 -47.334 7.66699 -74.001 23z" />
    <glyph glyph-name="Ograve" unicode="&#xd2;" horiz-adv-x="780" 
d="M43 330c-1.33301 94 32.332 174.667 100.999 242s150.334 100.333 245.001 99c94 1.33301 175.833 -31.667 245.5 -99s103.5 -148 101.5 -242c2 -94 -31.833 -174.667 -101.5 -242s-151.5 -100.333 -245.5 -99c-94.667 -1.33301 -176.5 31.667 -245.5 99
s-102.5 148 -100.5 242zM626.998 331c0 69.333 -22.668 127.167 -68.001 173.5s-101.666 69.5 -168.999 69.5c-68 0 -124.5 -23 -169.5 -69s-67.5 -104 -67.5 -174c0 -70.667 22.333 -129.167 67 -175.5s101.334 -69.5 170.001 -69.5c67.333 0 123.666 23.333 168.999 70
s68 105 68 175zM351.997 724.001l-129 167v19h128l79 -186h-78z" />
    <glyph glyph-name="Oacute" unicode="&#xd3;" horiz-adv-x="780" 
d="M43 330c-1.33301 94 32.332 174.667 100.999 242s150.334 100.333 245.001 99c94 1.33301 175.833 -31.667 245.5 -99s103.5 -148 101.5 -242c2 -94 -31.833 -174.667 -101.5 -242s-151.5 -100.333 -245.5 -99c-94.667 -1.33301 -176.5 31.667 -245.5 99
s-102.5 148 -100.5 242zM626.998 331c0 69.333 -22.668 127.167 -68.001 173.5s-101.666 69.5 -168.999 69.5c-68 0 -124.5 -23 -169.5 -69s-67.5 -104 -67.5 -174c0 -70.667 22.333 -129.167 67 -175.5s101.334 -69.5 170.001 -69.5c67.333 0 123.666 23.333 168.999 70
s68 105 68 175zM348.997 724.001l79 186h128v-19l-129 -167h-78z" />
    <glyph glyph-name="Ocircumflex" unicode="&#xd4;" horiz-adv-x="780" 
d="M43 330c-1.33301 94 32.332 174.667 100.999 242s150.334 100.333 245.001 99c94 1.33301 175.833 -31.667 245.5 -99s103.5 -148 101.5 -242c2 -94 -31.833 -174.667 -101.5 -242s-151.5 -100.333 -245.5 -99c-94.667 -1.33301 -176.5 31.667 -245.5 99
s-102.5 148 -100.5 242zM626.998 331c0 69.333 -22.668 127.167 -68.001 173.5s-101.666 69.5 -168.999 69.5c-68 0 -124.5 -23 -169.5 -69s-67.5 -104 -67.5 -174c0 -70.667 22.333 -129.167 67 -175.5s101.334 -69.5 170.001 -69.5c67.333 0 123.666 23.333 168.999 70
s68 105 68 175zM570.997 724.001h-81l-100 94l-101 -94h-81l148 186h67z" />
    <glyph glyph-name="Otilde" unicode="&#xd5;" horiz-adv-x="780" 
d="M43 330c-1.33301 94 32.332 174.667 100.999 242s150.334 100.333 245.001 99c94 1.33301 175.833 -31.667 245.5 -99s103.5 -148 101.5 -242c2 -94 -31.833 -174.667 -101.5 -242s-151.5 -100.333 -245.5 -99c-94.667 -1.33301 -176.5 31.667 -245.5 99
s-102.5 148 -100.5 242zM626.998 331c0 69.333 -22.668 127.167 -68.001 173.5s-101.666 69.5 -168.999 69.5c-68 0 -124.5 -23 -169.5 -69s-67.5 -104 -67.5 -174c0 -70.667 22.333 -129.167 67 -175.5s101.334 -69.5 170.001 -69.5c67.333 0 123.666 23.333 168.999 70
s68 105 68 175zM397.997 757.001l-31.999 18c-20 12 -34.667 18 -44 18c-18.667 0 -28 -12 -28 -36v-13h-84c-1.33301 16 -2 25.667 -2 29c0 34 9.5 62 28.5 84s43.167 33 72.5 33c24.667 0 48.667 -7.33301 72 -22l33 -20c22 -12 36.667 -18 44 -18
c18.667 0 28 11.667 28 35v15h84c1.33301 -16 2 -25.667 2 -29c0 -34 -9.5 -62 -28.5 -84s-42.833 -33 -71.5 -33c-22.667 0 -47.334 7.66699 -74.001 23z" />
    <glyph glyph-name="Odieresis" unicode="&#xd6;" horiz-adv-x="780" 
d="M43 330c-1.33301 94 32.332 174.667 100.999 242s150.334 100.333 245.001 99c94 1.33301 175.833 -31.667 245.5 -99s103.5 -148 101.5 -242c2 -94 -31.833 -174.667 -101.5 -242s-151.5 -100.333 -245.5 -99c-94.667 -1.33301 -176.5 31.667 -245.5 99
s-102.5 148 -100.5 242zM626.998 331c0 69.333 -22.668 127.167 -68.001 173.5s-101.666 69.5 -168.999 69.5c-68 0 -124.5 -23 -169.5 -69s-67.5 -104 -67.5 -174c0 -70.667 22.333 -129.167 67 -175.5s101.334 -69.5 170.001 -69.5c67.333 0 123.666 23.333 168.999 70
s68 105 68 175zM198.997 812.001c0 18 6.83301 33.333 20.5 46s29.5 19 47.5 19c19.333 0 35.5 -6.16699 48.5 -18.5s19.5 -27.833 19.5 -46.5c0 -17.333 -6.66699 -32.5 -20 -45.5s-29.333 -19.5 -48 -19.5c-18 0 -33.833 6.5 -47.5 19.5s-20.5 28.167 -20.5 45.5z
M443.997 811.001c0 18 6.83301 33.501 20.5 46.501s29.5 19.5 47.5 19.5c18.667 0 34.667 -6.33301 48 -19s20 -28.334 20 -47.001c0 -17.333 -6.66699 -32.5 -20 -45.5s-29.333 -19.5 -48 -19.5c-18 0 -33.833 6.5 -47.5 19.5s-20.5 28.167 -20.5 45.5z" />
    <glyph glyph-name="multiply" unicode="&#xd7;" 
d="M128 104l-63 63l151 152l-151 152l63 63l152 -151l152 151l63 -63l-152 -152l152 -152l-63 -63l-152 151z" />
    <glyph glyph-name="Oslash" unicode="&#xd8;" horiz-adv-x="780" 
d="M743 620l-80.0029 -80c48.667 -59.333 73 -129.333 73 -210c2 -94 -31.833 -174.667 -101.5 -242s-151.5 -100.333 -245.5 -99c-77.333 0 -146.666 22.333 -207.999 67l-80 -80l-64 64l78 79c-48 62.667 -72 133 -72 211c-1.33301 94 32.334 174.667 101.001 242
s150.334 100.333 245.001 99c77.333 0 147.333 -22.667 210 -68l80 81zM147.997 331c0 -52.667 13.001 -99.333 39.001 -140l343 344c-40.667 28.667 -87.334 43 -140.001 43c-69.333 0 -127 -23.5 -173 -70.5s-69 -105.833 -69 -176.5zM630.998 331.001
c0 51.333 -13 97.333 -39 138l-343 -344c40.667 -28.667 87.667 -43 141 -43c68.667 0 126 23.5 172 70.5s69 106.5 69 178.5z" />
    <glyph glyph-name="Ugrave" unicode="&#xd9;" horiz-adv-x="694" 
d="M76 267l-0.000976562 393h106v-400c0 -54.667 15.167 -97.334 45.5 -128.001s70.5 -46 120.5 -46c49.333 0 89 15.333 119 46s45 73.334 45 128.001v400h106v-393c0 -85.333 -25.167 -153 -75.5 -203s-115.166 -75 -194.499 -75c-80.667 0 -146.167 25 -196.5 75
s-75.5 117.667 -75.5 203zM308.999 724l-129 167v19h128l79 -186h-78z" />
    <glyph glyph-name="Uacute" unicode="&#xda;" horiz-adv-x="694" 
d="M76 267l-0.000976562 393h106v-400c0 -54.667 15.167 -97.334 45.5 -128.001s70.5 -46 120.5 -46c49.333 0 89 15.333 119 46s45 73.334 45 128.001v400h106v-393c0 -85.333 -25.167 -153 -75.5 -203s-115.166 -75 -194.499 -75c-80.667 0 -146.167 25 -196.5 75
s-75.5 117.667 -75.5 203zM305.999 724l79 186h128v-19l-129 -167h-78z" />
    <glyph glyph-name="Ucircumflex" unicode="&#xdb;" horiz-adv-x="694" 
d="M76 267l-0.000976562 393h106v-400c0 -54.667 15.167 -97.334 45.5 -128.001s70.5 -46 120.5 -46c49.333 0 89 15.333 119 46s45 73.334 45 128.001v400h106v-393c0 -85.333 -25.167 -153 -75.5 -203s-115.166 -75 -194.499 -75c-80.667 0 -146.167 25 -196.5 75
s-75.5 117.667 -75.5 203zM527.999 724h-81l-100 94l-101 -94h-81l148 186h67z" />
    <glyph glyph-name="Udieresis" unicode="&#xdc;" horiz-adv-x="694" 
d="M76 267l-0.000976562 393h106v-400c0 -54.667 15.167 -97.334 45.5 -128.001s70.5 -46 120.5 -46c49.333 0 89 15.333 119 46s45 73.334 45 128.001v400h106v-393c0 -85.333 -25.167 -153 -75.5 -203s-115.166 -75 -194.499 -75c-80.667 0 -146.167 25 -196.5 75
s-75.5 117.667 -75.5 203zM155.999 812c0 18 6.83301 33.333 20.5 46s29.5 19 47.5 19c19.333 0 35.5 -6.16699 48.5 -18.5s19.5 -27.833 19.5 -46.5c0 -17.333 -6.66699 -32.5 -20 -45.5s-29.333 -19.5 -48 -19.5c-18 0 -33.833 6.5 -47.5 19.5s-20.5 28.167 -20.5 45.5z
M400.999 811c0 18 6.83301 33.501 20.5 46.501s29.5 19.5 47.5 19.5c18.667 0 34.667 -6.33301 48 -19s20 -28.334 20 -47.001c0 -17.333 -6.66699 -32.5 -20 -45.5s-29.333 -19.5 -48 -19.5c-18 0 -33.833 6.5 -47.5 19.5s-20.5 28.167 -20.5 45.5z" />
    <glyph glyph-name="Yacute" unicode="&#xdd;" horiz-adv-x="620" 
d="M591 660l-228 -394v-266h-106v266l-228 394h118l163 -287l164 287h117zM267 724l79 186h128v-19l-129 -167h-78z" />
    <glyph glyph-name="Thorn" unicode="&#xde;" horiz-adv-x="583" 
d="M83 0v660.001h106v-110h135c66.667 0 120.667 -18.833 162 -56.5s62 -87.167 62 -148.5c0 -60.667 -20.833 -110.334 -62.5 -149.001s-95.5 -58 -161.5 -58h-135v-138h-106zM189 232.001h132.998c36.667 0 65.334 10.167 86.001 30.5s31 47.5 31 81.5
c0 34.667 -10.167 62 -30.5 82s-49.166 30 -86.499 30h-133v-224z" />
    <glyph glyph-name="germandbls" unicode="&#xdf;" horiz-adv-x="630" 
d="M254 53l47.9961 74.999c40.667 -31.333 82.667 -47 126 -47c47.333 0 71 17 71 51c0 15.333 -6 28.333 -18 39s-33.333 25 -64 43c-37.333 21.333 -64.166 41.333 -80.499 60s-24.5 39.667 -24.5 63c0 22 6 47.333 18 76l38 102c10 24.667 15 47.667 15 69
c0 24.667 -7.66699 44.334 -23 59.001s-36.666 22 -63.999 22c-35.333 0 -63.5 -12 -84.5 -36s-31.5 -58.333 -31.5 -103v-526h-104v531c0 71.333 20.333 127.5 61 168.5s95.334 61.5 164.001 61.5c57.333 0 103 -13.833 137 -41.5s51 -65.167 51 -112.5
c0 -26 -5 -52.667 -15 -80l-39 -107c-10.667 -26 -16 -46.333 -16 -61c0 -15.333 6.33301 -28.5 19 -39.5s33.334 -24.833 62.001 -41.5c37.333 -23.333 64 -45.5 80 -66.5s24 -46.5 24 -76.5c0 -44 -16.667 -79.333 -50 -106s-76.333 -40 -129 -40
c-66.667 0 -123.667 21.333 -171 64z" />
    <glyph glyph-name="agrave" unicode="&#xe0;" horiz-adv-x="536" 
d="M466 297l-0.000976562 -297h-98v55c-36.667 -44 -89 -66 -157 -66c-51.333 0 -92.666 13 -123.999 39s-47 60.333 -47 103s16.333 76.667 49 102s76.667 38 132 38h139v32c0 34 -9.16699 60 -27.5 78s-44.166 27 -77.499 27c-50 0 -95.333 -24.333 -136 -73l-61 62
c48 70 117 105 207 105c61.333 0 110.166 -18 146.499 -54s54.5 -86.333 54.5 -151zM359.999 186v9h-126c-58 0 -87 -20 -87 -60c0 -20 7.83301 -35.833 23.5 -47.5s36.5 -17.5 62.5 -17.5c36 0 66.167 11 90.5 33s36.5 49.667 36.5 83zM225.999 568l-129 193v19h128
l79 -212h-78z" />
    <glyph glyph-name="aacute" unicode="&#xe1;" horiz-adv-x="536" 
d="M466 297l-0.000976562 -297h-98v55c-36.667 -44 -89 -66 -157 -66c-51.333 0 -92.666 13 -123.999 39s-47 60.333 -47 103s16.333 76.667 49 102s76.667 38 132 38h139v32c0 34 -9.16699 60 -27.5 78s-44.166 27 -77.499 27c-50 0 -95.333 -24.333 -136 -73l-61 62
c48 70 117 105 207 105c61.333 0 110.166 -18 146.499 -54s54.5 -86.333 54.5 -151zM359.999 186v9h-126c-58 0 -87 -20 -87 -60c0 -20 7.83301 -35.833 23.5 -47.5s36.5 -17.5 62.5 -17.5c36 0 66.167 11 90.5 33s36.5 49.667 36.5 83zM225.999 568l79 212h128v-19
l-129 -193h-78z" />
    <glyph glyph-name="acircumflex" unicode="&#xe2;" horiz-adv-x="536" 
d="M466 297l-0.000976562 -297h-98v55c-36.667 -44 -89 -66 -157 -66c-51.333 0 -92.666 13 -123.999 39s-47 60.333 -47 103s16.333 76.667 49 102s76.667 38 132 38h139v32c0 34 -9.16699 60 -27.5 78s-44.166 27 -77.499 27c-50 0 -95.333 -24.333 -136 -73l-61 62
c48 70 117 105 207 105c61.333 0 110.166 -18 146.499 -54s54.5 -86.333 54.5 -151zM359.999 186v9h-126c-58 0 -87 -20 -87 -60c0 -20 7.83301 -35.833 23.5 -47.5s36.5 -17.5 62.5 -17.5c36 0 66.167 11 90.5 33s36.5 49.667 36.5 83zM432.999 568h-78l-90 109l-91 -109
h-79l136 212h67z" />
    <glyph glyph-name="atilde" unicode="&#xe3;" horiz-adv-x="536" 
d="M466 297l-0.000976562 -297h-98v55c-36.667 -44 -89 -66 -157 -66c-51.333 0 -92.666 13 -123.999 39s-47 60.333 -47 103s16.333 76.667 49 102s76.667 38 132 38h139v32c0 34 -9.16699 60 -27.5 78s-44.166 27 -77.499 27c-50 0 -95.333 -24.333 -136 -73l-61 62
c48 70 117 105 207 105c61.333 0 110.166 -18 146.499 -54s54.5 -86.333 54.5 -151zM359.999 186v9h-126c-58 0 -87 -20 -87 -60c0 -20 7.83301 -35.833 23.5 -47.5s36.5 -17.5 62.5 -17.5c36 0 66.167 11 90.5 33s36.5 49.667 36.5 83zM269.999 611l-26.999 20
c-18.667 14 -32.334 21 -41.001 21c-18.667 0 -28 -12.667 -28 -38v-14h-83c-1.33301 17.333 -2 27 -2 29c0 35.333 9.16699 64 27.5 86s42.166 33 71.499 33c24.667 0 48 -8 70 -24l27 -20c17.333 -13.333 31 -20 41 -20c18.667 0 28 12.667 28 38v14h83
c0.666992 -4.66699 1 -14.334 1 -29.001c0 -35.333 -9.16699 -64.166 -27.5 -86.499s-42.166 -33.5 -71.499 -33.5c-23.333 0 -46.333 8 -69 24z" />
    <glyph glyph-name="adieresis" unicode="&#xe4;" horiz-adv-x="536" 
d="M466 297l-0.000976562 -297h-98v55c-36.667 -44 -89 -66 -157 -66c-51.333 0 -92.666 13 -123.999 39s-47 60.333 -47 103s16.333 76.667 49 102s76.667 38 132 38h139v32c0 34 -9.16699 60 -27.5 78s-44.166 27 -77.499 27c-50 0 -95.333 -24.333 -136 -73l-61 62
c48 70 117 105 207 105c61.333 0 110.166 -18 146.499 -54s54.5 -86.333 54.5 -151zM359.999 186v9h-126c-58 0 -87 -20 -87 -60c0 -20 7.83301 -35.833 23.5 -47.5s36.5 -17.5 62.5 -17.5c36 0 66.167 11 90.5 33s36.5 49.667 36.5 83zM82.999 674
c0 18 6.83301 33.501 20.5 46.501s29.834 19.5 48.501 19.5s34.5 -6.33301 47.5 -19s19.5 -28.334 19.5 -47.001c0 -17.333 -6.5 -32.5 -19.5 -45.5s-28.833 -19.5 -47.5 -19.5s-34.834 6.5 -48.501 19.5s-20.5 28.167 -20.5 45.5zM307.999 674.001
c0 18 6.83301 33.5 20.5 46.5s29.834 19.5 48.501 19.5c18 0 33.667 -6.5 47 -19.5s20 -28.5 20 -46.5c0 -17.333 -6.66699 -32.5 -20 -45.5s-29 -19.5 -47 -19.5c-18.667 0 -34.834 6.5 -48.501 19.5s-20.5 28.167 -20.5 45.5z" />
    <glyph glyph-name="aring" unicode="&#xe5;" horiz-adv-x="536" 
d="M466 297l-0.000976562 -297h-98v55c-36.667 -44 -89 -66 -157 -66c-51.333 0 -92.666 13 -123.999 39s-47 60.333 -47 103s16.333 76.667 49 102s76.667 38 132 38h139v32c0 34 -9.16699 60 -27.5 78s-44.166 27 -77.499 27c-50 0 -95.333 -24.333 -136 -73l-61 62
c48 70 117 105 207 105c61.333 0 110.166 -18 146.499 -54s54.5 -86.333 54.5 -151zM359.999 186v9h-126c-58 0 -87 -20 -87 -60c0 -20 7.83301 -35.833 23.5 -47.5s36.5 -17.5 62.5 -17.5c36 0 66.167 11 90.5 33s36.5 49.667 36.5 83zM144.999 669
c0 32.667 11.333 60 34 82c22.667 22.667 50.667 34 84 34c34 0 62.333 -11 85 -33s34 -49.667 34 -83c0 -32.667 -11.333 -60 -34 -82s-51 -33 -85 -33c-33.333 0 -61.333 11 -84 33s-34 49.333 -34 82zM308.999 669c0 13.333 -4.33301 24.5 -13 33.5
s-19.334 13.5 -32.001 13.5c-13.333 0 -24.333 -4.5 -33 -13.5s-13 -20.167 -13 -33.5c0 -12.667 4.33301 -23.334 13 -32.001s19.667 -13 33 -13c12.667 0 23.334 4.33301 32.001 13s13 19.334 13 32.001z" />
    <glyph glyph-name="ae" unicode="&#xe6;" horiz-adv-x="887" 
d="M834 204l-365.002 -0.00292969c8 -38 26.167 -67.833 54.5 -89.5s63.166 -32.5 104.499 -32.5c52 0 99.333 19 142 57l51 -71c-54 -52.667 -119 -79 -195 -79c-45.333 0 -86.166 9.5 -122.499 28.5s-65.833 45.5 -88.5 79.5c-18 -35.333 -44.167 -62.166 -78.5 -80.499
s-74.166 -27.5 -119.499 -27.5c-54 0 -97 13.333 -129 40s-48 61.334 -48 104.001c0 44.667 16.5 80.334 49.5 107.001s76.833 40 131.5 40h139v23c0 34 -9.16699 60 -27.5 78s-43.833 27 -76.5 27c-49.333 0 -94.666 -24.333 -135.999 -73l-61 62
c50 70 118.667 105 206 105c77.333 0 132.333 -29 165 -87c46.667 58 108.667 87 186 87c65.333 0 119.333 -21.5 162 -64.5s64 -96.833 64 -161.5c0 -28 -2.66699 -52 -8 -72zM466.998 279.997h269.999c2.66699 40 -8 72.167 -32 96.5s-55 36.5 -93 36.5
c-37.333 0 -69.166 -12.167 -95.499 -36.5s-42.833 -56.5 -49.5 -96.5zM359.997 184.997v19h-126c-58 0 -87 -21 -87 -63c0 -22 7.83301 -39.167 23.5 -51.5s36.5 -18.5 62.5 -18.5c34.667 0 64.667 10.667 90 32c24.667 22 37 49.333 37 82z" />
    <glyph glyph-name="ccedilla" unicode="&#xe7;" horiz-adv-x="552" 
d="M45 246c-1.33301 70 24 130.501 76 181.501s113.333 75.833 184 74.5c92 0 161 -38 207 -114l-74 -58c-34.667 50 -78.667 75 -132 75c-44 0 -80.667 -15.333 -110 -46s-44 -68.334 -44 -113.001c0 -45.333 14.667 -83.333 44 -114s66 -46 110 -46c52 0 96 24.667 132 74
l74 -57c-22 -36 -51 -64 -87 -84s-76 -30 -120 -30c-72.667 0 -134.167 25 -184.5 75s-75.5 110.667 -75.5 182zM168 -181.999v72.001c24 -2 43 -3 57 -3c22 0 39.333 5.33301 52 16s19 25.667 19 45c0 21.333 -8 43.333 -24 66l43 21c44.667 -22.667 67 -58 67 -106
c0 -34.667 -13 -63.334 -39 -86.001s-60.667 -34 -104 -34c-22 0 -45.667 3 -71 9z" />
    <glyph glyph-name="egrave" unicode="&#xe8;" horiz-adv-x="570" 
d="M518 211h-366.001c6.66699 -40 24.5 -71.5 53.5 -94.5s64.5 -34.5 106.5 -34.5c52 0 99.667 19.333 143 58l50 -72c-55.333 -52.667 -120.666 -79 -195.999 -79c-74.667 0 -137.334 24.5 -188.001 73.5s-76 109.833 -76 182.5c-1.33301 70.667 23.334 131.5 74.001 182.5
s110.667 75.833 180 74.5c64.667 0 118.667 -21.5 162 -64.5s65 -96.5 65 -160.5c0 -19.333 -2.66699 -41.333 -8 -66zM153.999 293h267.001c-0.666992 36.667 -13 65.834 -37 87.501s-53.667 32.5 -89 32.5c-34.667 0 -64.834 -10.833 -90.501 -32.5
s-42.5 -50.834 -50.5 -87.501zM259 568l-129 193v19h128l79 -212h-78z" />
    <glyph glyph-name="eacute" unicode="&#xe9;" horiz-adv-x="570" 
d="M518 211h-366.001c6.66699 -40 24.5 -71.5 53.5 -94.5s64.5 -34.5 106.5 -34.5c52 0 99.667 19.333 143 58l50 -72c-55.333 -52.667 -120.666 -79 -195.999 -79c-74.667 0 -137.334 24.5 -188.001 73.5s-76 109.833 -76 182.5c-1.33301 70.667 23.334 131.5 74.001 182.5
s110.667 75.833 180 74.5c64.667 0 118.667 -21.5 162 -64.5s65 -96.5 65 -160.5c0 -19.333 -2.66699 -41.333 -8 -66zM153.999 293h267.001c-0.666992 36.667 -13 65.834 -37 87.501s-53.667 32.5 -89 32.5c-34.667 0 -64.834 -10.833 -90.501 -32.5
s-42.5 -50.834 -50.5 -87.501zM259 568l79 212h128v-19l-129 -193h-78z" />
    <glyph glyph-name="ecircumflex" unicode="&#xea;" horiz-adv-x="570" 
d="M518 211h-366.001c6.66699 -40 24.5 -71.5 53.5 -94.5s64.5 -34.5 106.5 -34.5c52 0 99.667 19.333 143 58l50 -72c-55.333 -52.667 -120.666 -79 -195.999 -79c-74.667 0 -137.334 24.5 -188.001 73.5s-76 109.833 -76 182.5c-1.33301 70.667 23.334 131.5 74.001 182.5
s110.667 75.833 180 74.5c64.667 0 118.667 -21.5 162 -64.5s65 -96.5 65 -160.5c0 -19.333 -2.66699 -41.333 -8 -66zM153.999 293h267.001c-0.666992 36.667 -13 65.834 -37 87.501s-53.667 32.5 -89 32.5c-34.667 0 -64.834 -10.833 -90.501 -32.5
s-42.5 -50.834 -50.5 -87.501zM466 568h-78l-90 109l-91 -109h-79l136 212h67z" />
    <glyph glyph-name="edieresis" unicode="&#xeb;" horiz-adv-x="570" 
d="M518 211h-366.001c6.66699 -40 24.5 -71.5 53.5 -94.5s64.5 -34.5 106.5 -34.5c52 0 99.667 19.333 143 58l50 -72c-55.333 -52.667 -120.666 -79 -195.999 -79c-74.667 0 -137.334 24.5 -188.001 73.5s-76 109.833 -76 182.5c-1.33301 70.667 23.334 131.5 74.001 182.5
s110.667 75.833 180 74.5c64.667 0 118.667 -21.5 162 -64.5s65 -96.5 65 -160.5c0 -19.333 -2.66699 -41.333 -8 -66zM153.999 293h267.001c-0.666992 36.667 -13 65.834 -37 87.501s-53.667 32.5 -89 32.5c-34.667 0 -64.834 -10.833 -90.501 -32.5
s-42.5 -50.834 -50.5 -87.501zM116 674c0 18 6.83301 33.501 20.5 46.501s29.834 19.5 48.501 19.5s34.5 -6.33301 47.5 -19s19.5 -28.334 19.5 -47.001c0 -17.333 -6.5 -32.5 -19.5 -45.5s-28.833 -19.5 -47.5 -19.5s-34.834 6.5 -48.501 19.5s-20.5 28.167 -20.5 45.5z
M341 674.001c0 18 6.83301 33.5 20.5 46.5s29.834 19.5 48.501 19.5c18 0 33.667 -6.5 47 -19.5s20 -28.5 20 -46.5c0 -17.333 -6.66699 -32.5 -20 -45.5s-29 -19.5 -47 -19.5c-18.667 0 -34.834 6.5 -48.501 19.5s-20.5 28.167 -20.5 45.5z" />
    <glyph glyph-name="igrave" unicode="&#xec;" horiz-adv-x="257" 
d="M76 0v491h105v-491h-105zM92 568l-99 193v19h128l49 -212h-78z" />
    <glyph glyph-name="iacute" unicode="&#xed;" horiz-adv-x="257" 
d="M76 0v491h105v-491h-105zM89 568l49 212h128v-19l-99 -193h-78z" />
    <glyph glyph-name="icircumflex" unicode="&#xee;" horiz-adv-x="257" 
d="M76 0v491h105v-491h-105zM298 568h-78l-90 109l-91 -109h-79l136 212h67z" />
    <glyph glyph-name="idieresis" unicode="&#xef;" horiz-adv-x="257" 
d="M76 0v491h105v-491h-105zM-39 674c0 18 6.66699 33.501 20 46.501s29 19.5 47 19.5c19.333 0 35.5 -6.33301 48.5 -19s19.5 -28.334 19.5 -47.001c0 -17.333 -6.66699 -32.5 -20 -45.5s-29.333 -19.5 -48 -19.5c-17.333 0 -32.833 6.5 -46.5 19.5
s-20.5 28.167 -20.5 45.5zM161 674.001c0 18 6.83301 33.501 20.5 46.501s29.5 19.5 47.5 19.5c18.667 0 34.667 -6.33301 48 -19s20 -28.334 20 -47.001c0 -17.333 -6.66699 -32.5 -20 -45.5s-29.333 -19.5 -48 -19.5c-18 0 -33.833 6.5 -47.5 19.5
s-20.5 28.167 -20.5 45.5z" />
    <glyph glyph-name="eth" unicode="&#xf0;" horiz-adv-x="571" 
d="M526 224c0 -67.333 -22.8291 -123.333 -68.4961 -168s-102.834 -67 -171.501 -67c-69.333 0 -126.833 22 -172.5 66s-68.5 98.333 -68.5 163c0 64 22.167 117.5 66.5 160.5s98.166 64.5 161.499 64.5c5.33301 0 16.666 -0.666992 33.999 -2l-80 110l-143 -69l-37 76
l129 63l-60 82l80 58l72 -96l154 75l38 -75l-141 -69l94 -126c23.333 -31.333 43.666 -60.333 60.999 -87c34.667 -52.667 52 -105.667 52 -159zM419.004 219c0 38.667 -12.667 70.667 -38 96s-57.333 38 -96 38s-70.5 -12.667 -95.5 -38s-37.5 -57.666 -37.5 -96.999
s12.5 -71.5 37.5 -96.5s56.833 -37.5 95.5 -37.5s70.667 12.667 96 38s38 57.666 38 96.999z" />
    <glyph glyph-name="ntilde" unicode="&#xf1;" horiz-adv-x="575" 
d="M505 307v-307.002h-105v293c0 34 -9.83301 61.5 -29.5 82.5s-45.5 31.5 -77.5 31.5c-32.667 0 -59.5 -10.667 -80.5 -32s-31.5 -48.666 -31.5 -81.999v-293h-105v491h98v-48c37.333 39.333 86.333 59 147 59c56.667 0 101.5 -17.667 134.5 -53
s49.5 -82.666 49.5 -141.999zM289 610.998l-26.999 20c-18.667 14 -32.334 21 -41.001 21c-18.667 0 -28 -12.667 -28 -38v-14h-83c-1.33301 17.333 -2 27 -2 29c0 35.333 9.16699 64 27.5 86s42.166 33 71.499 33c24.667 0 48 -8 70 -24l27 -20
c17.333 -13.333 31 -20 41 -20c18.667 0 28 12.667 28 38v14h83c0.666992 -4.66699 1 -14.334 1 -29.001c0 -35.333 -9.16699 -64.166 -27.5 -86.499s-42.166 -33.5 -71.499 -33.5c-23.333 0 -46.333 8 -69 24z" />
    <glyph glyph-name="ograve" unicode="&#xf2;" horiz-adv-x="609" 
d="M45 246c-1.33301 70 23.834 130.498 75.501 181.498s112.834 75.833 183.501 74.5c71.333 1.33301 133 -23.667 185 -75s77.333 -111.666 76 -180.999c1.33301 -70 -24 -130.667 -76 -182s-113.667 -76.333 -185 -75c-70.667 -1.33301 -131.834 23.834 -183.501 75.501
s-76.834 112.167 -75.501 181.5zM457 244.998c0 45.333 -14.667 83.498 -44 114.498s-65.333 46.5 -108 46.5c-43.333 0 -79.666 -15.5 -108.999 -46.5s-44 -69.167 -44 -114.5s14.5 -83.166 43.5 -113.499s65.167 -45.5 108.5 -45.5s79.666 15.333 108.999 46
s44 68.334 44 113.001zM266 567.996l-129 193v19h128l79 -212h-78z" />
    <glyph glyph-name="oacute" unicode="&#xf3;" horiz-adv-x="609" 
d="M45 246c-1.33301 70 23.834 130.498 75.501 181.498s112.834 75.833 183.501 74.5c71.333 1.33301 133 -23.667 185 -75s77.333 -111.666 76 -180.999c1.33301 -70 -24 -130.667 -76 -182s-113.667 -76.333 -185 -75c-70.667 -1.33301 -131.834 23.834 -183.501 75.501
s-76.834 112.167 -75.501 181.5zM457 244.998c0 45.333 -14.667 83.498 -44 114.498s-65.333 46.5 -108 46.5c-43.333 0 -79.666 -15.5 -108.999 -46.5s-44 -69.167 -44 -114.5s14.5 -83.166 43.5 -113.499s65.167 -45.5 108.5 -45.5s79.666 15.333 108.999 46
s44 68.334 44 113.001zM267 567.996l79 212h128v-19l-129 -193h-78z" />
    <glyph glyph-name="ocircumflex" unicode="&#xf4;" horiz-adv-x="609" 
d="M45 246c-1.33301 70 23.834 130.498 75.501 181.498s112.834 75.833 183.501 74.5c71.333 1.33301 133 -23.667 185 -75s77.333 -111.666 76 -180.999c1.33301 -70 -24 -130.667 -76 -182s-113.667 -76.333 -185 -75c-70.667 -1.33301 -131.834 23.834 -183.501 75.501
s-76.834 112.167 -75.501 181.5zM457 244.998c0 45.333 -14.667 83.498 -44 114.498s-65.333 46.5 -108 46.5c-43.333 0 -79.666 -15.5 -108.999 -46.5s-44 -69.167 -44 -114.5s14.5 -83.166 43.5 -113.499s65.167 -45.5 108.5 -45.5s79.666 15.333 108.999 46
s44 68.334 44 113.001zM474 567.996h-78l-90 109l-91 -109h-79l136 212h67z" />
    <glyph glyph-name="otilde" unicode="&#xf5;" horiz-adv-x="609" 
d="M45 246c-1.33301 70 23.834 130.498 75.501 181.498s112.834 75.833 183.501 74.5c71.333 1.33301 133 -23.667 185 -75s77.333 -111.666 76 -180.999c1.33301 -70 -24 -130.667 -76 -182s-113.667 -76.333 -185 -75c-70.667 -1.33301 -131.834 23.834 -183.501 75.501
s-76.834 112.167 -75.501 181.5zM457 244.998c0 45.333 -14.667 83.498 -44 114.498s-65.333 46.5 -108 46.5c-43.333 0 -79.666 -15.5 -108.999 -46.5s-44 -69.167 -44 -114.5s14.5 -83.166 43.5 -113.499s65.167 -45.5 108.5 -45.5s79.666 15.333 108.999 46
s44 68.334 44 113.001zM311 610.996l-26.999 20c-18.667 14 -32.334 21 -41.001 21c-18.667 0 -28 -12.667 -28 -38v-14h-83c-1.33301 17.333 -2 27 -2 29c0 35.333 9.16699 64 27.5 86s42.166 33 71.499 33c24.667 0 48 -8 70 -24l27 -20c17.333 -13.333 31 -20 41 -20
c18.667 0 28 12.667 28 38v14h83c0.666992 -4.66699 1 -14.334 1 -29.001c0 -35.333 -9.16699 -64.166 -27.5 -86.499s-42.166 -33.5 -71.499 -33.5c-23.333 0 -46.333 8 -69 24z" />
    <glyph glyph-name="odieresis" unicode="&#xf6;" horiz-adv-x="609" 
d="M45 246c-1.33301 70 23.834 130.498 75.501 181.498s112.834 75.833 183.501 74.5c71.333 1.33301 133 -23.667 185 -75s77.333 -111.666 76 -180.999c1.33301 -70 -24 -130.667 -76 -182s-113.667 -76.333 -185 -75c-70.667 -1.33301 -131.834 23.834 -183.501 75.501
s-76.834 112.167 -75.501 181.5zM457 244.998c0 45.333 -14.667 83.498 -44 114.498s-65.333 46.5 -108 46.5c-43.333 0 -79.666 -15.5 -108.999 -46.5s-44 -69.167 -44 -114.5s14.5 -83.166 43.5 -113.499s65.167 -45.5 108.5 -45.5s79.666 15.333 108.999 46
s44 68.334 44 113.001zM124 673.996c0 18 6.83301 33.501 20.5 46.501s29.834 19.5 48.501 19.5s34.5 -6.33301 47.5 -19s19.5 -28.334 19.5 -47.001c0 -17.333 -6.5 -32.5 -19.5 -45.5s-28.833 -19.5 -47.5 -19.5s-34.834 6.5 -48.501 19.5s-20.5 28.167 -20.5 45.5z
M349 673.997c0 18 6.83301 33.5 20.5 46.5s29.834 19.5 48.501 19.5c18 0 33.667 -6.5 47 -19.5s20 -28.5 20 -46.5c0 -17.333 -6.66699 -32.5 -20 -45.5s-29 -19.5 -47 -19.5c-18.667 0 -34.834 6.5 -48.501 19.5s-20.5 28.167 -20.5 45.5z" />
    <glyph glyph-name="divide" unicode="&#xf7;" 
d="M210 499c0 18 6.66699 33.333 20 46s29.333 19 48 19c19.333 0 35.5 -6.16699 48.5 -18.5s19.5 -27.833 19.5 -46.5c0 -18 -6.66699 -33.333 -20 -46s-29.333 -19 -48 -19s-34.667 6.33301 -48 19s-20 28 -20 46zM50 272v91h459v-91h-459zM210 134
c0 18 6.66699 33.333 20 46s29.333 19 48 19c19.333 0 35.5 -6.16699 48.5 -18.5s19.5 -27.833 19.5 -46.5s-6.5 -34.167 -19.5 -46.5s-29.167 -18.5 -48.5 -18.5c-18.667 0 -34.667 6.33301 -48 19s-20 28 -20 46z" />
    <glyph glyph-name="oslash" unicode="&#xf8;" horiz-adv-x="616" 
d="M577 450l-55.999 -56.001c31.333 -44.667 47 -94.334 47 -149.001c1.33301 -69.333 -24.167 -129.666 -76.5 -180.999s-113.833 -76.333 -184.5 -75c-53.333 0 -102.333 14.667 -147 44l-56 -57l-64 64l56 56c-32 44.667 -48 94.334 -48 149.001
c0 71.333 25.167 132 75.5 182s111.833 75 184.5 75c53.333 0 102.666 -15 147.999 -45l57 56zM148.001 244.999c0 -32.667 7 -60.999 21 -84.999l226 227c-27.333 16 -56.333 24 -87 24c-46.667 0 -85 -15.667 -115 -47c-30 -30.667 -45 -70.334 -45 -119.001zM468.001 245
c0 31.333 -6.66699 59.667 -20 85l-228 -227c25.333 -16.667 54.333 -25 87 -25c46 0 84.333 15.833 115 47.5s46 71.5 46 119.5z" />
    <glyph glyph-name="ugrave" unicode="&#xf9;" horiz-adv-x="570" 
d="M71 206l-0.000976562 285h104v-293c0 -33.333 10.333 -60.333 31 -81s47.334 -31 80.001 -31c31.333 0 57.166 10.333 77.499 31s30.5 47.667 30.5 81v293h105v-285c0 -64.667 -20.167 -117 -60.5 -157s-91.166 -60 -152.499 -60c-62.667 0 -114.167 19.833 -154.5 59.5
s-60.5 92.167 -60.5 157.5zM245.999 568l-129 193v19h128l79 -212h-78z" />
    <glyph glyph-name="uacute" unicode="&#xfa;" horiz-adv-x="570" 
d="M71 206l-0.000976562 285h104v-293c0 -33.333 10.333 -60.333 31 -81s47.334 -31 80.001 -31c31.333 0 57.166 10.333 77.499 31s30.5 47.667 30.5 81v293h105v-285c0 -64.667 -20.167 -117 -60.5 -157s-91.166 -60 -152.499 -60c-62.667 0 -114.167 19.833 -154.5 59.5
s-60.5 92.167 -60.5 157.5zM246.999 568l79 212h128v-19l-129 -193h-78z" />
    <glyph glyph-name="ucircumflex" unicode="&#xfb;" horiz-adv-x="570" 
d="M71 206l-0.000976562 285h104v-293c0 -33.333 10.333 -60.333 31 -81s47.334 -31 80.001 -31c31.333 0 57.166 10.333 77.499 31s30.5 47.667 30.5 81v293h105v-285c0 -64.667 -20.167 -117 -60.5 -157s-91.166 -60 -152.499 -60c-62.667 0 -114.167 19.833 -154.5 59.5
s-60.5 92.167 -60.5 157.5zM453.999 568h-78l-90 109l-91 -109h-79l136 212h67z" />
    <glyph glyph-name="udieresis" unicode="&#xfc;" horiz-adv-x="570" 
d="M71 206l-0.000976562 285h104v-293c0 -33.333 10.333 -60.333 31 -81s47.334 -31 80.001 -31c31.333 0 57.166 10.333 77.499 31s30.5 47.667 30.5 81v293h105v-285c0 -64.667 -20.167 -117 -60.5 -157s-91.166 -60 -152.499 -60c-62.667 0 -114.167 19.833 -154.5 59.5
s-60.5 92.167 -60.5 157.5zM103.999 674c0 18 6.83301 33.501 20.5 46.501s29.834 19.5 48.501 19.5s34.5 -6.33301 47.5 -19s19.5 -28.334 19.5 -47.001c0 -17.333 -6.5 -32.5 -19.5 -45.5s-28.833 -19.5 -47.5 -19.5s-34.834 6.5 -48.501 19.5s-20.5 28.167 -20.5 45.5z
M328.999 674.001c0 18 6.83301 33.5 20.5 46.5s29.834 19.5 48.501 19.5c18 0 33.667 -6.5 47 -19.5s20 -28.5 20 -46.5c0 -17.333 -6.66699 -32.5 -20 -45.5s-29 -19.5 -47 -19.5c-18.667 0 -34.834 6.5 -48.501 19.5s-20.5 28.167 -20.5 45.5z" />
    <glyph glyph-name="yacute" unicode="&#xfd;" horiz-adv-x="549" 
d="M418 491l112.001 0.000976562l-239 -547c-20.667 -46.667 -45.334 -80.834 -74.001 -102.501s-64 -32.5 -106 -32.5c-28 0 -55 3.33301 -81 10v89c27.333 -2.66699 46.666 -4 57.999 -4c50.667 0 86.334 24 107.001 72l20 46l-196 469h113l141 -357zM234.001 568.001
l79 212h128v-19l-129 -193h-78z" />
    <glyph glyph-name="thorn" unicode="&#xfe;" horiz-adv-x="631" 
d="M586 246c0 -73.333 -22.834 -134.5 -68.501 -183.5s-103.167 -73.5 -172.5 -73.5c-68 0 -122.667 23.667 -164 71v-240h-105v930h105v-319c38.667 47.333 93.334 71 164.001 71c69.333 0 126.833 -24.5 172.5 -73.5s68.5 -109.833 68.5 -182.5zM477.999 245
c0 46.667 -14.333 85.167 -43 115.5s-64.334 45.5 -107.001 45.5c-41.333 0 -76.333 -14 -105 -42s-43 -67.333 -43 -118c0 -51.333 14.333 -91 43 -119s63.667 -42 105 -42c42.667 0 78.334 15 107.001 45s43 68.333 43 115z" />
    <glyph glyph-name="ydieresis" unicode="&#xff;" horiz-adv-x="549" 
d="M418 491l112.001 0.000976562l-239 -547c-20.667 -46.667 -45.334 -80.834 -74.001 -102.501s-64 -32.5 -106 -32.5c-28 0 -55 3.33301 -81 10v89c27.333 -2.66699 46.666 -4 57.999 -4c50.667 0 86.334 24 107.001 72l20 46l-196 469h113l141 -357zM92.001 674.001
c0 18 6.83301 33.501 20.5 46.501s29.834 19.5 48.501 19.5s34.5 -6.33301 47.5 -19s19.5 -28.334 19.5 -47.001c0 -17.333 -6.5 -32.5 -19.5 -45.5s-28.833 -19.5 -47.5 -19.5s-34.834 6.5 -48.501 19.5s-20.5 28.167 -20.5 45.5zM317.001 674.002
c0 18 6.83301 33.5 20.5 46.5s29.834 19.5 48.501 19.5c18 0 33.667 -6.5 47 -19.5s20 -28.5 20 -46.5c0 -17.333 -6.66699 -32.5 -20 -45.5s-29 -19.5 -47 -19.5c-18.667 0 -34.834 6.5 -48.501 19.5s-20.5 28.167 -20.5 45.5z" />
    <glyph glyph-name="Amacron" unicode="&#x100;" horiz-adv-x="662" 
d="M526 0l-47 110h-297l-47 -110h-113l291 671h36l291 -671h-114zM441 201l-110 273l-111 -273h221zM177 762v85h308v-85h-308z" />
    <glyph glyph-name="amacron" unicode="&#x101;" horiz-adv-x="536" 
d="M466 297l-0.000976562 -297h-98v55c-36.667 -44 -89 -66 -157 -66c-51.333 0 -92.666 13 -123.999 39s-47 60.333 -47 103s16.333 76.667 49 102s76.667 38 132 38h139v32c0 34 -9.16699 60 -27.5 78s-44.166 27 -77.499 27c-50 0 -95.333 -24.333 -136 -73l-61 62
c48 70 117 105 207 105c61.333 0 110.166 -18 146.499 -54s54.5 -86.333 54.5 -151zM359.999 186v9h-126c-58 0 -87 -20 -87 -60c0 -20 7.83301 -35.833 23.5 -47.5s36.5 -17.5 62.5 -17.5c36 0 66.167 11 90.5 33s36.5 49.667 36.5 83zM119.999 632v84h288v-84h-288z" />
    <glyph glyph-name="Abreve" unicode="&#x102;" horiz-adv-x="662" 
d="M526 0l-47 110h-297l-47 -110h-113l291 671h36l291 -671h-114zM441 201l-110 273l-111 -273h221zM169 890v20h84v-20c0 -26.667 7 -47.834 21 -63.501s32.667 -23.5 56 -23.5c24 0 43 7.83301 57 23.5s21 36.834 21 63.501v20h85v-20c0 -50 -15.333 -90.333 -46 -121
c-30 -30.667 -69 -46 -117 -46s-86.833 15.333 -116.5 46s-44.5 71 -44.5 121z" />
    <glyph glyph-name="abreve" unicode="&#x103;" horiz-adv-x="536" 
d="M466 297l-0.000976562 -297h-98v55c-36.667 -44 -89 -66 -157 -66c-51.333 0 -92.666 13 -123.999 39s-47 60.333 -47 103s16.333 76.667 49 102s76.667 38 132 38h139v32c0 34 -9.16699 60 -27.5 78s-44.166 27 -77.499 27c-50 0 -95.333 -24.333 -136 -73l-61 62
c48 70 117 105 207 105c61.333 0 110.166 -18 146.499 -54s54.5 -86.333 54.5 -151zM359.999 186v9h-126c-58 0 -87 -20 -87 -60c0 -20 7.83301 -35.833 23.5 -47.5s36.5 -17.5 62.5 -17.5c36 0 66.167 11 90.5 33s36.5 49.667 36.5 83zM101.999 738v29h84v-28
c0 -26.667 7 -47.834 21 -63.501s32.667 -23.5 56 -23.5c24 0 43 7.83301 57 23.5s21 36.834 21 63.501v28h85v-29c0 -49.333 -15.333 -89.333 -46 -120c-30 -30.667 -69 -46 -117 -46c-47.333 0 -86 15.333 -116 46s-45 70.667 -45 120z" />
    <glyph glyph-name="Aogonek" unicode="&#x104;" horiz-adv-x="662" 
d="M526 0l-47 110h-297l-47 -110h-113l291 671h36l291 -671h-114zM441 201l-110 273l-111 -273h221zM448 -98c0 27.333 11.168 51.333 33.501 72s61.166 44 116.499 70l42 -44l-45 -29c-14.667 -10 -24 -16.5 -28 -19.5s-7.83301 -7.16699 -11.5 -12.5
s-5.5 -11.333 -5.5 -18c0 -22 14 -33 42 -33c9.33301 0 25.333 2 48 6v-73c-26.667 -8 -53 -12 -79 -12c-34.667 0 -62.167 8.5 -82.5 25.5s-30.5 39.5 -30.5 67.5z" />
    <glyph glyph-name="aogonek" unicode="&#x105;" horiz-adv-x="536" 
d="M466 297l-0.000976562 -297h-98v55c-36.667 -44 -89 -66 -157 -66c-51.333 0 -92.666 13 -123.999 39s-47 60.333 -47 103s16.333 76.667 49 102s76.667 38 132 38h139v32c0 34 -9.16699 60 -27.5 78s-44.166 27 -77.499 27c-50 0 -95.333 -24.333 -136 -73l-61 62
c48 70 117 105 207 105c61.333 0 110.166 -18 146.499 -54s54.5 -86.333 54.5 -151zM359.999 186v9h-126c-58 0 -87 -20 -87 -60c0 -20 7.83301 -35.833 23.5 -47.5s36.5 -17.5 62.5 -17.5c36 0 66.167 11 90.5 33s36.5 49.667 36.5 83zM272.999 -98
c0 27.333 11.167 51.333 33.5 72s61.166 44 116.499 70l42 -44l-45 -29c-14.667 -10 -24 -16.5 -28 -19.5s-7.83301 -7.16699 -11.5 -12.5s-5.5 -11.333 -5.5 -18c0 -22 14 -33 42 -33c8.66699 0 24.667 2 48 6v-73c-27.333 -8 -53.666 -12 -78.999 -12
c-34.667 0 -62.167 8.5 -82.5 25.5s-30.5 39.5 -30.5 67.5z" />
    <glyph glyph-name="Cacute" unicode="&#x106;" horiz-adv-x="717" 
d="M43 330c-2 94 31.6689 174.667 101.002 242s151.333 100.333 246 99c60 0 115 -13.667 165 -41s89.333 -64.333 118 -111l-80 -59c-48.667 76 -116 114 -202 114c-68 0 -124.667 -23.167 -170 -69.5s-68 -104.5 -68 -174.5s22.667 -128.167 68 -174.5
s102 -69.5 170 -69.5c86 0 153.333 38 202 114l80 -59c-28.667 -47.333 -67.834 -84.5 -117.501 -111.5s-104.834 -40.5 -165.501 -40.5c-94.667 -1.33301 -176.667 31.667 -246 99s-103 148 -101 242zM350.002 724l79 186h128v-19l-129 -167h-78z" />
    <glyph glyph-name="cacute" unicode="&#x107;" horiz-adv-x="552" 
d="M45 246c-1.33301 70 24 130.501 76 181.501s113.333 75.833 184 74.5c92 0 161 -38 207 -114l-74 -58c-34.667 50 -78.667 75 -132 75c-44 0 -80.667 -15.333 -110 -46s-44 -68.334 -44 -113.001c0 -45.333 14.667 -83.333 44 -114s66 -46 110 -46c52 0 96 24.667 132 74
l74 -57c-22 -36 -51 -64 -87 -84s-76 -30 -120 -30c-72.667 0 -134.167 25 -184.5 75s-75.5 110.667 -75.5 182zM265 568.001l79 212h128v-19l-129 -193h-78z" />
    <glyph glyph-name="Ccircumflex" unicode="&#x108;" horiz-adv-x="717" 
d="M43 330c-2 94 31.6689 174.667 101.002 242s151.333 100.333 246 99c60 0 115 -13.667 165 -41s89.333 -64.333 118 -111l-80 -59c-48.667 76 -116 114 -202 114c-68 0 -124.667 -23.167 -170 -69.5s-68 -104.5 -68 -174.5s22.667 -128.167 68 -174.5
s102 -69.5 170 -69.5c86 0 153.333 38 202 114l80 -59c-28.667 -47.333 -67.834 -84.5 -117.501 -111.5s-104.834 -40.5 -165.501 -40.5c-94.667 -1.33301 -176.667 31.667 -246 99s-103 148 -101 242zM572.002 724h-81l-100 94l-101 -94h-81l148 186h67z" />
    <glyph glyph-name="ccircumflex" unicode="&#x109;" horiz-adv-x="552" 
d="M45 246c-1.33301 70 24 130.501 76 181.501s113.333 75.833 184 74.5c92 0 161 -38 207 -114l-74 -58c-34.667 50 -78.667 75 -132 75c-44 0 -80.667 -15.333 -110 -46s-44 -68.334 -44 -113.001c0 -45.333 14.667 -83.333 44 -114s66 -46 110 -46c52 0 96 24.667 132 74
l74 -57c-22 -36 -51 -64 -87 -84s-76 -30 -120 -30c-72.667 0 -134.167 25 -184.5 75s-75.5 110.667 -75.5 182zM472 568.001h-78l-90 109l-91 -109h-79l136 212h67z" />
    <glyph glyph-name="Cdotaccent" unicode="&#x10a;" horiz-adv-x="717" 
d="M43 330c-2 94 31.6689 174.667 101.002 242s151.333 100.333 246 99c60 0 115 -13.667 165 -41s89.333 -64.333 118 -111l-80 -59c-48.667 76 -116 114 -202 114c-68 0 -124.667 -23.167 -170 -69.5s-68 -104.5 -68 -174.5s22.667 -128.167 68 -174.5
s102 -69.5 170 -69.5c86 0 153.333 38 202 114l80 -59c-28.667 -47.333 -67.834 -84.5 -117.501 -111.5s-104.834 -40.5 -165.501 -40.5c-94.667 -1.33301 -176.667 31.667 -246 99s-103 148 -101 242zM319.002 812c0 20 7 36.667 21 50s31 20 51 20
s36.833 -6.66699 50.5 -20s20.5 -30 20.5 -50c0 -19.333 -7 -35.666 -21 -48.999s-30.667 -20 -50 -20c-20 0 -37 6.66699 -51 20s-21 29.666 -21 48.999z" />
    <glyph glyph-name="cdotaccent" unicode="&#x10b;" horiz-adv-x="552" 
d="M45 246c-1.33301 70 24 130.501 76 181.501s113.333 75.833 184 74.5c92 0 161 -38 207 -114l-74 -58c-34.667 50 -78.667 75 -132 75c-44 0 -80.667 -15.333 -110 -46s-44 -68.334 -44 -113.001c0 -45.333 14.667 -83.333 44 -114s66 -46 110 -46c52 0 96 24.667 132 74
l74 -57c-22 -36 -51 -64 -87 -84s-76 -30 -120 -30c-72.667 0 -134.167 25 -184.5 75s-75.5 110.667 -75.5 182zM231 674.001c0 19.333 7 35.833 21 49.5s31 20.5 51 20.5c19.333 0 36 -6.83301 50 -20.5s21 -30.167 21 -49.5s-7 -35.666 -21 -48.999s-30.667 -20 -50 -20
c-20 0 -37 6.66699 -51 20s-21 29.666 -21 48.999z" />
    <glyph glyph-name="Ccaron" unicode="&#x10c;" horiz-adv-x="717" 
d="M43 330c-2 94 31.6689 174.667 101.002 242s151.333 100.333 246 99c60 0 115 -13.667 165 -41s89.333 -64.333 118 -111l-80 -59c-48.667 76 -116 114 -202 114c-68 0 -124.667 -23.167 -170 -69.5s-68 -104.5 -68 -174.5s22.667 -128.167 68 -174.5
s102 -69.5 170 -69.5c86 0 153.333 38 202 114l80 -59c-28.667 -47.333 -67.834 -84.5 -117.501 -111.5s-104.834 -40.5 -165.501 -40.5c-94.667 -1.33301 -176.667 31.667 -246 99s-103 148 -101 242zM491.002 910h81l-148 -186h-67l-148 186h81l101 -94z" />
    <glyph glyph-name="ccaron" unicode="&#x10d;" horiz-adv-x="552" 
d="M45 246c-1.33301 70 24 130.501 76 181.501s113.333 75.833 184 74.5c92 0 161 -38 207 -114l-74 -58c-34.667 50 -78.667 75 -132 75c-44 0 -80.667 -15.333 -110 -46s-44 -68.334 -44 -113.001c0 -45.333 14.667 -83.333 44 -114s66 -46 110 -46c52 0 96 24.667 132 74
l74 -57c-22 -36 -51 -64 -87 -84s-76 -30 -120 -30c-72.667 0 -134.167 25 -184.5 75s-75.5 110.667 -75.5 182zM394 780.001h78l-135 -212h-67l-136 212h79l91 -109z" />
    <glyph glyph-name="Dcaron" unicode="&#x10e;" horiz-adv-x="692" 
d="M83 0v660h207c107.333 0 194 -30.333 260 -91s99 -140 99 -238c0 -96.667 -33.167 -176 -99.5 -238s-152.833 -93 -259.5 -93h-207zM189 95h100c76 0 136.833 21.833 182.5 65.5s68.5 100.5 68.5 170.5c0 70.667 -22.667 127.167 -68 169.5s-106.333 63.5 -183 63.5h-100
v-469zM382 910h81l-148 -186h-67l-148 186h81l101 -94z" />
    <glyph glyph-name="dcaron" unicode="&#x10f;" horiz-adv-x="769" 
d="M449 750h105.999v-750h-98v70c-38 -54 -95.333 -81 -172 -81c-68.667 0 -125.834 24.5 -171.501 73.5s-68.5 109.833 -68.5 182.5c-1.33301 72 21.334 133.167 68.001 183.5s104 74.833 172 73.5c70.667 0 125.334 -23.667 164.001 -71v319zM450.999 245
c0 50.667 -14.5 90.167 -43.5 118.5s-63.833 42.5 -104.5 42.5c-42.667 0 -78.5 -15 -107.5 -45s-43.5 -68.333 -43.5 -115s14.333 -85.167 43 -115.5s64.667 -45.5 108 -45.5c41.333 0 76.333 14 105 42s43 67.333 43 118zM648.999 542l9 208h111l-44 -208h-76z" />
    <glyph glyph-name="Dcroat" unicode="&#x110;" horiz-adv-x="692" 
d="M649 331c0 -96.667 -33.167 -176 -99.5 -238s-152.833 -93 -259.5 -93h-207v265h-89v90h89v305h207c107.333 0 194 -30.333 260 -91s99 -140 99 -238zM540 331c0 70.667 -22.667 127.167 -68 169.5s-106.333 63.5 -183 63.5h-100v-209h120v-90h-120v-170h100
c76 0 136.833 21.833 182.5 65.5s68.5 100.5 68.5 170.5z" />
    <glyph glyph-name="dslash" unicode="&#x111;" horiz-adv-x="635" 
d="M634 653l-0.000976562 -86h-80v-567h-98v70c-39.333 -54 -97.666 -81 -174.999 -81c-67.333 0 -123.666 23.333 -168.999 70s-68 105 -68 175c0 70.667 22.667 129.5 68 176.5s101.666 70.5 168.999 70.5c71.333 0 127.333 -24.667 168 -74v160h-212v86h212v97h105v-97
h80zM449.999 234c0 51.333 -14.666 90 -43.999 116s-64 39 -104 39c-42.667 0 -78.334 -14.5 -107.001 -43.5s-43 -66.167 -43 -111.5s14 -82.333 42 -111c28.667 -28.667 64.667 -43 108 -43c42.667 0 78 13.5 106 40.5s42 64.833 42 113.5z" />
    <glyph glyph-name="Emacron" unicode="&#x112;" horiz-adv-x="569" 
d="M83 0v660h434v-95h-328v-169h247v-92h-247v-209h340v-95h-446zM145 762v85h308v-85h-308z" />
    <glyph glyph-name="emacron" unicode="&#x113;" horiz-adv-x="570" 
d="M518 211h-366.001c6.66699 -40 24.5 -71.5 53.5 -94.5s64.5 -34.5 106.5 -34.5c52 0 99.667 19.333 143 58l50 -72c-55.333 -52.667 -120.666 -79 -195.999 -79c-74.667 0 -137.334 24.5 -188.001 73.5s-76 109.833 -76 182.5c-1.33301 70.667 23.334 131.5 74.001 182.5
s110.667 75.833 180 74.5c64.667 0 118.667 -21.5 162 -64.5s65 -96.5 65 -160.5c0 -19.333 -2.66699 -41.333 -8 -66zM153.999 293h267.001c-0.666992 36.667 -13 65.834 -37 87.501s-53.667 32.5 -89 32.5c-34.667 0 -64.834 -10.833 -90.501 -32.5
s-42.5 -50.834 -50.5 -87.501zM153 632v84h288v-84h-288z" />
    <glyph glyph-name="Ebreve" unicode="&#x114;" horiz-adv-x="569" 
d="M83 0v660h434v-95h-328v-169h247v-92h-247v-209h340v-95h-446zM137 890v20h84v-20c0 -26.667 7 -47.834 21 -63.501s32.667 -23.5 56 -23.5c24 0 43 7.83301 57 23.5s21 36.834 21 63.501v20h85v-20c0 -50 -15.333 -90.333 -46 -121c-30 -30.667 -69 -46 -117 -46
s-86.833 15.333 -116.5 46s-44.5 71 -44.5 121z" />
    <glyph glyph-name="ebreve" unicode="&#x115;" horiz-adv-x="570" 
d="M518 211h-366.001c6.66699 -40 24.5 -71.5 53.5 -94.5s64.5 -34.5 106.5 -34.5c52 0 99.667 19.333 143 58l50 -72c-55.333 -52.667 -120.666 -79 -195.999 -79c-74.667 0 -137.334 24.5 -188.001 73.5s-76 109.833 -76 182.5c-1.33301 70.667 23.334 131.5 74.001 182.5
s110.667 75.833 180 74.5c64.667 0 118.667 -21.5 162 -64.5s65 -96.5 65 -160.5c0 -19.333 -2.66699 -41.333 -8 -66zM153.999 293h267.001c-0.666992 36.667 -13 65.834 -37 87.501s-53.667 32.5 -89 32.5c-34.667 0 -64.834 -10.833 -90.501 -32.5
s-42.5 -50.834 -50.5 -87.501zM135 738v29h84v-28c0 -26.667 7 -47.834 21 -63.501s32.667 -23.5 56 -23.5c24 0 43 7.83301 57 23.5s21 36.834 21 63.501v28h85v-29c0 -49.333 -15.333 -89.333 -46 -120c-30 -30.667 -69 -46 -117 -46c-47.333 0 -86 15.333 -116 46
s-45 70.667 -45 120z" />
    <glyph glyph-name="Edotaccent" unicode="&#x116;" horiz-adv-x="569" 
d="M83 0v660h434v-95h-328v-169h247v-92h-247v-209h340v-95h-446zM227 812c0 20 7 36.667 21 50s31 20 51 20s36.833 -6.66699 50.5 -20s20.5 -30 20.5 -50c0 -19.333 -7 -35.666 -21 -48.999s-30.667 -20 -50 -20c-20 0 -37 6.66699 -51 20s-21 29.666 -21 48.999z" />
    <glyph glyph-name="edotaccent" unicode="&#x117;" horiz-adv-x="570" 
d="M518 211h-366.001c6.66699 -40 24.5 -71.5 53.5 -94.5s64.5 -34.5 106.5 -34.5c52 0 99.667 19.333 143 58l50 -72c-55.333 -52.667 -120.666 -79 -195.999 -79c-74.667 0 -137.334 24.5 -188.001 73.5s-76 109.833 -76 182.5c-1.33301 70.667 23.334 131.5 74.001 182.5
s110.667 75.833 180 74.5c64.667 0 118.667 -21.5 162 -64.5s65 -96.5 65 -160.5c0 -19.333 -2.66699 -41.333 -8 -66zM153.999 293h267.001c-0.666992 36.667 -13 65.834 -37 87.501s-53.667 32.5 -89 32.5c-34.667 0 -64.834 -10.833 -90.501 -32.5
s-42.5 -50.834 -50.5 -87.501zM225 674c0 19.333 7 35.833 21 49.5s31 20.5 51 20.5c19.333 0 36 -6.83301 50 -20.5s21 -30.167 21 -49.5s-7 -35.666 -21 -48.999s-30.667 -20 -50 -20c-20 0 -37 6.66699 -51 20s-21 29.666 -21 48.999z" />
    <glyph glyph-name="Eogonek" unicode="&#x118;" horiz-adv-x="569" 
d="M83 0v660h434v-95h-328v-169h247v-92h-247v-209h340v-95h-446zM337 -98c0 27.333 11.168 51.333 33.501 72s61.166 44 116.499 70l42 -44l-45 -29c-14.667 -10 -24 -16.5 -28 -19.5s-7.83301 -7.16699 -11.5 -12.5s-5.5 -11.333 -5.5 -18c0 -22 14 -33 42 -33
c8.66699 0 24.667 2 48 6v-73c-26.667 -8 -53 -12 -79 -12c-34.667 0 -62.167 8.5 -82.5 25.5s-30.5 39.5 -30.5 67.5z" />
    <glyph glyph-name="eogonek" unicode="&#x119;" horiz-adv-x="570" 
d="M518 211h-366.001c6.66699 -40 24.5 -71.5 53.5 -94.5s64.5 -34.5 106.5 -34.5c52 0 99.667 19.333 143 58l50 -72c-55.333 -52.667 -120.666 -79 -195.999 -79c-74.667 0 -137.334 24.5 -188.001 73.5s-76 109.833 -76 182.5c-1.33301 70.667 23.334 131.5 74.001 182.5
s110.667 75.833 180 74.5c64.667 0 118.667 -21.5 162 -64.5s65 -96.5 65 -160.5c0 -19.333 -2.66699 -41.333 -8 -66zM153.999 293h267.001c-0.666992 36.667 -13 65.834 -37 87.501s-53.667 32.5 -89 32.5c-34.667 0 -64.834 -10.833 -90.501 -32.5
s-42.5 -50.834 -50.5 -87.501zM283 -98c0 25.333 7.5 48.332 22.5 68.999s47.833 53 98.5 97h101l-88 -91c-21.333 -21.333 -32 -40 -32 -56c0 -22 14 -33 42 -33c8.66699 0 24.667 2 48 6v-73c-24.667 -8 -51 -12 -79 -12c-34 0 -61.333 8.33301 -82 25
s-31 39.334 -31 68.001z" />
    <glyph glyph-name="Ecaron" unicode="&#x11a;" horiz-adv-x="569" 
d="M83 0v660h434v-95h-328v-169h247v-92h-247v-209h340v-95h-446zM399 910h81l-148 -186h-67l-148 186h81l101 -94z" />
    <glyph glyph-name="ecaron" unicode="&#x11b;" horiz-adv-x="570" 
d="M518 211h-366.001c6.66699 -40 24.5 -71.5 53.5 -94.5s64.5 -34.5 106.5 -34.5c52 0 99.667 19.333 143 58l50 -72c-55.333 -52.667 -120.666 -79 -195.999 -79c-74.667 0 -137.334 24.5 -188.001 73.5s-76 109.833 -76 182.5c-1.33301 70.667 23.334 131.5 74.001 182.5
s110.667 75.833 180 74.5c64.667 0 118.667 -21.5 162 -64.5s65 -96.5 65 -160.5c0 -19.333 -2.66699 -41.333 -8 -66zM153.999 293h267.001c-0.666992 36.667 -13 65.834 -37 87.501s-53.667 32.5 -89 32.5c-34.667 0 -64.834 -10.833 -90.501 -32.5
s-42.5 -50.834 -50.5 -87.501zM388 780h78l-135 -212h-67l-136 212h79l91 -109z" />
    <glyph glyph-name="Gcircumflex" unicode="&#x11c;" horiz-adv-x="746" 
d="M43 330c-2 94 31.498 174.666 100.498 241.999s151.5 100.333 247.5 99c116 0 207 -46 273 -138l-77 -63c-49.333 69.333 -115 104 -197 104c-69.333 0 -126.166 -23 -170.499 -69s-66.5 -104 -66.5 -174c0 -70.667 22.833 -129.5 68.5 -176.5
s103.834 -70.5 174.501 -70.5c88 0 153.667 33.333 197 100v71h-203v94h309v-186c-30 -53.333 -72.333 -95.666 -127 -126.999s-115 -47 -181 -47c-96.667 -1.33301 -179.167 31.5 -247.5 98.5s-101.833 147.833 -100.5 242.5zM572.998 723.999h-81l-100 94l-101 -94h-81
l148 186h67z" />
    <glyph glyph-name="gcircumflex" unicode="&#x11d;" horiz-adv-x="634" 
d="M461 491l97.001 0.00195312v-440c0 -76.667 -22.167 -136.167 -66.5 -178.5s-104.166 -63.5 -179.499 -63.5c-90.667 0 -169.334 31 -236.001 93l58 73c58 -46.667 115.333 -70 172 -70c45.333 0 81.166 12 107.499 36s39.5 58.667 39.5 104v35
c-38.667 -46.667 -94 -70 -166 -70c-68.667 0 -125.667 23.167 -171 69.5s-68 105.166 -68 176.499s22.667 130.166 68 176.499s102.333 69.5 171 69.5c78 0 136 -27 174 -81v70zM454.001 257.002c0 48 -14 85.168 -42 111.501s-63.333 39.5 -106 39.5
s-78.334 -14 -107.001 -42s-43 -64.667 -43 -110c0 -46 14.333 -83.333 43 -112c29.333 -28 65 -42 107 -42c40.667 0 75.334 13.333 104.001 40c29.333 27.333 44 65.666 44 114.999zM481.001 568.003h-78l-90 109l-91 -109h-79l136 212h67z" />
    <glyph glyph-name="Gbreve" unicode="&#x11e;" horiz-adv-x="746" 
d="M43 330c-2 94 31.498 174.666 100.498 241.999s151.5 100.333 247.5 99c116 0 207 -46 273 -138l-77 -63c-49.333 69.333 -115 104 -197 104c-69.333 0 -126.166 -23 -170.499 -69s-66.5 -104 -66.5 -174c0 -70.667 22.833 -129.5 68.5 -176.5
s103.834 -70.5 174.501 -70.5c88 0 153.667 33.333 197 100v71h-203v94h309v-186c-30 -53.333 -72.333 -95.666 -127 -126.999s-115 -47 -181 -47c-96.667 -1.33301 -179.167 31.5 -247.5 98.5s-101.833 147.833 -100.5 242.5zM229.998 889.999v20h84v-20
c0 -26.667 7 -47.834 21 -63.501s32.667 -23.5 56 -23.5c24 0 43 7.83301 57 23.5s21 36.834 21 63.501v20h85v-20c0 -50 -15.333 -90.333 -46 -121c-30 -30.667 -69 -46 -117 -46s-86.833 15.333 -116.5 46s-44.5 71 -44.5 121z" />
    <glyph glyph-name="gbreve" unicode="&#x11f;" horiz-adv-x="634" 
d="M461 491l97.001 0.00195312v-440c0 -76.667 -22.167 -136.167 -66.5 -178.5s-104.166 -63.5 -179.499 -63.5c-90.667 0 -169.334 31 -236.001 93l58 73c58 -46.667 115.333 -70 172 -70c45.333 0 81.166 12 107.499 36s39.5 58.667 39.5 104v35
c-38.667 -46.667 -94 -70 -166 -70c-68.667 0 -125.667 23.167 -171 69.5s-68 105.166 -68 176.499s22.667 130.166 68 176.499s102.333 69.5 171 69.5c78 0 136 -27 174 -81v70zM454.001 257.002c0 48 -14 85.168 -42 111.501s-63.333 39.5 -106 39.5
s-78.334 -14 -107.001 -42s-43 -64.667 -43 -110c0 -46 14.333 -83.333 43 -112c29.333 -28 65 -42 107 -42c40.667 0 75.334 13.333 104.001 40c29.333 27.333 44 65.666 44 114.999zM150.001 738.003v29h84v-28c0 -26.667 7 -47.834 21 -63.501s32.667 -23.5 56 -23.5
c24 0 43 7.83301 57 23.5s21 36.834 21 63.501v28h85v-29c0 -49.333 -15.333 -89.333 -46 -120c-30 -30.667 -69 -46 -117 -46c-47.333 0 -86 15.333 -116 46s-45 70.667 -45 120z" />
    <glyph glyph-name="Gdotaccent" unicode="&#x120;" horiz-adv-x="746" 
d="M43 330c-2 94 31.498 174.666 100.498 241.999s151.5 100.333 247.5 99c116 0 207 -46 273 -138l-77 -63c-49.333 69.333 -115 104 -197 104c-69.333 0 -126.166 -23 -170.499 -69s-66.5 -104 -66.5 -174c0 -70.667 22.833 -129.5 68.5 -176.5
s103.834 -70.5 174.501 -70.5c88 0 153.667 33.333 197 100v71h-203v94h309v-186c-30 -53.333 -72.333 -95.666 -127 -126.999s-115 -47 -181 -47c-96.667 -1.33301 -179.167 31.5 -247.5 98.5s-101.833 147.833 -100.5 242.5zM319.998 811.999c0 20 7 36.667 21 50
s31 20 51 20s36.833 -6.66699 50.5 -20s20.5 -30 20.5 -50c0 -19.333 -7 -35.666 -21 -48.999s-30.667 -20 -50 -20c-20 0 -37 6.66699 -51 20s-21 29.666 -21 48.999z" />
    <glyph glyph-name="gdotaccent" unicode="&#x121;" horiz-adv-x="634" 
d="M461 491l97.001 0.00195312v-440c0 -76.667 -22.167 -136.167 -66.5 -178.5s-104.166 -63.5 -179.499 -63.5c-90.667 0 -169.334 31 -236.001 93l58 73c58 -46.667 115.333 -70 172 -70c45.333 0 81.166 12 107.499 36s39.5 58.667 39.5 104v35
c-38.667 -46.667 -94 -70 -166 -70c-68.667 0 -125.667 23.167 -171 69.5s-68 105.166 -68 176.499s22.667 130.166 68 176.499s102.333 69.5 171 69.5c78 0 136 -27 174 -81v70zM454.001 257.002c0 48 -14 85.168 -42 111.501s-63.333 39.5 -106 39.5
s-78.334 -14 -107.001 -42s-43 -64.667 -43 -110c0 -46 14.333 -83.333 43 -112c29.333 -28 65 -42 107 -42c40.667 0 75.334 13.333 104.001 40c29.333 27.333 44 65.666 44 114.999zM240.001 674.003c0 19.333 7 35.833 21 49.5s31 20.5 51 20.5
c19.333 0 36 -6.83301 50 -20.5s21 -30.167 21 -49.5s-7 -35.666 -21 -48.999s-30.667 -20 -50 -20c-20 0 -37 6.66699 -51 20s-21 29.666 -21 48.999z" />
    <glyph glyph-name="uni0122" unicode="&#x122;" horiz-adv-x="746" 
d="M43 330c-2 94 31.498 174.666 100.498 241.999s151.5 100.333 247.5 99c116 0 207 -46 273 -138l-77 -63c-49.333 69.333 -115 104 -197 104c-69.333 0 -126.166 -23 -170.499 -69s-66.5 -104 -66.5 -174c0 -70.667 22.833 -129.5 68.5 -176.5
s103.834 -70.5 174.501 -70.5c88 0 153.667 33.333 197 100v71h-203v94h309v-186c-30 -53.333 -72.333 -95.666 -127 -126.999s-115 -47 -181 -47c-96.667 -1.33301 -179.167 31.5 -247.5 98.5s-101.833 147.833 -100.5 242.5zM334.998 -220.001l7 172h100l-25 -172h-82z
" />
    <glyph glyph-name="uni0123" unicode="&#x123;" horiz-adv-x="634" 
d="M461 491l97.001 0.00195312v-440c0 -76.667 -22.167 -136.167 -66.5 -178.5s-104.166 -63.5 -179.499 -63.5c-90.667 0 -169.334 31 -236.001 93l58 73c58 -46.667 115.333 -70 172 -70c45.333 0 81.166 12 107.499 36s39.5 58.667 39.5 104v35
c-38.667 -46.667 -94 -70 -166 -70c-68.667 0 -125.667 23.167 -171 69.5s-68 105.166 -68 176.499s22.667 130.166 68 176.499s102.333 69.5 171 69.5c78 0 136 -27 174 -81v70zM454.001 257.002c0 48 -14 85.168 -42 111.501s-63.333 39.5 -106 39.5
s-78.334 -14 -107.001 -42s-43 -64.667 -43 -110c0 -46 14.333 -83.333 43 -112c29.333 -28 65 -42 107 -42c40.667 0 75.334 13.333 104.001 40c29.333 27.333 44 65.666 44 114.999zM259.001 568.003l34 212h78l-10 -212h-102z" />
    <glyph glyph-name="Hcircumflex" unicode="&#x124;" horiz-adv-x="711" 
d="M83 0v660h106v-263h332v263h106v-660h-106v302h-332v-302h-106zM536 724h-81l-100 94l-101 -94h-81l148 186h67z" />
    <glyph glyph-name="hcircumflex" unicode="&#x125;" horiz-adv-x="575" 
d="M505 307v-307h-105v292c0 34 -9.66699 61.5 -29 82.5s-45.333 31.5 -78 31.5s-59.5 -10.667 -80.5 -32s-31.5 -48.666 -31.5 -81.999v-292h-105v750h105v-308c34 40 81.333 60 142 60c55.333 0 99.5 -17.833 132.5 -53.5s49.5 -82.834 49.5 -141.501zM362 814h-81
l-100 94l-101 -94h-81l148 186h67z" />
    <glyph glyph-name="Hbar" unicode="&#x126;" horiz-adv-x="725" 
d="M90 0v448h-96v89h96v123h106v-123h332v123h106v-123h96v-89h-96v-448h-106v234h-332v-234h-106zM196 327h332v121h-332v-121z" />
    <glyph glyph-name="hbar" unicode="&#x127;" horiz-adv-x="581" 
d="M511 285v-285h-106v272c0 33.333 -9.66699 60.333 -29 81s-45 31 -77 31c-33.333 0 -60.5 -10.5 -81.5 -31.5s-31.5 -47.833 -31.5 -80.5v-272h-104v565h-81v90h81v95h104v-95h197v-90h-197v-144c34 40 81.333 60 142 60c56 0 100.5 -18 133.5 -54
s49.5 -83.333 49.5 -142z" />
    <glyph glyph-name="Itilde" unicode="&#x128;" horiz-adv-x="272" 
d="M83 0v660h106v-660h-106zM145 757l-31.999 18c-20 12 -34.667 18 -44 18c-18.667 0 -28 -12 -28 -36v-13h-84c-1.33301 16 -2 25.667 -2 29c0 34 9.5 62 28.5 84s43.167 33 72.5 33c24.667 0 48.667 -7.33301 72 -22l33 -20c22 -12 36.667 -18 44 -18
c18.667 0 28 11.667 28 35v15h84c1.33301 -16 2 -25.667 2 -29c0 -34 -9.5 -62 -28.5 -84s-42.833 -33 -71.5 -33c-22.667 0 -47.334 7.66699 -74.001 23z" />
    <glyph glyph-name="itilde" unicode="&#x129;" horiz-adv-x="257" 
d="M76 0v491h105v-491h-105zM130 616l-19 16.001c-16 13.333 -27.333 20 -34 20c-18 0 -27 -12.667 -27 -38v-14h-83c-1.33301 12 -2 21.333 -2 28c0 36 8.83301 65 26.5 87s41.167 33 70.5 33c24.667 0 47 -9 67 -27l19 -18c13.333 -12.667 24.666 -19 33.999 -19
c17.333 0 26 12.667 26 38v14h82c1.33301 -12 2 -21.667 2 -29c0 -34.667 -8.83301 -63.334 -26.5 -86.001s-40.5 -34 -68.5 -34c-21.333 0 -43.666 9.66699 -66.999 29z" />
    <glyph glyph-name="Imacron" unicode="&#x12a;" horiz-adv-x="272" 
d="M83 0v660h106v-660h-106zM-17 762v85h308v-85h-308z" />
    <glyph glyph-name="imacron" unicode="&#x12b;" horiz-adv-x="257" 
d="M76 0v491h105v-491h-105zM10 632v85h238v-85h-238z" />
    <glyph glyph-name="Ibreve" unicode="&#x12c;" horiz-adv-x="272" 
d="M83 0v660h106v-660h-106zM-25 890v20h84v-20c0 -26.667 7 -47.834 21 -63.501s32.667 -23.5 56 -23.5c24 0 43 7.83301 57 23.5s21 36.834 21 63.501v20h85v-20c0 -50 -15.333 -90.333 -46 -121c-30 -30.667 -69 -46 -117 -46s-86.833 15.333 -116.5 46
s-44.5 71 -44.5 121z" />
    <glyph glyph-name="ibreve" unicode="&#x12d;" horiz-adv-x="257" 
d="M76 0v491h105v-491h-105zM-33 738v29h84v-28c0 -26.667 7 -47.834 21 -63.501s32.667 -23.5 56 -23.5c24 0 43 7.83301 57 23.5s21 36.834 21 63.501v28h85v-29c0 -49.333 -15.333 -89.333 -46 -120c-30 -30.667 -69 -46 -117 -46c-47.333 0 -86 15.333 -116 46
s-45 70.667 -45 120z" />
    <glyph glyph-name="Iogonek" unicode="&#x12e;" horiz-adv-x="272" 
d="M83 0v660h106v-660h-106zM-3 -98c0 27.333 11.167 51.333 33.5 72s61.166 44 116.499 70l42 -44l-45 -29c-14.667 -10 -24 -16.5 -28 -19.5s-7.83301 -7.16699 -11.5 -12.5s-5.5 -11.333 -5.5 -18c0 -22 14 -33 42 -33c8.66699 0 24.667 2 48 6v-73
c-27.333 -8 -53.666 -12 -78.999 -12c-34.667 0 -62.167 8.5 -82.5 25.5s-30.5 39.5 -30.5 67.5z" />
    <glyph glyph-name="iogonek" unicode="&#x12f;" horiz-adv-x="257" 
d="M76 0v491h105v-491h-105zM57 674c0 19.333 7 35.833 21 49.5s31 20.5 51 20.5c19.333 0 36 -6.83301 50 -20.5s21 -30.167 21 -49.5s-7 -35.666 -21 -48.999s-30.667 -20 -50 -20c-20 0 -37 6.66699 -51 20s-21 29.666 -21 48.999zM-11 -98
c0 27.333 11.167 51.333 33.5 72s61.166 44 116.499 70l42 -44l-45 -29c-14.667 -10 -24 -16.5 -28 -19.5s-7.83301 -7.16699 -11.5 -12.5s-5.5 -11.333 -5.5 -18c0 -22 14 -33 42 -33c8.66699 0 24.667 2 48 6v-73c-27.333 -8 -53.666 -12 -78.999 -12
c-34.667 0 -62.167 8.5 -82.5 25.5s-30.5 39.5 -30.5 67.5z" />
    <glyph glyph-name="Idot" unicode="&#x130;" horiz-adv-x="272" 
d="M83 0v660h106v-660h-106zM65 812c0 20 7 36.667 21 50s31 20 51 20s36.833 -6.66699 50.5 -20s20.5 -30 20.5 -50c0 -19.333 -7 -35.666 -21 -48.999s-30.667 -20 -50 -20c-20 0 -37 6.66699 -51 20s-21 29.666 -21 48.999z" />
    <glyph glyph-name="dotlessi" unicode="&#x131;" horiz-adv-x="257" 
d="M76 0v491h105v-491h-105z" />
    <glyph glyph-name="IJ" unicode="&#x132;" horiz-adv-x="654" 
d="M83 0v660h106v-660h-106zM293 0l-0.00195312 91c33.333 -3.33301 56 -5 68 -5c35.333 0 61.333 6.66699 78 20s25 36.333 25 69v485h106v-496c0 -57.333 -16.167 -100.833 -48.5 -130.5s-78.166 -44.5 -137.499 -44.5c-27.333 0 -57.666 3.66699 -90.999 11z" />
    <glyph glyph-name="ij" unicode="&#x133;" horiz-adv-x="515" 
d="M76 0v491h105v-491h-105zM57 674c0 19.333 7 35.833 21 49.5s31 20.5 51 20.5c19.333 0 36 -6.83301 50 -20.5s21 -30.167 21 -49.5s-7 -35.666 -21 -48.999s-30.667 -20 -50 -20c-20 0 -37 6.66699 -51 20s-21 29.666 -21 48.999zM196 -182l-0.000976562 89.001
c16 -2 30.333 -3 43 -3c32 0 55.667 6.66699 71 20s23 35 23 65v502h105v-511c0 -56.667 -15.167 -99.334 -45.5 -128.001s-73.166 -43 -128.499 -43c-27.333 0 -50 3 -68 9zM313.999 674.001c0 19.333 7 35.833 21 49.5s31 20.5 51 20.5c19.333 0 36 -6.83301 50 -20.5
s21 -30.167 21 -49.5s-7 -35.666 -21 -48.999s-30.667 -20 -50 -20c-20 0 -37 6.66699 -51 20s-21 29.666 -21 48.999z" />
    <glyph glyph-name="Jcircumflex" unicode="&#x134;" horiz-adv-x="381" 
d="M21 0l-0.00195312 91c33.333 -3.33301 56 -5 68 -5c35.333 0 61.333 6.66699 78 20s25 36.333 25 69v485h106v-496c0 -57.333 -16.167 -100.833 -48.5 -130.5s-78.166 -44.5 -137.499 -44.5c-27.333 0 -57.666 3.66699 -90.999 11zM412.998 724h-81l-100 94l-101 -94h-81
l148 186h67z" />
    <glyph glyph-name="jcircumflex" unicode="&#x135;" horiz-adv-x="257" 
d="M-61 -182l-0.000976562 89.001c16 -2 30.333 -3 43 -3c32 0 55.667 6.66699 71 20s23 35 23 65v502h105v-511c0 -56.667 -15.167 -99.334 -45.5 -128.001s-73.166 -43 -128.499 -43c-27.333 0 -50 3 -68 9zM297.999 568.001h-78l-90 109l-91 -109h-79l136 212h67z" />
    <glyph glyph-name="uni0136" unicode="&#x136;" horiz-adv-x="651" 
d="M83 0v660h106v-660h-106zM325 351l304 -351h-131l-306 351l277 309h130zM255 -220l7 172h100l-25 -172h-82z" />
    <glyph glyph-name="uni0137" unicode="&#x137;" horiz-adv-x="533" 
d="M76 0v750h105v-750h-105zM308 275l215 -275h-126l-213 276l192 215h130zM212 -220l7 172h100l-25 -172h-82z" />
    <glyph glyph-name="Lacute" unicode="&#x139;" horiz-adv-x="515" 
d="M83 0v660h106v-565h302v-95h-408zM95 724l79 186h128v-19l-129 -167h-78z" />
    <glyph glyph-name="lacute" unicode="&#x13a;" horiz-adv-x="257" 
d="M76 0v750h105v-750h-105zM88 814l79 186h128v-19l-129 -167h-78z" />
    <glyph glyph-name="uni013B" unicode="&#x13b;" horiz-adv-x="515" 
d="M83 0v660h106v-565h302v-95h-408zM224 -220l7 172h100l-25 -172h-82z" />
    <glyph glyph-name="uni013C" unicode="&#x13c;" horiz-adv-x="257" 
d="M76 0v750h105v-750h-105zM72 -220l7 172h100l-25 -172h-82z" />
    <glyph glyph-name="Lcaron" unicode="&#x13d;" horiz-adv-x="515" 
d="M83 0v660h106v-565h302v-95h-408zM362 512l9 208h111l-44 -208h-76z" />
    <glyph glyph-name="lcaron" unicode="&#x13e;" horiz-adv-x="395" 
d="M76 0v750h105v-750h-105zM276 542l9 208h111l-44 -208h-76z" />
    <glyph glyph-name="Ldot" unicode="&#x13f;" horiz-adv-x="515" 
d="M83 0v660h106v-565h302v-95h-408zM321 373c0 22 7.66699 40.501 23 55.501s34 22.5 56 22.5s40.333 -7.33301 55 -22s22 -33.334 22 -56.001c0 -22 -7.33301 -40.333 -22 -55s-33 -22 -55 -22s-40.667 7.33301 -56 22s-23 33 -23 55z" />
    <glyph glyph-name="ldot" unicode="&#x140;" horiz-adv-x="351" 
d="M76 0v750h105v-750h-105zM228 317c0 22 7.66699 40.501 23 55.501s34 22.5 56 22.5s40.333 -7.33301 55 -22s22 -33.334 22 -56.001c0 -22 -7.33301 -40.333 -22 -55s-33 -22 -55 -22s-40.667 7.33301 -56 22s-23 33 -23 55z" />
    <glyph glyph-name="Lslash" unicode="&#x141;" horiz-adv-x="515" 
d="M189 95h302v-95h-408v230l-75 -34v98l75 34v332h106v-291l210 96v-99l-210 -96v-175z" />
    <glyph glyph-name="lslash" unicode="&#x142;" horiz-adv-x="350" 
d="M306 458v-99l-84 -38v-321h-105v283l-78 -37v99l78 36v369h105v-331z" />
    <glyph glyph-name="Nacute" unicode="&#x143;" horiz-adv-x="711" 
d="M521 660h106v-671h-36l-402 458v-447h-106v671h37l401 -456v445zM314 724l79 186h128v-19l-129 -167h-78z" />
    <glyph glyph-name="nacute" unicode="&#x144;" horiz-adv-x="575" 
d="M505 307v-307.002h-105v293c0 34 -9.83301 61.5 -29.5 82.5s-45.5 31.5 -77.5 31.5c-32.667 0 -59.5 -10.667 -80.5 -32s-31.5 -48.666 -31.5 -81.999v-293h-105v491h98v-48c37.333 39.333 86.333 59 147 59c56.667 0 101.5 -17.667 134.5 -53
s49.5 -82.666 49.5 -141.999zM245 567.998l79 212h128v-19l-129 -193h-78z" />
    <glyph glyph-name="uni0145" unicode="&#x145;" horiz-adv-x="711" 
d="M521 660h106v-671h-36l-402 458v-447h-106v671h37l401 -456v445zM298 -220l7 172h100l-25 -172h-82z" />
    <glyph glyph-name="uni0146" unicode="&#x146;" horiz-adv-x="575" 
d="M505 307v-307.002h-105v293c0 34 -9.83301 61.5 -29.5 82.5s-45.5 31.5 -77.5 31.5c-32.667 0 -59.5 -10.667 -80.5 -32s-31.5 -48.666 -31.5 -81.999v-293h-105v491h98v-48c37.333 39.333 86.333 59 147 59c56.667 0 101.5 -17.667 134.5 -53
s49.5 -82.666 49.5 -141.999zM234 -220.002l7 172h100l-25 -172h-82z" />
    <glyph glyph-name="Ncaron" unicode="&#x147;" horiz-adv-x="711" 
d="M521 660h106v-671h-36l-402 458v-447h-106v671h37l401 -456v445zM455 910h81l-148 -186h-67l-148 186h81l101 -94z" />
    <glyph glyph-name="ncaron" unicode="&#x148;" horiz-adv-x="575" 
d="M505 307v-307.002h-105v293c0 34 -9.83301 61.5 -29.5 82.5s-45.5 31.5 -77.5 31.5c-32.667 0 -59.5 -10.667 -80.5 -32s-31.5 -48.666 -31.5 -81.999v-293h-105v491h98v-48c37.333 39.333 86.333 59 147 59c56.667 0 101.5 -17.667 134.5 -53
s49.5 -82.666 49.5 -141.999zM374 779.998h78l-135 -212h-67l-136 212h79l91 -109z" />
    <glyph glyph-name="Eng" unicode="&#x14a;" horiz-adv-x="711" 
d="M521 660l106.001 0.000976562v-680c0 -56.667 -15.333 -99.334 -46 -128.001s-73.667 -43 -129 -43c-26.667 0 -49 3 -67 9v89c16 -2 30.333 -3 43 -3c31.333 0 54.666 6.66699 69.999 20s23 35 23 65v30l-332 412v-431h-106v671h37l401 -496v485z" />
    <glyph glyph-name="eng" unicode="&#x14b;" horiz-adv-x="575" 
d="M505 307v-327.001c0 -56.667 -15.333 -99.334 -46 -128.001s-73.667 -43 -129 -43c-26.667 0 -49.334 3 -68.001 9v89c16 -2 30 -3 42 -3c32.667 0 56.834 6.5 72.501 19.5s23.5 34.833 23.5 65.5v303c0 34 -9.66699 61.5 -29 82.5s-45.333 31.5 -78 31.5
s-59.5 -10.667 -80.5 -32s-31.5 -48.666 -31.5 -81.999v-292h-105v491h98v-48c37.333 39.333 86.333 59 147 59c56.667 0 101.5 -17.667 134.5 -53s49.5 -82.666 49.5 -141.999z" />
    <glyph glyph-name="Omacron" unicode="&#x14c;" horiz-adv-x="780" 
d="M43 330c-1.33301 94 32.332 174.667 100.999 242s150.334 100.333 245.001 99c94 1.33301 175.833 -31.667 245.5 -99s103.5 -148 101.5 -242c2 -94 -31.833 -174.667 -101.5 -242s-151.5 -100.333 -245.5 -99c-94.667 -1.33301 -176.5 31.667 -245.5 99
s-102.5 148 -100.5 242zM626.998 331c0 69.333 -22.668 127.167 -68.001 173.5s-101.666 69.5 -168.999 69.5c-68 0 -124.5 -23 -169.5 -69s-67.5 -104 -67.5 -174c0 -70.667 22.333 -129.167 67 -175.5s101.334 -69.5 170.001 -69.5c67.333 0 123.666 23.333 168.999 70
s68 105 68 175zM235.997 762.001v85h308v-85h-308z" />
    <glyph glyph-name="omacron" unicode="&#x14d;" horiz-adv-x="609" 
d="M45 246c-1.33301 70 23.834 130.498 75.501 181.498s112.834 75.833 183.501 74.5c71.333 1.33301 133 -23.667 185 -75s77.333 -111.666 76 -180.999c1.33301 -70 -24 -130.667 -76 -182s-113.667 -76.333 -185 -75c-70.667 -1.33301 -131.834 23.834 -183.501 75.501
s-76.834 112.167 -75.501 181.5zM457 244.998c0 45.333 -14.667 83.498 -44 114.498s-65.333 46.5 -108 46.5c-43.333 0 -79.666 -15.5 -108.999 -46.5s-44 -69.167 -44 -114.5s14.5 -83.166 43.5 -113.499s65.167 -45.5 108.5 -45.5s79.666 15.333 108.999 46
s44 68.334 44 113.001zM161 631.996v84h288v-84h-288z" />
    <glyph glyph-name="Obreve" unicode="&#x14e;" horiz-adv-x="780" 
d="M43 330c-1.33301 94 32.332 174.667 100.999 242s150.334 100.333 245.001 99c94 1.33301 175.833 -31.667 245.5 -99s103.5 -148 101.5 -242c2 -94 -31.833 -174.667 -101.5 -242s-151.5 -100.333 -245.5 -99c-94.667 -1.33301 -176.5 31.667 -245.5 99
s-102.5 148 -100.5 242zM626.998 331c0 69.333 -22.668 127.167 -68.001 173.5s-101.666 69.5 -168.999 69.5c-68 0 -124.5 -23 -169.5 -69s-67.5 -104 -67.5 -174c0 -70.667 22.333 -129.167 67 -175.5s101.334 -69.5 170.001 -69.5c67.333 0 123.666 23.333 168.999 70
s68 105 68 175zM227.997 890.001v20h84v-20c0 -26.667 7 -47.834 21 -63.501s32.667 -23.5 56 -23.5c24 0 43 7.83301 57 23.5s21 36.834 21 63.501v20h85v-20c0 -50 -15.333 -90.333 -46 -121c-30 -30.667 -69 -46 -117 -46s-86.833 15.333 -116.5 46s-44.5 71 -44.5 121z
" />
    <glyph glyph-name="obreve" unicode="&#x14f;" horiz-adv-x="609" 
d="M45 246c-1.33301 70 23.834 130.498 75.501 181.498s112.834 75.833 183.501 74.5c71.333 1.33301 133 -23.667 185 -75s77.333 -111.666 76 -180.999c1.33301 -70 -24 -130.667 -76 -182s-113.667 -76.333 -185 -75c-70.667 -1.33301 -131.834 23.834 -183.501 75.501
s-76.834 112.167 -75.501 181.5zM457 244.998c0 45.333 -14.667 83.498 -44 114.498s-65.333 46.5 -108 46.5c-43.333 0 -79.666 -15.5 -108.999 -46.5s-44 -69.167 -44 -114.5s14.5 -83.166 43.5 -113.499s65.167 -45.5 108.5 -45.5s79.666 15.333 108.999 46
s44 68.334 44 113.001zM143 737.996v29h84v-28c0 -26.667 7 -47.834 21 -63.501s32.667 -23.5 56 -23.5c24 0 43 7.83301 57 23.5s21 36.834 21 63.501v28h85v-29c0 -49.333 -15.333 -89.333 -46 -120c-30 -30.667 -69 -46 -117 -46c-47.333 0 -86 15.333 -116 46
s-45 70.667 -45 120z" />
    <glyph glyph-name="Ohungarumlaut" unicode="&#x150;" horiz-adv-x="780" 
d="M43 330c-1.33301 94 32.332 174.667 100.999 242s150.334 100.333 245.001 99c94 1.33301 175.833 -31.667 245.5 -99s103.5 -148 101.5 -242c2 -94 -31.833 -174.667 -101.5 -242s-151.5 -100.333 -245.5 -99c-94.667 -1.33301 -176.5 31.667 -245.5 99
s-102.5 148 -100.5 242zM626.998 331c0 69.333 -22.668 127.167 -68.001 173.5s-101.666 69.5 -168.999 69.5c-68 0 -124.5 -23 -169.5 -69s-67.5 -104 -67.5 -174c0 -70.667 22.333 -129.167 67 -175.5s101.334 -69.5 170.001 -69.5c67.333 0 123.666 23.333 168.999 70
s68 105 68 175zM227.997 724.001l79 186h111v-19l-118 -167h-72zM455.997 724.001l79 186h111v-19l-118 -167h-72z" />
    <glyph glyph-name="ohungarumlaut" unicode="&#x151;" horiz-adv-x="609" 
d="M45 246c-1.33301 70 23.834 130.498 75.501 181.498s112.834 75.833 183.501 74.5c71.333 1.33301 133 -23.667 185 -75s77.333 -111.666 76 -180.999c1.33301 -70 -24 -130.667 -76 -182s-113.667 -76.333 -185 -75c-70.667 -1.33301 -131.834 23.834 -183.501 75.501
s-76.834 112.167 -75.501 181.5zM457 244.998c0 45.333 -14.667 83.498 -44 114.498s-65.333 46.5 -108 46.5c-43.333 0 -79.666 -15.5 -108.999 -46.5s-44 -69.167 -44 -114.5s14.5 -83.166 43.5 -113.499s65.167 -45.5 108.5 -45.5s79.666 15.333 108.999 46
s44 68.334 44 113.001zM160 567.996l79 212h111v-19l-118 -193h-72zM368 567.996l79 212h111v-19l-118 -193h-72z" />
    <glyph glyph-name="OE" unicode="&#x152;" horiz-adv-x="1113" 
d="M733 95h339v-95h-445v96c-58 -71.333 -137.667 -107 -239 -107c-95.333 -1.33301 -177.166 31.5 -245.499 98.5s-101.5 147.833 -99.5 242.5c-2 94 31.167 174.667 99.5 242s150.5 100.333 246.5 99c49.333 0 94.666 -9.33301 135.999 -28s75.333 -44.667 102 -78v95h433
v-95h-327v-169h246v-92h-246v-209zM627 330c0 69.333 -22.833 127.333 -68.5 174s-102.167 70 -169.5 70s-123.5 -23 -168.5 -69s-67.5 -104.333 -67.5 -175s22.5 -129 67.5 -175s101.167 -69 168.5 -69c68 0 124.667 23.167 170 69.5s68 104.5 68 174.5z" />
    <glyph glyph-name="oe" unicode="&#x153;" horiz-adv-x="962" 
d="M910 210l-360.001 -0.00292969c6.66699 -40 23.834 -71.333 51.501 -94s62.167 -34 103.5 -34c51.333 0 98 19 140 57l52 -71c-54.667 -52.667 -119.667 -79 -195 -79c-42 0 -81 9.33301 -117 28s-65 44.334 -87 77.001c-46 -70 -111.667 -105 -197 -105
c-70 -1.33301 -130.5 23.5 -181.5 74.5s-75.833 111.5 -74.5 181.5c-1.33301 70 23.667 130.667 75 182s112 76.333 182 75c42 0 80 -9.33301 114 -28s61.333 -44.667 82 -78c22 32.667 50.167 58.334 84.5 77.001s71.5 28 111.5 28c63.333 0 116.5 -21.667 159.5 -65
s64.5 -96.666 64.5 -159.999c0 -19.333 -2.66699 -41.333 -8 -66zM551.999 291.997h261.001c-0.666992 36.667 -12.834 65.834 -36.501 87.501s-53.167 32.5 -88.5 32.5c-34 0 -63.333 -10.833 -88 -32.5s-40.667 -50.834 -48 -87.501zM448 244.997
c0 45.333 -13.667 83.332 -41 113.999c-26.667 30.667 -61.334 46 -104.001 46c-43.333 0 -79.333 -15.333 -108 -46s-43 -68.667 -43 -114s14.333 -83.166 43 -113.499s64.334 -45.5 107.001 -45.5s77.667 15 105 45c27.333 30.667 41 68.667 41 114z" />
    <glyph glyph-name="Racute" unicode="&#x154;" horiz-adv-x="631" 
d="M619 0h-121l-188 255h-121v-255h-106v660h241c66.667 0 120.667 -18.833 162 -56.5s62 -86.167 62 -145.5c0 -43.333 -11.167 -81.333 -33.5 -114s-53.5 -56.667 -93.5 -72zM189 566v-217.001h133c36 0 64.5 9.83301 85.5 29.5s31.5 45.834 31.5 78.501
s-10.5 59 -31.5 79s-49.5 30 -85.5 30h-133zM222 723.999l79 186h128v-19l-129 -167h-78z" />
    <glyph glyph-name="racute" unicode="&#x155;" horiz-adv-x="375" 
d="M357 491l0.000976562 -93h-32c-42.667 0 -77.334 -12 -104.001 -36s-40 -57.333 -40 -100v-262h-105v491h98v-64c36.667 46 84.334 69 143.001 69c13.333 0 26.666 -1.66699 39.999 -5zM144.001 568l79 212h128v-19l-129 -193h-78z" />
    <glyph glyph-name="uni0156" unicode="&#x156;" horiz-adv-x="631" 
d="M619 0h-121l-188 255h-121v-255h-106v660h241c66.667 0 120.667 -18.833 162 -56.5s62 -86.167 62 -145.5c0 -43.333 -11.167 -81.333 -33.5 -114s-53.5 -56.667 -93.5 -72zM189 566v-217.001h133c36 0 64.5 9.83301 85.5 29.5s31.5 45.834 31.5 78.501
s-10.5 59 -31.5 79s-49.5 30 -85.5 30h-133zM262 -220.001l7 172h100l-25 -172h-82z" />
    <glyph glyph-name="uni0157" unicode="&#x157;" horiz-adv-x="375" 
d="M357 491l0.000976562 -93h-32c-42.667 0 -77.334 -12 -104.001 -36s-40 -57.333 -40 -100v-262h-105v491h98v-64c36.667 46 84.334 69 143.001 69c13.333 0 26.666 -1.66699 39.999 -5zM71.001 -220l7 172h100l-25 -172h-82z" />
    <glyph glyph-name="Rcaron" unicode="&#x158;" horiz-adv-x="631" 
d="M619 0h-121l-188 255h-121v-255h-106v660h241c66.667 0 120.667 -18.833 162 -56.5s62 -86.167 62 -145.5c0 -43.333 -11.167 -81.333 -33.5 -114s-53.5 -56.667 -93.5 -72zM189 566v-217.001h133c36 0 64.5 9.83301 85.5 29.5s31.5 45.834 31.5 78.501
s-10.5 59 -31.5 79s-49.5 30 -85.5 30h-133zM363 909.999h81l-148 -186h-67l-148 186h81l101 -94z" />
    <glyph glyph-name="rcaron" unicode="&#x159;" horiz-adv-x="375" 
d="M357 491l0.000976562 -93h-32c-42.667 0 -77.334 -12 -104.001 -36s-40 -57.333 -40 -100v-262h-105v491h98v-64c36.667 46 84.334 69 143.001 69c13.333 0 26.666 -1.66699 39.999 -5zM273.001 780h78l-135 -212h-67l-136 212h79l91 -109z" />
    <glyph glyph-name="Sacute" unicode="&#x15a;" horiz-adv-x="559" 
d="M36 132l74.998 57.002c48 -70 105.667 -105 173 -105c34 0 61.5 8.33301 82.5 25s31.5 39 31.5 67c0 22.667 -7 40.5 -21 53.5s-39.333 28.167 -76 45.5l-73 34c-51.333 23.333 -89.833 49.166 -115.5 77.499s-38.5 63.5 -38.5 105.5c0 52.667 20 95.667 60 129
s89.333 50 148 50c46 0 87.833 -10.667 125.5 -32s66.834 -50 87.501 -86l-74 -57c-36 53.333 -82.333 80 -139 80c-29.333 0 -53.333 -7 -72 -21s-28 -33.667 -28 -59c0.666992 -12 2.16699 -21.833 4.5 -29.5s8.5 -15.667 18.5 -24s17 -13.5 21 -15.5l39 -20
c4 -2 7 -3.66699 9 -5l74 -34c55.333 -25.333 95.5 -52.333 120.5 -81s37.5 -64.334 37.5 -107.001c0 -56.667 -20.833 -102.667 -62.5 -138s-94.5 -53 -158.5 -53c-53.333 0 -101.666 12.667 -144.999 38s-78 60.333 -104 105zM240.998 724.002l79 186h128v-19l-129 -167
h-78z" />
    <glyph glyph-name="sacute" unicode="&#x15b;" horiz-adv-x="455" 
d="M30 84l59.999 66c44.667 -46.667 90.667 -70 138 -70c23.333 0 42.333 4.83301 57 14.5s22 23.167 22 40.5c0 13.333 -5 24.166 -15 32.499s-28 17.833 -54 28.5l-50 21c-44.667 18.667 -77.167 38.834 -97.5 60.501s-30.5 49.167 -30.5 82.5
c0 43.333 16.167 77.833 48.5 103.5s73.833 38.5 124.5 38.5c70.667 0 127.334 -25.333 170.001 -76l-57 -65c-32 33.333 -70.333 50 -115 50s-67 -15.667 -67 -47c0 -12 4.66699 -22.167 14 -30.5s26.333 -17.5 51 -27.5l47 -19c47.333 -20 81.5 -41.167 102.5 -63.5
s31.5 -50.5 31.5 -84.5c0 -47.333 -17.333 -84.333 -52 -111c-34.667 -26 -78 -39 -130 -39c-83.333 0 -149.333 31.667 -198 95zM192.999 568l79 212h128v-19l-129 -193h-78z" />
    <glyph glyph-name="Scircumflex" unicode="&#x15c;" horiz-adv-x="559" 
d="M36 132l74.998 57.002c48 -70 105.667 -105 173 -105c34 0 61.5 8.33301 82.5 25s31.5 39 31.5 67c0 22.667 -7 40.5 -21 53.5s-39.333 28.167 -76 45.5l-73 34c-51.333 23.333 -89.833 49.166 -115.5 77.499s-38.5 63.5 -38.5 105.5c0 52.667 20 95.667 60 129
s89.333 50 148 50c46 0 87.833 -10.667 125.5 -32s66.834 -50 87.501 -86l-74 -57c-36 53.333 -82.333 80 -139 80c-29.333 0 -53.333 -7 -72 -21s-28 -33.667 -28 -59c0.666992 -12 2.16699 -21.833 4.5 -29.5s8.5 -15.667 18.5 -24s17 -13.5 21 -15.5l39 -20
c4 -2 7 -3.66699 9 -5l74 -34c55.333 -25.333 95.5 -52.333 120.5 -81s37.5 -64.334 37.5 -107.001c0 -56.667 -20.833 -102.667 -62.5 -138s-94.5 -53 -158.5 -53c-53.333 0 -101.666 12.667 -144.999 38s-78 60.333 -104 105zM462.998 724.002h-81l-100 94l-101 -94h-81
l148 186h67z" />
    <glyph glyph-name="scircumflex" unicode="&#x15d;" horiz-adv-x="455" 
d="M30 84l59.999 66c44.667 -46.667 90.667 -70 138 -70c23.333 0 42.333 4.83301 57 14.5s22 23.167 22 40.5c0 13.333 -5 24.166 -15 32.499s-28 17.833 -54 28.5l-50 21c-44.667 18.667 -77.167 38.834 -97.5 60.501s-30.5 49.167 -30.5 82.5
c0 43.333 16.167 77.833 48.5 103.5s73.833 38.5 124.5 38.5c70.667 0 127.334 -25.333 170.001 -76l-57 -65c-32 33.333 -70.333 50 -115 50s-67 -15.667 -67 -47c0 -12 4.66699 -22.167 14 -30.5s26.333 -17.5 51 -27.5l47 -19c47.333 -20 81.5 -41.167 102.5 -63.5
s31.5 -50.5 31.5 -84.5c0 -47.333 -17.333 -84.333 -52 -111c-34.667 -26 -78 -39 -130 -39c-83.333 0 -149.333 31.667 -198 95zM399.999 568h-78l-90 109l-91 -109h-79l136 212h67z" />
    <glyph glyph-name="Scedilla" unicode="&#x15e;" horiz-adv-x="559" 
d="M36 132l74.998 57.002c48 -70 105.667 -105 173 -105c34 0 61.5 8.33301 82.5 25s31.5 39 31.5 67c0 22.667 -7 40.5 -21 53.5s-39.333 28.167 -76 45.5l-73 34c-51.333 23.333 -89.833 49.166 -115.5 77.499s-38.5 63.5 -38.5 105.5c0 52.667 20 95.667 60 129
s89.333 50 148 50c46 0 87.833 -10.667 125.5 -32s66.834 -50 87.501 -86l-74 -57c-36 53.333 -82.333 80 -139 80c-29.333 0 -53.333 -7 -72 -21s-28 -33.667 -28 -59c0.666992 -12 2.16699 -21.833 4.5 -29.5s8.5 -15.667 18.5 -24s17 -13.5 21 -15.5l39 -20
c4 -2 7 -3.66699 9 -5l74 -34c55.333 -25.333 95.5 -52.333 120.5 -81s37.5 -64.334 37.5 -107.001c0 -56.667 -20.833 -102.667 -62.5 -138s-94.5 -53 -158.5 -53c-53.333 0 -101.666 12.667 -144.999 38s-78 60.333 -104 105zM153.998 -181.998v72.001c24 -2 43 -3 57 -3
c22 0 39.333 5.33301 52 16s19 25.667 19 45c0 21.333 -8 43.333 -24 66l43 21c44.667 -22.667 67 -58 67 -106c0 -34.667 -13 -63.334 -39 -86.001s-60.667 -34 -104 -34c-22 0 -45.667 3 -71 9z" />
    <glyph glyph-name="scedilla" unicode="&#x15f;" horiz-adv-x="455" 
d="M30 84l59.999 66c44.667 -46.667 90.667 -70 138 -70c23.333 0 42.333 4.83301 57 14.5s22 23.167 22 40.5c0 13.333 -5 24.166 -15 32.499s-28 17.833 -54 28.5l-50 21c-44.667 18.667 -77.167 38.834 -97.5 60.501s-30.5 49.167 -30.5 82.5
c0 43.333 16.167 77.833 48.5 103.5s73.833 38.5 124.5 38.5c70.667 0 127.334 -25.333 170.001 -76l-57 -65c-32 33.333 -70.333 50 -115 50s-67 -15.667 -67 -47c0 -12 4.66699 -22.167 14 -30.5s26.333 -17.5 51 -27.5l47 -19c47.333 -20 81.5 -41.167 102.5 -63.5
s31.5 -50.5 31.5 -84.5c0 -47.333 -17.333 -84.333 -52 -111c-34.667 -26 -78 -39 -130 -39c-83.333 0 -149.333 31.667 -198 95zM105.999 -182v72.001c24 -2 43 -3 57 -3c22 0 39.333 5.33301 52 16s19 25.667 19 45c0 21.333 -8 43.333 -24 66l43 21
c44.667 -22.667 67 -58 67 -106c0 -34.667 -13 -63.334 -39 -86.001s-60.667 -34 -104 -34c-22 0 -45.667 3 -71 9z" />
    <glyph glyph-name="Scaron" unicode="&#x160;" horiz-adv-x="559" 
d="M36 132l74.998 57.002c48 -70 105.667 -105 173 -105c34 0 61.5 8.33301 82.5 25s31.5 39 31.5 67c0 22.667 -7 40.5 -21 53.5s-39.333 28.167 -76 45.5l-73 34c-51.333 23.333 -89.833 49.166 -115.5 77.499s-38.5 63.5 -38.5 105.5c0 52.667 20 95.667 60 129
s89.333 50 148 50c46 0 87.833 -10.667 125.5 -32s66.834 -50 87.501 -86l-74 -57c-36 53.333 -82.333 80 -139 80c-29.333 0 -53.333 -7 -72 -21s-28 -33.667 -28 -59c0.666992 -12 2.16699 -21.833 4.5 -29.5s8.5 -15.667 18.5 -24s17 -13.5 21 -15.5l39 -20
c4 -2 7 -3.66699 9 -5l74 -34c55.333 -25.333 95.5 -52.333 120.5 -81s37.5 -64.334 37.5 -107.001c0 -56.667 -20.833 -102.667 -62.5 -138s-94.5 -53 -158.5 -53c-53.333 0 -101.666 12.667 -144.999 38s-78 60.333 -104 105zM381.998 910.002h81l-148 -186h-67l-148 186
h81l101 -94z" />
    <glyph glyph-name="scaron" unicode="&#x161;" horiz-adv-x="455" 
d="M30 84l59.999 66c44.667 -46.667 90.667 -70 138 -70c23.333 0 42.333 4.83301 57 14.5s22 23.167 22 40.5c0 13.333 -5 24.166 -15 32.499s-28 17.833 -54 28.5l-50 21c-44.667 18.667 -77.167 38.834 -97.5 60.501s-30.5 49.167 -30.5 82.5
c0 43.333 16.167 77.833 48.5 103.5s73.833 38.5 124.5 38.5c70.667 0 127.334 -25.333 170.001 -76l-57 -65c-32 33.333 -70.333 50 -115 50s-67 -15.667 -67 -47c0 -12 4.66699 -22.167 14 -30.5s26.333 -17.5 51 -27.5l47 -19c47.333 -20 81.5 -41.167 102.5 -63.5
s31.5 -50.5 31.5 -84.5c0 -47.333 -17.333 -84.333 -52 -111c-34.667 -26 -78 -39 -130 -39c-83.333 0 -149.333 31.667 -198 95zM321.999 780h78l-135 -212h-67l-136 212h79l91 -109z" />
    <glyph glyph-name="uni0162" unicode="&#x162;" horiz-adv-x="583" 
d="M238 0v565h-222v95h551v-95h-223v-565h-106zM157 -182l0.000976562 72.001c24 -2 43 -3 57 -3c22 0 39.333 5.33301 52 16s19 25.667 19 45c0 21.333 -8 43.333 -24 66l43 21c44.667 -22.667 67 -58 67 -106c0 -34.667 -13 -63.334 -39 -86.001s-60.667 -34 -104 -34
c-22.667 0 -46.334 3 -71.001 9z" />
    <glyph glyph-name="uni0163" unicode="&#x163;" horiz-adv-x="398" 
d="M368 89v-89.001c-34.667 -7.33301 -63.667 -11 -87 -11c-57.333 0 -101.833 14.333 -133.5 43s-47.5 71.334 -47.5 128.001v240h-80v91h80v129h106v-129h146v-91h-146v-231c0 -30.667 7.83301 -52.5 23.5 -65.5s40.167 -19.5 73.5 -19.5c11.333 0 33 1.66699 65 5z
M91 -182.001l0.000976562 72.001c24 -2 43 -3 57 -3c22 0 39.333 5.33301 52 16s19 25.667 19 45c0 21.333 -8 43.333 -24 66l43 21c44.667 -22.667 67 -58 67 -106c0 -34.667 -13 -63.334 -39 -86.001s-60.667 -34 -104 -34c-22.667 0 -46.334 3 -71.001 9z" />
    <glyph glyph-name="Tcaron" unicode="&#x164;" horiz-adv-x="583" 
d="M238 0v565h-222v95h551v-95h-223v-565h-106zM392 910h81l-148 -186h-67l-148 186h81l101 -94z" />
    <glyph glyph-name="tcaron" unicode="&#x165;" horiz-adv-x="398" 
d="M368 89v-89.001c-34.667 -7.33301 -63.667 -11 -87 -11c-57.333 0 -101.833 14.333 -133.5 43s-47.5 71.334 -47.5 128.001v240h-80v91h80v129h106v-129h146v-91h-146v-231c0 -30.667 7.83301 -52.5 23.5 -65.5s40.167 -19.5 73.5 -19.5c11.333 0 33 1.66699 65 5z
M296 541.999l9 208h111l-44 -208h-76z" />
    <glyph glyph-name="Tbar" unicode="&#x166;" horiz-adv-x="583" 
d="M238 0v244h-185v89h185v232h-222v95h551v-95h-223v-232h186v-89h-186v-244h-106z" />
    <glyph glyph-name="tbar" unicode="&#x167;" horiz-adv-x="412" 
d="M377 89l-0.00195312 -89.001c-33.333 -7.33301 -62.333 -11 -87 -11c-57.333 0 -101.666 14.333 -132.999 43s-47 71.334 -47 128.001v48h-81v87h81v109h-81v87h81v129h105v-129h146v-87h-146v-109h146v-87h-146v-39c0 -30.667 7.83301 -52.5 23.5 -65.5
s39.834 -19.5 72.501 -19.5c12 0 34 1.66699 66 5z" />
    <glyph glyph-name="Utilde" unicode="&#x168;" horiz-adv-x="694" 
d="M76 267l-0.000976562 393h106v-400c0 -54.667 15.167 -97.334 45.5 -128.001s70.5 -46 120.5 -46c49.333 0 89 15.333 119 46s45 73.334 45 128.001v400h106v-393c0 -85.333 -25.167 -153 -75.5 -203s-115.166 -75 -194.499 -75c-80.667 0 -146.167 25 -196.5 75
s-75.5 117.667 -75.5 203zM354.999 757l-31.999 18c-20 12 -34.667 18 -44 18c-18.667 0 -28 -12 -28 -36v-13h-84c-1.33301 16 -2 25.667 -2 29c0 34 9.5 62 28.5 84s43.167 33 72.5 33c24.667 0 48.667 -7.33301 72 -22l33 -20c22 -12 36.667 -18 44 -18
c18.667 0 28 11.667 28 35v15h84c1.33301 -16 2 -25.667 2 -29c0 -34 -9.5 -62 -28.5 -84s-42.833 -33 -71.5 -33c-22.667 0 -47.334 7.66699 -74.001 23z" />
    <glyph glyph-name="utilde" unicode="&#x169;" horiz-adv-x="570" 
d="M71 206l-0.000976562 285h104v-293c0 -33.333 10.333 -60.333 31 -81s47.334 -31 80.001 -31c31.333 0 57.166 10.333 77.499 31s30.5 47.667 30.5 81v293h105v-285c0 -64.667 -20.167 -117 -60.5 -157s-91.166 -60 -152.499 -60c-62.667 0 -114.167 19.833 -154.5 59.5
s-60.5 92.167 -60.5 157.5zM290.999 611l-26.999 20c-18.667 14 -32.334 21 -41.001 21c-18.667 0 -28 -12.667 -28 -38v-14h-83c-1.33301 17.333 -2 27 -2 29c0 35.333 9.16699 64 27.5 86s42.166 33 71.499 33c24.667 0 48 -8 70 -24l27 -20c17.333 -13.333 31 -20 41 -20
c18.667 0 28 12.667 28 38v14h83c0.666992 -4.66699 1 -14.334 1 -29.001c0 -35.333 -9.16699 -64.166 -27.5 -86.499s-42.166 -33.5 -71.499 -33.5c-23.333 0 -46.333 8 -69 24z" />
    <glyph glyph-name="Umacron" unicode="&#x16a;" horiz-adv-x="694" 
d="M76 267l-0.000976562 393h106v-400c0 -54.667 15.167 -97.334 45.5 -128.001s70.5 -46 120.5 -46c49.333 0 89 15.333 119 46s45 73.334 45 128.001v400h106v-393c0 -85.333 -25.167 -153 -75.5 -203s-115.166 -75 -194.499 -75c-80.667 0 -146.167 25 -196.5 75
s-75.5 117.667 -75.5 203zM192.999 762v85h308v-85h-308z" />
    <glyph glyph-name="umacron" unicode="&#x16b;" horiz-adv-x="570" 
d="M71 206l-0.000976562 285h104v-293c0 -33.333 10.333 -60.333 31 -81s47.334 -31 80.001 -31c31.333 0 57.166 10.333 77.499 31s30.5 47.667 30.5 81v293h105v-285c0 -64.667 -20.167 -117 -60.5 -157s-91.166 -60 -152.499 -60c-62.667 0 -114.167 19.833 -154.5 59.5
s-60.5 92.167 -60.5 157.5zM140.999 632v84h288v-84h-288z" />
    <glyph glyph-name="Ubreve" unicode="&#x16c;" horiz-adv-x="694" 
d="M76 267l-0.000976562 393h106v-400c0 -54.667 15.167 -97.334 45.5 -128.001s70.5 -46 120.5 -46c49.333 0 89 15.333 119 46s45 73.334 45 128.001v400h106v-393c0 -85.333 -25.167 -153 -75.5 -203s-115.166 -75 -194.499 -75c-80.667 0 -146.167 25 -196.5 75
s-75.5 117.667 -75.5 203zM184.999 890v20h84v-20c0 -26.667 7 -47.834 21 -63.501s32.667 -23.5 56 -23.5c24 0 43 7.83301 57 23.5s21 36.834 21 63.501v20h85v-20c0 -50 -15.333 -90.333 -46 -121c-30 -30.667 -69 -46 -117 -46s-86.833 15.333 -116.5 46
s-44.5 71 -44.5 121z" />
    <glyph glyph-name="ubreve" unicode="&#x16d;" horiz-adv-x="570" 
d="M71 206l-0.000976562 285h104v-293c0 -33.333 10.333 -60.333 31 -81s47.334 -31 80.001 -31c31.333 0 57.166 10.333 77.499 31s30.5 47.667 30.5 81v293h105v-285c0 -64.667 -20.167 -117 -60.5 -157s-91.166 -60 -152.499 -60c-62.667 0 -114.167 19.833 -154.5 59.5
s-60.5 92.167 -60.5 157.5zM122.999 738v29h84v-28c0 -26.667 7 -47.834 21 -63.501s32.667 -23.5 56 -23.5c24 0 43 7.83301 57 23.5s21 36.834 21 63.501v28h85v-29c0 -49.333 -15.333 -89.333 -46 -120c-30 -30.667 -69 -46 -117 -46c-47.333 0 -86 15.333 -116 46
s-45 70.667 -45 120z" />
    <glyph glyph-name="Uring" unicode="&#x16e;" horiz-adv-x="694" 
d="M76 267l-0.000976562 393h106v-400c0 -54.667 15.167 -97.334 45.5 -128.001s70.5 -46 120.5 -46c49.333 0 89 15.333 119 46s45 73.334 45 128.001v400h106v-393c0 -85.333 -25.167 -153 -75.5 -203s-115.166 -75 -194.499 -75c-80.667 0 -146.167 25 -196.5 75
s-75.5 117.667 -75.5 203zM227.999 802c0 32 11.167 59.167 33.5 81.5s50.5 33.5 84.5 33.5s62.333 -11.167 85 -33.5s34 -49.5 34 -81.5c0 -32.667 -11.333 -60 -34 -82s-51 -33 -85 -33s-62.167 11 -84.5 33s-33.5 49.333 -33.5 82zM391.999 802
c0 13.333 -4.33301 24.333 -13 33s-19.334 13 -32.001 13c-13.333 0 -24.333 -4.33301 -33 -13s-13 -19.667 -13 -33s4.33301 -24.333 13 -33s19.667 -13 33 -13c12.667 0 23.334 4.33301 32.001 13s13 19.667 13 33z" />
    <glyph glyph-name="uring" unicode="&#x16f;" horiz-adv-x="570" 
d="M71 206l-0.000976562 285h104v-293c0 -33.333 10.333 -60.333 31 -81s47.334 -31 80.001 -31c31.333 0 57.166 10.333 77.499 31s30.5 47.667 30.5 81v293h105v-285c0 -64.667 -20.167 -117 -60.5 -157s-91.166 -60 -152.499 -60c-62.667 0 -114.167 19.833 -154.5 59.5
s-60.5 92.167 -60.5 157.5zM165.999 669c0 32.667 11.333 60 34 82c22.667 22.667 50.667 34 84 34c34 0 62.333 -11 85 -33s34 -49.667 34 -83c0 -32.667 -11.333 -60 -34 -82s-51 -33 -85 -33c-33.333 0 -61.333 11 -84 33s-34 49.333 -34 82zM329.999 669
c0 13.333 -4.33301 24.5 -13 33.5s-19.334 13.5 -32.001 13.5c-13.333 0 -24.333 -4.5 -33 -13.5s-13 -20.167 -13 -33.5c0 -12.667 4.33301 -23.334 13 -32.001s19.667 -13 33 -13c12.667 0 23.334 4.33301 32.001 13s13 19.334 13 32.001z" />
    <glyph glyph-name="Uhungarumlaut" unicode="&#x170;" horiz-adv-x="694" 
d="M76 267l-0.000976562 393h106v-400c0 -54.667 15.167 -97.334 45.5 -128.001s70.5 -46 120.5 -46c49.333 0 89 15.333 119 46s45 73.334 45 128.001v400h106v-393c0 -85.333 -25.167 -153 -75.5 -203s-115.166 -75 -194.499 -75c-80.667 0 -146.167 25 -196.5 75
s-75.5 117.667 -75.5 203zM184.999 724l79 186h111v-19l-118 -167h-72zM412.999 724l79 186h111v-19l-118 -167h-72z" />
    <glyph glyph-name="uhungarumlaut" unicode="&#x171;" horiz-adv-x="570" 
d="M71 206l-0.000976562 285h104v-293c0 -33.333 10.333 -60.333 31 -81s47.334 -31 80.001 -31c31.333 0 57.166 10.333 77.499 31s30.5 47.667 30.5 81v293h105v-285c0 -64.667 -20.167 -117 -60.5 -157s-91.166 -60 -152.499 -60c-62.667 0 -114.167 19.833 -154.5 59.5
s-60.5 92.167 -60.5 157.5zM139.999 568l79 212h111v-19l-118 -193h-72zM347.999 568l79 212h111v-19l-118 -193h-72z" />
    <glyph glyph-name="Uogonek" unicode="&#x172;" horiz-adv-x="694" 
d="M76 267l-0.000976562 393h106v-400c0 -54.667 15.167 -97.334 45.5 -128.001s70.5 -46 120.5 -46c49.333 0 89 15.333 119 46s45 73.334 45 128.001v400h106v-393c0 -85.333 -25.167 -153 -75.5 -203s-115.166 -75 -194.499 -75c-80.667 0 -146.167 25 -196.5 75
s-75.5 117.667 -75.5 203zM322.999 -98c0 25.333 7.5 48.332 22.5 68.999s47.833 53 98.5 97h101l-88 -91c-21.333 -21.333 -32 -40 -32 -56c0 -22 14 -33 42 -33c8.66699 0 24.667 2 48 6v-73c-24.667 -8 -51 -12 -79 -12c-34 0 -61.333 8.33301 -82 25
s-31 39.334 -31 68.001z" />
    <glyph glyph-name="uogonek" unicode="&#x173;" horiz-adv-x="570" 
d="M394 491l104.999 -0.000976562v-285c0 -33.333 -4.66699 -62 -14 -86c-9.33301 -23.333 -21.666 -43.666 -36.999 -60.999c-16 -16.667 -41 -40.667 -75 -72c-27.333 -25.333 -41 -46.333 -41 -63c0 -25.333 15 -38 45 -38c15.333 0 31.333 2 48 6v-69
c-28 -9.33301 -55.333 -14 -82 -14c-34.667 0 -61.667 7.66699 -81 23s-29 37 -29 65c0 35.333 16.667 66 50 92c-62 1.33301 -112.833 21.833 -152.5 61.5s-59.5 91.5 -59.5 155.5v285h104v-293c0 -33.333 10.333 -60.333 31 -81s47.334 -31 80.001 -31
c31.333 0 57.166 10.333 77.499 31s30.5 47.667 30.5 81v293z" />
    <glyph glyph-name="Wcircumflex" unicode="&#x174;" horiz-adv-x="1051" 
d="M899 660h116l-257 -671h-35l-197 468l-197 -468h-36l-257 671h117l165 -446l189 457h37l190 -457zM707 724h-81l-100 94l-101 -94h-81l148 186h67z" />
    <glyph glyph-name="wcircumflex" unicode="&#x175;" horiz-adv-x="854" 
d="M723 491h112l-218 -502h-36l-154 327l-154 -327h-36l-218 502h112l129 -321l149 332h36l151 -328zM594 568h-78l-90 109l-91 -109h-79l136 212h67z" />
    <glyph glyph-name="Ycircumflex" unicode="&#x176;" horiz-adv-x="620" 
d="M591 660l-228 -394v-266h-106v266l-228 394h118l163 -287l164 287h117zM489 724h-81l-100 94l-101 -94h-81l148 186h67z" />
    <glyph glyph-name="ycircumflex" unicode="&#x177;" horiz-adv-x="549" 
d="M418 491l112.001 0.000976562l-239 -547c-20.667 -46.667 -45.334 -80.834 -74.001 -102.501s-64 -32.5 -106 -32.5c-28 0 -55 3.33301 -81 10v89c27.333 -2.66699 46.666 -4 57.999 -4c50.667 0 86.334 24 107.001 72l20 46l-196 469h113l141 -357zM442.001 568.001h-78
l-90 109l-91 -109h-79l136 212h67z" />
    <glyph glyph-name="Ydieresis" unicode="&#x178;" horiz-adv-x="620" 
d="M591 660l-228 -394v-266h-106v266l-228 394h118l163 -287l164 287h117zM117 812c0 18 6.83301 33.333 20.5 46s29.5 19 47.5 19c19.333 0 35.5 -6.16699 48.5 -18.5s19.5 -27.833 19.5 -46.5c0 -17.333 -6.66699 -32.5 -20 -45.5s-29.333 -19.5 -48 -19.5
c-18 0 -33.833 6.5 -47.5 19.5s-20.5 28.167 -20.5 45.5zM362 811c0 18 6.83301 33.501 20.5 46.501s29.5 19.5 47.5 19.5c18.667 0 34.667 -6.33301 48 -19s20 -28.334 20 -47.001c0 -17.333 -6.66699 -32.5 -20 -45.5s-29.333 -19.5 -48 -19.5
c-18 0 -33.833 6.5 -47.5 19.5s-20.5 28.167 -20.5 45.5z" />
    <glyph glyph-name="Zacute" unicode="&#x179;" horiz-adv-x="588" 
d="M190 95h368v-95h-532v29l366 536h-323v95h488v-29zM259 724l79 186h128v-19l-129 -167h-78z" />
    <glyph glyph-name="zacute" unicode="&#x17a;" horiz-adv-x="461" 
d="M179 91h260v-91h-417v29l257 371h-234v91h392v-30zM199 568l79 212h128v-19l-129 -193h-78z" />
    <glyph glyph-name="Zdotaccent" unicode="&#x17b;" horiz-adv-x="588" 
d="M190 95h368v-95h-532v29l366 536h-323v95h488v-29zM228 812c0 20 7 36.667 21 50s31 20 51 20s36.833 -6.66699 50.5 -20s20.5 -30 20.5 -50c0 -19.333 -7 -35.666 -21 -48.999s-30.667 -20 -50 -20c-20 0 -37 6.66699 -51 20s-21 29.666 -21 48.999z" />
    <glyph glyph-name="zdotaccent" unicode="&#x17c;" horiz-adv-x="461" 
d="M179 91h260v-91h-417v29l257 371h-234v91h392v-30zM166 674c0 19.333 7 35.833 21 49.5s31 20.5 51 20.5c19.333 0 36 -6.83301 50 -20.5s21 -30.167 21 -49.5s-7 -35.666 -21 -48.999s-30.667 -20 -50 -20c-20 0 -37 6.66699 -51 20s-21 29.666 -21 48.999z" />
    <glyph glyph-name="Zcaron" unicode="&#x17d;" horiz-adv-x="588" 
d="M190 95h368v-95h-532v29l366 536h-323v95h488v-29zM400 910h81l-148 -186h-67l-148 186h81l101 -94z" />
    <glyph glyph-name="zcaron" unicode="&#x17e;" horiz-adv-x="461" 
d="M179 91h260v-91h-417v29l257 371h-234v91h392v-30zM329 780h78l-135 -212h-67l-136 212h79l91 -109z" />
    <glyph glyph-name="uni018F" unicode="&#x18f;" horiz-adv-x="732" 
d="M688 332c1.33301 -94.667 -30.833 -175.831 -96.5 -243.498s-144.5 -100.834 -236.5 -99.501c-86.667 -1.33301 -160.667 26.5 -222 83.5s-91.333 128.167 -90 213.5c0 20.667 2.66699 47 8 79h527c-6.66699 62.667 -30 113 -70 151c-38.667 38.667 -88.667 58 -150 58
c-85.333 0 -154.666 -35.333 -207.999 -106l-72 61c67.333 94.667 160.666 142 279.999 142c92.667 1.33301 171.167 -31.334 235.5 -98.001s95.833 -147 94.5 -241zM575.001 275.003h-427.999c0 -56.667 20.5 -102.334 61.5 -137.001s90.833 -52 149.5 -52
c55.333 0 102.666 17.333 141.999 52s64.333 80.334 75 137.001z" />
    <glyph glyph-name="florin" unicode="&#x192;" horiz-adv-x="447" 
d="M445 662l0.00195312 -88c-28 1.33301 -43 2 -45 2c-30 0 -52.667 -6.66699 -68 -20s-25 -35 -29 -65l-11 -89h99v-91h-110l-33 -273c-14 -114 -74.333 -171 -181 -171c-18.667 0 -40.334 2.66699 -65.001 8l-1 89c16.667 -2 31.667 -3 45 -3
c30 0 52.833 6.83301 68.5 20.5s25.5 35.5 29.5 65.5l32 264h-92v91h103l12 98c15.333 114 75.666 171 180.999 171c27.333 0 49 -3 65 -9z" />
    <glyph glyph-name="uni01D4" unicode="&#x1d4;" horiz-adv-x="570" 
d="M71 206l-0.000976562 285h104v-293c0 -33.333 10.333 -60.333 31 -81s47.334 -31 80.001 -31c31.333 0 57.166 10.333 77.499 31s30.5 47.667 30.5 81v293h105v-285c0 -64.667 -20.167 -117 -60.5 -157s-91.166 -60 -152.499 -60c-62.667 0 -114.167 19.833 -154.5 59.5
s-60.5 92.167 -60.5 157.5zM375.999 780h78l-135 -212h-67l-136 212h79l91 -109z" />
    <glyph glyph-name="AEacute" unicode="&#x1fc;" horiz-adv-x="836" 
d="M551 95h245v-95h-334l-19 110h-262l-58 -110h-114l342 660h433v-95h-311l28 -169h203v-92h-188zM379 505l-151 -304h199zM378 724l79 186h128v-19l-129 -167h-78z" />
    <glyph glyph-name="aeacute" unicode="&#x1fd;" horiz-adv-x="887" 
d="M834 204l-365.002 -0.00292969c8 -38 26.167 -67.833 54.5 -89.5s63.166 -32.5 104.499 -32.5c52 0 99.333 19 142 57l51 -71c-54 -52.667 -119 -79 -195 -79c-45.333 0 -86.166 9.5 -122.499 28.5s-65.833 45.5 -88.5 79.5c-18 -35.333 -44.167 -62.166 -78.5 -80.499
s-74.166 -27.5 -119.499 -27.5c-54 0 -97 13.333 -129 40s-48 61.334 -48 104.001c0 44.667 16.5 80.334 49.5 107.001s76.833 40 131.5 40h139v23c0 34 -9.16699 60 -27.5 78s-43.833 27 -76.5 27c-49.333 0 -94.666 -24.333 -135.999 -73l-61 62
c50 70 118.667 105 206 105c77.333 0 132.333 -29 165 -87c46.667 58 108.667 87 186 87c65.333 0 119.333 -21.5 162 -64.5s64 -96.833 64 -161.5c0 -28 -2.66699 -52 -8 -72zM466.998 279.997h269.999c2.66699 40 -8 72.167 -32 96.5s-55 36.5 -93 36.5
c-37.333 0 -69.166 -12.167 -95.499 -36.5s-42.833 -56.5 -49.5 -96.5zM359.997 184.997v19h-126c-58 0 -87 -21 -87 -63c0 -22 7.83301 -39.167 23.5 -51.5s36.5 -18.5 62.5 -18.5c34.667 0 64.667 10.667 90 32c24.667 22 37 49.333 37 82zM390.997 567.997l79 212h128
v-19l-129 -193h-78z" />
    <glyph glyph-name="Oslashacute" unicode="&#x1fe;" horiz-adv-x="780" 
d="M743 620l-80.0029 -80c48.667 -59.333 73 -129.333 73 -210c2 -94 -31.833 -174.667 -101.5 -242s-151.5 -100.333 -245.5 -99c-77.333 0 -146.666 22.333 -207.999 67l-80 -80l-64 64l78 79c-48 62.667 -72 133 -72 211c-1.33301 94 32.334 174.667 101.001 242
s150.334 100.333 245.001 99c77.333 0 147.333 -22.667 210 -68l80 81zM147.997 331c0 -52.667 13.001 -99.333 39.001 -140l343 344c-40.667 28.667 -87.334 43 -140.001 43c-69.333 0 -127 -23.5 -173 -70.5s-69 -105.833 -69 -176.5zM630.998 331.001
c0 51.333 -13 97.333 -39 138l-343 -344c40.667 -28.667 87.667 -43 141 -43c68.667 0 126 23.5 172 70.5s69 106.5 69 178.5zM348.998 724.001l79 186h128v-19l-129 -167h-78z" />
    <glyph glyph-name="oslashacute" unicode="&#x1ff;" horiz-adv-x="616" 
d="M577 450l-55.999 -56.001c31.333 -44.667 47 -94.334 47 -149.001c1.33301 -69.333 -24.167 -129.666 -76.5 -180.999s-113.833 -76.333 -184.5 -75c-53.333 0 -102.333 14.667 -147 44l-56 -57l-64 64l56 56c-32 44.667 -48 94.334 -48 149.001
c0 71.333 25.167 132 75.5 182s111.833 75 184.5 75c53.333 0 102.666 -15 147.999 -45l57 56zM148.001 244.999c0 -32.667 7 -60.999 21 -84.999l226 227c-27.333 16 -56.333 24 -87 24c-46.667 0 -85 -15.667 -115 -47c-30 -30.667 -45 -70.334 -45 -119.001zM468.001 245
c0 31.333 -6.66699 59.667 -20 85l-228 -227c25.333 -16.667 54.333 -25 87 -25c46 0 84.333 15.833 115 47.5s46 71.5 46 119.5zM271.001 568.001l79 212h128v-19l-129 -193h-78z" />
    <glyph glyph-name="uni0218" unicode="&#x218;" horiz-adv-x="559" 
d="M36 132l74.998 57.002c48 -70 105.667 -105 173 -105c34 0 61.5 8.33301 82.5 25s31.5 39 31.5 67c0 22.667 -7 40.5 -21 53.5s-39.333 28.167 -76 45.5l-73 34c-51.333 23.333 -89.833 49.166 -115.5 77.499s-38.5 63.5 -38.5 105.5c0 52.667 20 95.667 60 129
s89.333 50 148 50c46 0 87.833 -10.667 125.5 -32s66.834 -50 87.501 -86l-74 -57c-36 53.333 -82.333 80 -139 80c-29.333 0 -53.333 -7 -72 -21s-28 -33.667 -28 -59c0.666992 -12 2.16699 -21.833 4.5 -29.5s8.5 -15.667 18.5 -24s17 -13.5 21 -15.5l39 -20
c4 -2 7 -3.66699 9 -5l74 -34c55.333 -25.333 95.5 -52.333 120.5 -81s37.5 -64.334 37.5 -107.001c0 -56.667 -20.833 -102.667 -62.5 -138s-94.5 -53 -158.5 -53c-53.333 0 -101.666 12.667 -144.999 38s-78 60.333 -104 105zM231.998 -219.998l7 172h100l-25 -172h-82z
" />
    <glyph glyph-name="uni0219" unicode="&#x219;" horiz-adv-x="455" 
d="M30 84l59.999 66c44.667 -46.667 90.667 -70 138 -70c23.333 0 42.333 4.83301 57 14.5s22 23.167 22 40.5c0 13.333 -5 24.166 -15 32.499s-28 17.833 -54 28.5l-50 21c-44.667 18.667 -77.167 38.834 -97.5 60.501s-30.5 49.167 -30.5 82.5
c0 43.333 16.167 77.833 48.5 103.5s73.833 38.5 124.5 38.5c70.667 0 127.334 -25.333 170.001 -76l-57 -65c-32 33.333 -70.333 50 -115 50s-67 -15.667 -67 -47c0 -12 4.66699 -22.167 14 -30.5s26.333 -17.5 51 -27.5l47 -19c47.333 -20 81.5 -41.167 102.5 -63.5
s31.5 -50.5 31.5 -84.5c0 -47.333 -17.333 -84.333 -52 -111c-34.667 -26 -78 -39 -130 -39c-83.333 0 -149.333 31.667 -198 95zM183.999 -220l7 172h100l-25 -172h-82z" />
    <glyph glyph-name="uni021A" unicode="&#x21a;" horiz-adv-x="583" 
d="M238 0v565h-222v95h551v-95h-223v-565h-106zM235 -220l7 172h100l-25 -172h-82z" />
    <glyph glyph-name="uni021B" unicode="&#x21b;" horiz-adv-x="398" 
d="M368 89v-89.001c-34.667 -7.33301 -63.667 -11 -87 -11c-57.333 0 -101.833 14.333 -133.5 43s-47.5 71.334 -47.5 128.001v240h-80v91h80v129h106v-129h146v-91h-146v-231c0 -30.667 7.83301 -52.5 23.5 -65.5s40.167 -19.5 73.5 -19.5c11.333 0 33 1.66699 65 5z
M169 -220.001l7 172h100l-25 -172h-82z" />
    <glyph glyph-name="uni0237" unicode="&#x237;" horiz-adv-x="257" 
d="M-61 -182l-0.000976562 89.001c16 -2 30.333 -3 43 -3c32 0 55.667 6.66699 71 20s23 35 23 65v502h105v-511c0 -56.667 -15.167 -99.334 -45.5 -128.001s-73.166 -43 -128.499 -43c-27.333 0 -50 3 -68 9z" />
    <glyph glyph-name="uni0259" unicode="&#x259;" horiz-adv-x="570" 
d="M526 246c0 -72 -23.833 -132.835 -71.5 -182.502s-107.167 -74.5 -178.5 -74.5c-66 0 -121 21.333 -165 64s-66 96.334 -66 161.001c0 23.333 2.33301 45.333 7 66h366c-6.66699 40.667 -23.5 72.334 -50.5 95.001s-61.5 34 -103.5 34c-56 0 -105.667 -19.333 -149 -58
l-50 72c55.333 52.667 122.333 79 201 79c74.667 0 136.667 -24.667 186 -74s74 -110 74 -182zM417 197.998h-267c0.666992 -36.667 13.167 -65.834 37.5 -87.501s55.166 -32.5 92.499 -32.5c34.667 0 64.334 10.833 89.001 32.5s40.667 50.834 48 87.501z" />
    <glyph glyph-name="circumflex" unicode="&#x2c6;" horiz-adv-x="600" 
d="M469 568h-78l-90 109l-91 -109h-79l136 212h67z" />
    <glyph glyph-name="caron" unicode="&#x2c7;" horiz-adv-x="600" 
d="M391 780h78l-135 -212h-67l-136 212h79l91 -109z" />
    <glyph glyph-name="breve" unicode="&#x2d8;" horiz-adv-x="600" 
d="M138 738v29h84v-28c0 -26.667 7 -47.834 21 -63.501s32.667 -23.5 56 -23.5c24 0 43 7.83301 57 23.5s21 36.834 21 63.501v28h85v-29c0 -49.333 -15.333 -89.333 -46 -120c-30 -30.667 -69 -46 -117 -46c-47.333 0 -86 15.333 -116 46s-45 70.667 -45 120z" />
    <glyph glyph-name="dotaccent" unicode="&#x2d9;" horiz-adv-x="600" 
d="M228 674c0 19.333 7 35.833 21 49.5s31 20.5 51 20.5c19.333 0 36 -6.83301 50 -20.5s21 -30.167 21 -49.5s-7 -35.666 -21 -48.999s-30.667 -20 -50 -20c-20 0 -37 6.66699 -51 20s-21 29.666 -21 48.999z" />
    <glyph glyph-name="ring" unicode="&#x2da;" horiz-adv-x="600" 
d="M181 669c0 32.667 11.333 60 34 82c22.667 22.667 50.667 34 84 34c34 0 62.333 -11 85 -33s34 -49.667 34 -83c0 -32.667 -11.333 -60 -34 -82s-51 -33 -85 -33c-33.333 0 -61.333 11 -84 33s-34 49.333 -34 82zM345 669c0 13.333 -4.33301 24.5 -13 33.5
s-19.334 13.5 -32.001 13.5c-13.333 0 -24.333 -4.5 -33 -13.5s-13 -20.167 -13 -33.5c0 -12.667 4.33301 -23.334 13 -32.001s19.667 -13 33 -13c12.667 0 23.334 4.33301 32.001 13s13 19.334 13 32.001z" />
    <glyph glyph-name="ogonek" unicode="&#x2db;" horiz-adv-x="600" 
d="M204 -98c0 27.333 11.167 51.333 33.5 72s61.166 44 116.499 70l42 -44l-45 -29c-14.667 -10 -24 -16.5 -28 -19.5s-7.83301 -7.16699 -11.5 -12.5s-5.5 -11.333 -5.5 -18c0 -22 14 -33 42 -33c9.33301 0 25.333 2 48 6v-73c-27.333 -8 -53.666 -12 -78.999 -12
c-34.667 0 -62.167 8.5 -82.5 25.5s-30.5 39.5 -30.5 67.5z" />
    <glyph glyph-name="tilde" unicode="&#x2dc;" horiz-adv-x="600" 
d="M306 611l-26.999 20c-18.667 14 -32.334 21 -41.001 21c-18.667 0 -28 -12.667 -28 -38v-14h-83c-1.33301 17.333 -2 27 -2 29c0 35.333 9.16699 64 27.5 86s42.166 33 71.499 33c24.667 0 48 -8 70 -24l27 -20c17.333 -13.333 31 -20 41 -20c18.667 0 28 12.667 28 38
v14h83c0.666992 -4.66699 1 -14.334 1 -29.001c0 -35.333 -9.16699 -64.166 -27.5 -86.499s-42.166 -33.5 -71.499 -33.5c-23.333 0 -46.333 8 -69 24z" />
    <glyph glyph-name="hungarumlaut" unicode="&#x2dd;" horiz-adv-x="600" 
d="M101 568l79 212h111v-19l-118 -193h-72zM309 568l79 212h111v-19l-118 -193h-72z" />
    <glyph glyph-name="gravecomb" unicode="&#x300;" horiz-adv-x="0" 
d="M-225 568l-129 193v19h128l79 -212h-78z" />
    <glyph glyph-name="acutecomb" unicode="&#x301;" horiz-adv-x="0" 
d="M-354 568l79 212h128v-19l-129 -193h-78z" />
    <glyph glyph-name="uni0302" unicode="&#x302;" horiz-adv-x="0" 
d="M-81 568h-78l-90 109l-91 -109h-79l136 212h67z" />
    <glyph glyph-name="tildecomb" unicode="&#x303;" horiz-adv-x="0" 
d="M-244 611l-26.999 20c-18.667 14 -32.334 21 -41.001 21c-18.667 0 -28 -12.667 -28 -38v-14h-83c-1.33301 17.333 -2 27 -2 29c0 35.333 9.16699 64 27.5 86s42.166 33 71.499 33c24.667 0 48 -8 70 -24l27 -20c17.333 -13.333 31 -20 41 -20c18.667 0 28 12.667 28 38
v14h83c0.666992 -4.66699 1 -14.334 1 -29.001c0 -35.333 -9.16699 -64.166 -27.5 -86.499s-42.166 -33.5 -71.499 -33.5c-23.333 0 -46.333 8 -69 24z" />
    <glyph glyph-name="uni0304" unicode="&#x304;" horiz-adv-x="0" 
d="M-394 632v84h288v-84h-288z" />
    <glyph glyph-name="uni0306" unicode="&#x306;" horiz-adv-x="0" 
d="M-412 738v29h84v-28c0 -26.667 7 -47.834 21 -63.501s32.667 -23.5 56 -23.5c24 0 43 7.83301 57 23.5s21 36.834 21 63.501v28h85v-29c0 -49.333 -15 -89.333 -45 -120c-30.667 -30.667 -70 -46 -118 -46c-47.333 0 -86 15.333 -116 46s-45 70.667 -45 120z" />
    <glyph glyph-name="uni0307" unicode="&#x307;" horiz-adv-x="0" 
d="M-322 674c0 19.333 7 35.833 21 49.5s31 20.5 51 20.5c19.333 0 36 -6.83301 50 -20.5s21 -30.167 21 -49.5s-7 -35.666 -21 -48.999s-30.667 -20 -50 -20c-20 0 -37 6.66699 -51 20s-21 29.666 -21 48.999z" />
    <glyph glyph-name="uni0308" unicode="&#x308;" horiz-adv-x="0" 
d="M-431 674c0 18 6.83301 33.501 20.5 46.501s29.834 19.5 48.501 19.5s34.5 -6.33301 47.5 -19s19.5 -28.334 19.5 -47.001c0 -17.333 -6.5 -32.5 -19.5 -45.5s-28.833 -19.5 -47.5 -19.5s-34.834 6.5 -48.501 19.5s-20.5 28.167 -20.5 45.5zM-206 674.001
c0 18 6.83301 33.5 20.5 46.5s29.834 19.5 48.501 19.5c18 0 33.667 -6.5 47 -19.5s20 -28.5 20 -46.5c0 -17.333 -6.66699 -32.5 -20 -45.5s-29 -19.5 -47 -19.5c-18.667 0 -34.834 6.5 -48.501 19.5s-20.5 28.167 -20.5 45.5z" />
    <glyph glyph-name="uni030A" unicode="&#x30a;" horiz-adv-x="0" 
d="M-369 669c0 32.667 11.333 60 34 82c22.667 22.667 50.667 34 84 34c34 0 62.333 -11 85 -33s34 -49.667 34 -83c0 -32.667 -11.333 -60 -34 -82s-51 -33 -85 -33c-33.333 0 -61.333 11 -84 33s-34 49.333 -34 82zM-205 669c0 13.333 -4.33301 24.5 -13 33.5
s-19.334 13.5 -32.001 13.5c-13.333 0 -24.333 -4.5 -33 -13.5s-13 -20.167 -13 -33.5c0 -12.667 4.33301 -23.334 13 -32.001s19.667 -13 33 -13c12.667 0 23.334 4.33301 32.001 13s13 19.334 13 32.001z" />
    <glyph glyph-name="uni030B" unicode="&#x30b;" horiz-adv-x="0" 
d="M-449 568l79 212h111v-19l-118 -193h-72zM-241 568l79 212h111v-19l-118 -193h-72z" />
    <glyph glyph-name="uni030C" unicode="&#x30c;" horiz-adv-x="0" 
d="M-159 780h78l-135 -212h-67l-136 212h79l91 -109z" />
    <glyph glyph-name="uni0326" unicode="&#x326;" horiz-adv-x="0" 
d="M-304 -220l7 172h100l-25 -172h-82z" />
    <glyph glyph-name="uni0327" unicode="&#x327;" horiz-adv-x="0" 
d="M-357 -182l0.000976562 72.001c24 -2 43 -3 57 -3c22 0 39.333 5.33301 52 16s19 25.667 19 45c0 21.333 -8 43.333 -24 66l43 21c44.667 -22.667 67 -58 67 -106c0 -34.667 -13 -63.334 -39 -86.001s-60.667 -34 -104 -34c-22.667 0 -46.334 3 -71.001 9z" />
    <glyph glyph-name="uni0328" unicode="&#x328;" horiz-adv-x="0" 
d="M-346 -98c0 27.333 11.168 51.333 33.501 72s61.166 44 116.499 70l42 -44l-45 -29c-14.667 -10 -24 -16.5 -28 -19.5s-7.83301 -7.16699 -11.5 -12.5s-5.5 -11.333 -5.5 -18c0 -22 14 -33 42 -33c9.33301 0 25.333 2 48 6v-73c-26.667 -8 -53 -12 -79 -12
c-34.667 0 -62.167 8.5 -82.5 25.5s-30.5 39.5 -30.5 67.5z" />
    <glyph glyph-name="tonos" unicode="&#x384;" horiz-adv-x="500" 
d="M170 568l33 212h126v-19l-80 -193h-79z" />
    <glyph glyph-name="dieresistonos" unicode="&#x385;" horiz-adv-x="500" 
d="M175 568l40 212h123v-19l-87 -193h-76zM12 674c0 18 6.66699 33.501 20 46.501s29 19.5 47 19.5c18.667 0 34.667 -6.33301 48 -19s20 -28.334 20 -47.001c0 -17.333 -6.66699 -32.5 -20 -45.5s-29.333 -19.5 -48 -19.5c-17.333 0 -32.833 6.5 -46.5 19.5
s-20.5 28.167 -20.5 45.5zM353 674.001c0 18 6.66699 33.501 20 46.501s29 19.5 47 19.5c18.667 0 34.5 -6.33301 47.5 -19s19.5 -28.334 19.5 -47.001c0 -17.333 -6.5 -32.5 -19.5 -45.5s-28.833 -19.5 -47.5 -19.5c-17.333 0 -32.833 6.5 -46.5 19.5
s-20.5 28.167 -20.5 45.5z" />
    <glyph glyph-name="Alphatonos" unicode="&#x386;" horiz-adv-x="662" 
d="M526 0l-47 110h-297l-47 -110h-113l291 671h36l291 -671h-114zM441 201l-110 273l-111 -273h221zM14 452l9 208h111l-44 -208h-76z" />
    <glyph glyph-name="anoteleia" unicode="&#x387;" horiz-adv-x="280" 
d="M62 317c0 22 7.66699 40.501 23 55.501s34 22.5 56 22.5s40.333 -7.33301 55 -22s22 -33.334 22 -56.001c0 -22 -7.33301 -40.333 -22 -55s-33 -22 -55 -22s-40.667 7.33301 -56 22s-23 33 -23 55z" />
    <glyph glyph-name="Epsilontonos" unicode="&#x388;" horiz-adv-x="569" 
d="M83 0v660h434v-95h-328v-169h247v-92h-247v-209h340v-95h-446zM-120 452l9 208h111l-44 -208h-76z" />
    <glyph glyph-name="Etatonos" unicode="&#x389;" horiz-adv-x="711" 
d="M83 0v660h106v-263h332v263h106v-660h-106v302h-332v-302h-106zM-120 452l9 208h111l-44 -208h-76z" />
    <glyph glyph-name="Iotatonos" unicode="&#x38a;" horiz-adv-x="272" 
d="M83 0v660h106v-660h-106zM-120 452l9 208h111l-44 -208h-76z" />
    <glyph glyph-name="Omicrontonos" unicode="&#x38c;" horiz-adv-x="780" 
d="M43 330c-1.33301 94 32.332 174.667 100.999 242s150.334 100.333 245.001 99c94 1.33301 175.833 -31.667 245.5 -99s103.5 -148 101.5 -242c2 -94 -31.833 -174.667 -101.5 -242s-151.5 -100.333 -245.5 -99c-94.667 -1.33301 -176.5 31.667 -245.5 99
s-102.5 148 -100.5 242zM626.998 331c0 69.333 -22.668 127.167 -68.001 173.5s-101.666 69.5 -168.999 69.5c-68 0 -124.5 -23 -169.5 -69s-67.5 -104 -67.5 -174c0 -70.667 22.333 -129.167 67 -175.5s101.334 -69.5 170.001 -69.5c67.333 0 123.666 23.333 168.999 70
s68 105 68 175zM-76.0029 452.001l9 208h111l-44 -208h-76z" />
    <glyph glyph-name="Upsilontonos" unicode="&#x38e;" horiz-adv-x="620" 
d="M591 660l-228 -394v-266h-106v266l-228 394h118l163 -287l164 287h117zM-141 452l9 208h111l-44 -208h-76z" />
    <glyph glyph-name="Omegatonos" unicode="&#x38f;" horiz-adv-x="790" 
d="M602 95h129v-95h-276v95c118 56 177 137.667 177 245c0 67.333 -22.5 123.166 -67.5 167.499s-101.833 66.5 -170.5 66.5s-125.167 -22 -169.5 -66s-66.5 -99.667 -66.5 -167c0 -107.333 59 -189.333 177 -246v-95h-277v95h125c-90 66 -135 149.333 -135 250
c-2 90 31.167 167.167 99.5 231.5s150.5 95.833 246.5 94.5c95.333 2 177.5 -29.5 246.5 -94.5s102.5 -142.167 100.5 -231.5c0 -97.333 -46.333 -180.666 -139 -249.999zM-65 452l9 208h111l-44 -208h-76z" />
    <glyph glyph-name="iotadieresistonos" unicode="&#x390;" horiz-adv-x="318" 
d="M73 154v337h106v-322c0 -30 5.66699 -51.667 17 -65s30 -20 56 -20c10.667 0 30 1.66699 58 5v-89c-30.667 -7.33301 -58 -11 -82 -11c-103.333 0 -155 55 -155 165zM62 568l40 212h123v-19l-87 -193h-76zM-101 674c0 18 6.66699 33.501 20 46.501s29 19.5 47 19.5
c18.667 0 34.667 -6.33301 48 -19s20 -28.334 20 -47.001c0 -17.333 -6.66699 -32.5 -20 -45.5s-29.333 -19.5 -48 -19.5c-17.333 0 -32.833 6.5 -46.5 19.5s-20.5 28.167 -20.5 45.5zM240 674.001c0 18 6.66699 33.501 20 46.501s29 19.5 47 19.5
c18.667 0 34.5 -6.33301 47.5 -19s19.5 -28.334 19.5 -47.001c0 -17.333 -6.5 -32.5 -19.5 -45.5s-28.833 -19.5 -47.5 -19.5c-17.333 0 -32.833 6.5 -46.5 19.5s-20.5 28.167 -20.5 45.5z" />
    <glyph glyph-name="Alpha" unicode="&#x391;" horiz-adv-x="662" 
d="M526 0l-47 110h-297l-47 -110h-113l291 671h36l291 -671h-114zM441 201l-110 273l-111 -273h221z" />
    <glyph glyph-name="Beta" unicode="&#x392;" horiz-adv-x="618" 
d="M580 192c0 -56 -19.667 -102.001 -59 -138.001s-91 -54 -155 -54h-283v660h231c59.333 0 107.166 -16.5 143.499 -49.5s54.5 -75.167 54.5 -126.5s-18.333 -92.666 -55 -123.999c38.667 -12.667 68.834 -33.667 90.501 -63s32.5 -64.333 32.5 -105zM304 566.999h-116.999
v-178h117c32 0 57 8 75 24s27 38 27 66c0 27.333 -8.83301 48.833 -26.5 64.5s-42.834 23.5 -75.501 23.5zM473.001 194.999c0 32 -10.333 57.168 -31 75.501s-49 27.5 -85 27.5h-170v-205h170c36.667 0 65.167 9.16699 85.5 27.5s30.5 43.166 30.5 74.499z" />
    <glyph glyph-name="Gamma" unicode="&#x393;" horiz-adv-x="515" 
d="M83 0v660h408v-95h-302v-565h-106z" />
    <glyph glyph-name="uni0394" unicode="&#x394;" horiz-adv-x="662" 
d="M349 671l278 -642v-29h-592v29l278 642h36zM486 95l-155 364l-156 -364h311z" />
    <glyph glyph-name="Epsilon" unicode="&#x395;" horiz-adv-x="569" 
d="M83 0v660h434v-95h-328v-169h247v-92h-247v-209h340v-95h-446z" />
    <glyph glyph-name="Zeta" unicode="&#x396;" horiz-adv-x="588" 
d="M190 95h368v-95h-532v29l366 536h-323v95h488v-29z" />
    <glyph glyph-name="Eta" unicode="&#x397;" horiz-adv-x="711" 
d="M83 0v660h106v-263h332v263h106v-660h-106v302h-332v-302h-106z" />
    <glyph glyph-name="Theta" unicode="&#x398;" horiz-adv-x="780" 
d="M43 330c-1.33301 94 32.332 174.667 100.999 242s150.334 100.333 245.001 99c94 1.33301 175.833 -31.667 245.5 -99s103.5 -148 101.5 -242c2 -94 -31.833 -174.667 -101.5 -242s-151.5 -100.333 -245.5 -99c-94.667 -1.33301 -176.5 31.667 -245.5 99
s-102.5 148 -100.5 242zM632.998 330c0 71.333 -23.167 130.667 -69.5 178s-104.5 71 -174.5 71c-69.333 0 -127 -23.667 -173 -71s-69 -106.666 -69 -177.999c0 -72 23 -131.5 69 -178.5s103.667 -70.5 173 -70.5s127.333 23.667 174 71s70 106.666 70 177.999z
M240.998 283.001v91h299v-91h-299z" />
    <glyph glyph-name="Iota" unicode="&#x399;" horiz-adv-x="272" 
d="M83 0v660h106v-660h-106z" />
    <glyph glyph-name="Kappa" unicode="&#x39a;" horiz-adv-x="651" 
d="M83 0v660h106v-660h-106zM325 351l304 -351h-131l-306 351l277 309h130z" />
    <glyph glyph-name="Lambda" unicode="&#x39b;" horiz-adv-x="662" 
d="M640 0h-114l-195 461l-196 -461h-113l291 671h36z" />
    <glyph glyph-name="Mu" unicode="&#x39c;" horiz-adv-x="793" 
d="M674 671h36v-671h-106v414l-189 -248h-36l-190 249v-415h-106v671h37l277 -369z" />
    <glyph glyph-name="Nu" unicode="&#x39d;" horiz-adv-x="711" 
d="M521 660h106v-671h-36l-402 458v-447h-106v671h37l401 -456v445z" />
    <glyph glyph-name="Xi" unicode="&#x39e;" horiz-adv-x="623" 
d="M40 565v95h543v-95h-543zM109 282v96h406v-96h-406zM40 0v95h543v-95h-543z" />
    <glyph glyph-name="Omicron" unicode="&#x39f;" horiz-adv-x="780" 
d="M43 330c-1.33301 94 32.332 174.667 100.999 242s150.334 100.333 245.001 99c94 1.33301 175.833 -31.667 245.5 -99s103.5 -148 101.5 -242c2 -94 -31.833 -174.667 -101.5 -242s-151.5 -100.333 -245.5 -99c-94.667 -1.33301 -176.5 31.667 -245.5 99
s-102.5 148 -100.5 242zM626.998 331c0 69.333 -22.668 127.167 -68.001 173.5s-101.666 69.5 -168.999 69.5c-68 0 -124.5 -23 -169.5 -69s-67.5 -104 -67.5 -174c0 -70.667 22.333 -129.167 67 -175.5s101.334 -69.5 170.001 -69.5c67.333 0 123.666 23.333 168.999 70
s68 105 68 175z" />
    <glyph glyph-name="Pi" unicode="&#x3a0;" horiz-adv-x="686" 
d="M83 0v660h520v-660h-106v565h-308v-565h-106z" />
    <glyph glyph-name="Rho" unicode="&#x3a1;" horiz-adv-x="583" 
d="M83 0v660h241c66.667 0 120.667 -18.833 162 -56.5s62 -86.167 62 -145.5s-20.833 -108 -62.5 -146s-95.5 -57 -161.5 -57h-135v-255h-106zM189 349l133 0.000976562c36.667 0 65.334 9.66699 86.001 29s31 45.666 31 78.999s-10.333 59.833 -31 79.5
s-49.334 29.5 -86.001 29.5h-133v-217z" />
    <glyph glyph-name="Sigma" unicode="&#x3a3;" horiz-adv-x="572" 
d="M213 95h319v-95h-481v29l224 309l-224 293v29h469v-95h-303l167 -217v-18z" />
    <glyph glyph-name="Tau" unicode="&#x3a4;" horiz-adv-x="583" 
d="M238 0v565h-222v95h551v-95h-223v-565h-106z" />
    <glyph glyph-name="Upsilon" unicode="&#x3a5;" horiz-adv-x="620" 
d="M591 660l-228 -394v-266h-106v266l-228 394h118l163 -287l164 287h117z" />
    <glyph glyph-name="Phi" unicode="&#x3a6;" horiz-adv-x="817" 
d="M461 17v-59h-106v59c-90 3.33301 -164.5 34.5 -223.5 93.5s-88.5 132.5 -88.5 220.5s29.5 161 88.5 219s133.5 88.667 223.5 92v60h106v-60c90 -2 164.667 -32.333 224 -91s89 -132 89 -220c0 -88.667 -29.667 -162.667 -89 -222s-134 -90 -224 -92zM667 328
c0 63.333 -19.333 115.667 -58 157s-88 63 -148 65v-440c60 2 109.333 23.333 148 64s58 92 58 154zM355 110.001v439.999c-59.333 -2 -108.333 -23.667 -147 -65s-58 -93.666 -58 -156.999c0 -62 19.333 -113.333 58 -154s87.667 -62 147 -64z" />
    <glyph glyph-name="Chi" unicode="&#x3a7;" horiz-adv-x="607" 
d="M584 0h-121l-160 246l-159 -246h-122l223 337l-209 323h122l146 -233l144 233h121l-205 -323z" />
    <glyph glyph-name="Psi" unicode="&#x3a8;" horiz-adv-x="783" 
d="M339 0l0.000976562 149c-86.667 7.33301 -154.334 36.833 -203.001 88.5s-73 120.5 -73 206.5v216h106v-214c0 -58 15.333 -105 46 -141s72 -55.667 124 -59v414h106v-414c51.333 3.33301 92.333 23 123 59s46 83 46 141v214h106v-216
c0 -86 -24.167 -154.833 -72.5 -206.5s-115.833 -81.167 -202.5 -88.5v-149h-106z" />
    <glyph glyph-name="uni03A9" unicode="&#x3a9;" horiz-adv-x="790" 
d="M602 95h129v-95h-276v95c118 56 177 137.667 177 245c0 67.333 -22.5 123.166 -67.5 167.499s-101.833 66.5 -170.5 66.5s-125.167 -22 -169.5 -66s-66.5 -99.667 -66.5 -167c0 -107.333 59 -189.333 177 -246v-95h-277v95h125c-90 66 -135 149.333 -135 250
c-2 90 31.167 167.167 99.5 231.5s150.5 95.833 246.5 94.5c95.333 2 177.5 -29.5 246.5 -94.5s102.5 -142.167 100.5 -231.5c0 -97.333 -46.333 -180.666 -139 -249.999z" />
    <glyph glyph-name="Iotadieresis" unicode="&#x3aa;" horiz-adv-x="272" 
d="M83 0v660h106v-660h-106zM-54 812c0 18 6.83301 33.333 20.5 46s29.5 19 47.5 19c19.333 0 35.5 -6.16699 48.5 -18.5s19.5 -27.833 19.5 -46.5c0 -17.333 -6.66699 -32.5 -20 -45.5s-29.333 -19.5 -48 -19.5c-18 0 -33.833 6.5 -47.5 19.5s-20.5 28.167 -20.5 45.5z
M191 811c0 18 6.83301 33.501 20.5 46.501s29.5 19.5 47.5 19.5c18.667 0 34.667 -6.33301 48 -19s20 -28.334 20 -47.001c0 -17.333 -6.66699 -32.5 -20 -45.5s-29.333 -19.5 -48 -19.5c-18 0 -33.833 6.5 -47.5 19.5s-20.5 28.167 -20.5 45.5z" />
    <glyph glyph-name="Upsilondieresis" unicode="&#x3ab;" horiz-adv-x="620" 
d="M591 660l-228 -394v-266h-106v266l-228 394h118l163 -287l164 287h117zM119 812c0 18 6.83301 33.333 20.5 46s29.5 19 47.5 19c19.333 0 35.5 -6.16699 48.5 -18.5s19.5 -27.833 19.5 -46.5c0 -17.333 -6.66699 -32.5 -20 -45.5s-29.333 -19.5 -48 -19.5
c-18 0 -33.833 6.5 -47.5 19.5s-20.5 28.167 -20.5 45.5zM364 811c0 18 6.83301 33.501 20.5 46.501s29.5 19.5 47.5 19.5c18.667 0 34.667 -6.33301 48 -19s20 -28.334 20 -47.001c0 -17.333 -6.66699 -32.5 -20 -45.5s-29.333 -19.5 -48 -19.5
c-18 0 -33.833 6.5 -47.5 19.5s-20.5 28.167 -20.5 45.5z" />
    <glyph glyph-name="alphatonos" unicode="&#x3ac;" horiz-adv-x="644" 
d="M596 86l29.001 1.99902v-88c-21.333 -5.33301 -42.333 -8 -63 -8c-58 0 -95 26.333 -111 79c-36.667 -54.667 -93.334 -82 -170.001 -82c-68.667 0 -125.167 24.333 -169.5 73s-66.5 109.667 -66.5 183s22.333 134.5 67 183.5s101 73.5 169 73.5
c78 0 135.667 -29.667 173 -89l5 78h98c-6.66699 -95.333 -10 -172.666 -10 -231.999v-107c0 -44 16.333 -66 49 -66zM443.001 244.999c0 50 -14 89.333 -42 118s-62.333 43 -103 43c-42 0 -77 -15 -105 -45c-27.333 -30.667 -41 -69 -41 -115
c0 -46.667 13.833 -85.167 41.5 -115.5s62.5 -45.5 104.5 -45.5c40.667 0 75 14.167 103 42.5s42 67.5 42 117.5zM240.001 567.999l33 212h126v-19l-80 -193h-79z" />
    <glyph glyph-name="epsilontonos" unicode="&#x3ad;" horiz-adv-x="511" 
d="M407 145l64 -62.999c-46 -62 -117.667 -93 -215 -93c-68 0 -120 12.167 -156 36.5s-54 59.166 -54 104.499c0 28.667 7.83301 53.5 23.5 74.5s37.834 36.167 66.501 45.5c-46 25.333 -69 62.333 -69 111c0 44 17.167 78.5 51.5 103.5s82.166 37.5 143.499 37.5
c91.333 0 159 -28.333 203 -85l-64 -63c-32.667 36.667 -78 55 -136 55c-61.333 0 -92 -21 -92 -63c0 -38 25.667 -57 77 -57h96v-84h-97c-34 0 -58.833 -4.66699 -74.5 -14s-23.5 -24 -23.5 -44c0 -23.333 8 -40 24 -50s43 -15 81 -15c66 0 116.333 21 151 63zM206 568.001
l33 212h126v-19l-80 -193h-79z" />
    <glyph glyph-name="etatonos" unicode="&#x3ae;" horiz-adv-x="597" 
d="M526 307l-0.00195312 -487.003h-105v472c0 34.667 -9.83301 62.334 -29.5 83.001s-45.5 31 -77.5 31c-32.667 0 -59.5 -10.667 -80.5 -32s-31.5 -48.666 -31.5 -81.999v-292h-104v339c0 43.333 -16.667 65 -50 65l-29 -1v88c20 5.33301 41 8 63 8
c52 0 86.333 -20 103 -60c38.667 42 90.334 63 155.001 63c56.667 0 101.834 -17.667 135.501 -53s50.5 -82.666 50.5 -141.999zM258.998 567.997l33 212h126v-19l-80 -193h-79z" />
    <glyph glyph-name="iotatonos" unicode="&#x3af;" horiz-adv-x="318" 
d="M73 154v337h106v-322c0 -30 5.66699 -51.667 17 -65s30 -20 56 -20c10.667 0 30 1.66699 58 5v-89c-30.667 -7.33301 -58 -11 -82 -11c-103.333 0 -155 55 -155 165zM72 568l33 212h126v-19l-80 -193h-79z" />
    <glyph glyph-name="upsilondieresistonos" unicode="&#x3b0;" horiz-adv-x="578" 
d="M71 210v281h105v-289c0 -34.667 10.5 -63 31.5 -85s48.167 -33 81.5 -33s60.5 11 81.5 33s31.5 50.333 31.5 85v289h105v-281c0 -66 -20 -119.333 -60 -160s-92.667 -61 -158 -61s-118 20.333 -158 61s-60 94 -60 160zM220 568l40 212h123v-19l-87 -193h-76zM57 674
c0 18 6.66699 33.501 20 46.501s29 19.5 47 19.5c18.667 0 34.667 -6.33301 48 -19s20 -28.334 20 -47.001c0 -17.333 -6.66699 -32.5 -20 -45.5s-29.333 -19.5 -48 -19.5c-17.333 0 -32.833 6.5 -46.5 19.5s-20.5 28.167 -20.5 45.5zM398 674.001
c0 18 6.66699 33.501 20 46.501s29 19.5 47 19.5c18.667 0 34.5 -6.33301 47.5 -19s19.5 -28.334 19.5 -47.001c0 -17.333 -6.5 -32.5 -19.5 -45.5s-28.833 -19.5 -47.5 -19.5c-17.333 0 -32.833 6.5 -46.5 19.5s-20.5 28.167 -20.5 45.5z" />
    <glyph glyph-name="alpha" unicode="&#x3b1;" horiz-adv-x="644" 
d="M596 86l29.001 1.99902v-88c-21.333 -5.33301 -42.333 -8 -63 -8c-58 0 -95 26.333 -111 79c-36.667 -54.667 -93.334 -82 -170.001 -82c-68.667 0 -125.167 24.333 -169.5 73s-66.5 109.667 -66.5 183s22.333 134.5 67 183.5s101 73.5 169 73.5
c78 0 135.667 -29.667 173 -89l5 78h98c-6.66699 -95.333 -10 -172.666 -10 -231.999v-107c0 -44 16.333 -66 49 -66zM443.001 244.999c0 50 -14 89.333 -42 118s-62.333 43 -103 43c-42 0 -77 -15 -105 -45c-27.333 -30.667 -41 -69 -41 -115
c0 -46.667 13.833 -85.167 41.5 -115.5s62.5 -45.5 104.5 -45.5c40.667 0 75 14.167 103 42.5s42 67.5 42 117.5z" />
    <glyph glyph-name="beta" unicode="&#x3b2;" horiz-adv-x="616" 
d="M571 219c0 -66.667 -22.3359 -121.666 -67.0029 -164.999s-101 -65 -169 -65c-59.333 0 -110.666 17.667 -153.999 53v-222h-105v723c0 64.667 21.333 117.5 64 158.5s97.334 61.5 164.001 61.5c61.333 0 112 -18 152 -54s60 -81 60 -135
c0 -68.667 -27.667 -119.334 -83 -152.001c42.667 -15.333 76.334 -41 101.001 -77s37 -78 37 -126zM463.997 222.001c0 42 -13.333 75.833 -40 101.5s-61.667 38.5 -105 38.5h-60v90h42c32 0 57.5 9.83301 76.5 29.5s28.5 46.5 28.5 80.5
c0 30.667 -9.83301 55.667 -29.5 75s-45.167 29 -76.5 29c-35.333 0 -64 -11.667 -86 -35s-33 -54 -33 -92v-394c39.333 -39.333 86.333 -59 141 -59c42.667 0 77 12.5 103 37.5s39 57.833 39 98.5z" />
    <glyph glyph-name="gamma" unicode="&#x3b3;" 
d="M541 491l-208 -507v-164h-105v164l-209 507h112l149 -382l149 382h112z" />
    <glyph glyph-name="delta" unicode="&#x3b4;" horiz-adv-x="600" 
d="M555 242c0 -70.667 -24.833 -130.499 -74.5 -179.499s-110.167 -73.5 -181.5 -73.5s-131.5 24 -180.5 72s-73.5 107.333 -73.5 178c0 67.333 22.667 124.666 68 171.999s102 72.333 170 75l-228 235v29h468v-97h-265l186 -191c40 -42 68.5 -79.833 85.5 -113.5
s25.5 -69.167 25.5 -106.5zM447 238.001c0 46 -13.999 83.332 -41.999 111.999c-28 29.333 -63.667 44 -107 44c-42.667 0 -77.667 -14.667 -105 -44s-41 -66.333 -41 -111c0 -45.333 13.667 -82.166 41 -110.499s63 -42.5 107 -42.5c43.333 0 78.666 14.167 105.999 42.5
s41 64.833 41 109.5z" />
    <glyph glyph-name="epsilon" unicode="&#x3b5;" horiz-adv-x="511" 
d="M407 145l64 -62.999c-46 -62 -117.667 -93 -215 -93c-68 0 -120 12.167 -156 36.5s-54 59.166 -54 104.499c0 28.667 7.83301 53.5 23.5 74.5s37.834 36.167 66.501 45.5c-46 25.333 -69 62.333 -69 111c0 44 17.167 78.5 51.5 103.5s82.166 37.5 143.499 37.5
c91.333 0 159 -28.333 203 -85l-64 -63c-32.667 36.667 -78 55 -136 55c-61.333 0 -92 -21 -92 -63c0 -38 25.667 -57 77 -57h96v-84h-97c-34 0 -58.833 -4.66699 -74.5 -14s-23.5 -24 -23.5 -44c0 -23.333 8 -40 24 -50s43 -15 81 -15c66 0 116.333 21 151 63z" />
    <glyph glyph-name="zeta" unicode="&#x3b6;" horiz-adv-x="464" 
d="M469 721l-211 -304.996c-41.333 -58.667 -69.333 -102 -84 -130c-15.333 -28.667 -23 -54.334 -23 -77.001c0 -31.333 9.66699 -56 29 -74s51 -32.333 95 -43l43 -10c42 -10 74.333 -28.333 97 -55s34 -59.334 34 -98.001c0 -38 -9.33301 -74.333 -28 -109h-104
c16.667 30.667 25 59.334 25 86.001c0 25.333 -6.83301 45.166 -20.5 59.499s-35.5 25.166 -65.5 32.499l-45 11c-54 13.333 -95.167 36.166 -123.5 68.499s-42.5 72.5 -42.5 120.5c0 34 9.33301 68.667 28 104c17.333 34 52.333 89.667 105 167l128 184h-252v97h415v-29z
" />
    <glyph glyph-name="eta" unicode="&#x3b7;" horiz-adv-x="597" 
d="M526 307l-0.00195312 -487.003h-105v472c0 34.667 -9.83301 62.334 -29.5 83.001s-45.5 31 -77.5 31c-32.667 0 -59.5 -10.667 -80.5 -32s-31.5 -48.666 -31.5 -81.999v-292h-104v339c0 43.333 -16.667 65 -50 65l-29 -1v88c20 5.33301 41 8 63 8
c52 0 86.333 -20 103 -60c38.667 42 90.334 63 155.001 63c56.667 0 101.834 -17.667 135.501 -53s50.5 -82.666 50.5 -141.999z" />
    <glyph glyph-name="theta" unicode="&#x3b8;" horiz-adv-x="629" 
d="M580 377c0 -124 -23.333 -219.667 -70 -287s-112 -101 -196 -101s-149.167 33.5 -195.5 100.5s-69.5 162.833 -69.5 287.5c0 123.333 23.167 218.166 69.5 284.499s111.5 99.5 195.5 99.5c84.667 0 150.167 -33.167 196.5 -99.5s69.5 -161.166 69.5 -284.499zM157 424
l314.002 -0.000976562c-8.66699 160 -61 240 -157 240c-46.667 0 -83.334 -20.167 -110.001 -60.5s-42.334 -100.166 -47.001 -179.499zM471.002 328.999h-314.002c4.66699 -80.667 20.334 -141.5 47.001 -182.5s63.334 -61.5 110.001 -61.5c96 0 148.333 81.333 157 244z
" />
    <glyph glyph-name="iota" unicode="&#x3b9;" horiz-adv-x="318" 
d="M73 154v337h106v-322c0 -30 5.66699 -51.667 17 -65s30 -20 56 -20c10.667 0 30 1.66699 58 5v-89c-30.667 -7.33301 -58 -11 -82 -11c-103.333 0 -155 55 -155 165z" />
    <glyph glyph-name="kappa" unicode="&#x3ba;" horiz-adv-x="534" 
d="M76 0v491h105v-491h-105zM313 263l212 -263h-125l-215 263l200 228h129z" />
    <glyph glyph-name="lambda" unicode="&#x3bb;" 
d="M527 88l22.999 -0.000976562v-88c-18 -5.33301 -34.333 -8 -49 -8c-28.667 0 -51.667 7.33301 -69 22s-32 39.334 -44 74.001l-106 290l-163 -378h-112l224 501l-29 85c-9.33301 28.667 -21 49.167 -35 61.5s-33 18.5 -57 18.5c-12 0 -28.667 -1 -50 -3v89
c18 6 41 9 69 9c40.667 0 74 -11.167 100 -33.5s48 -57.5 66 -105.5l182 -488c10.667 -30.667 27.334 -46 50.001 -46z" />
    <glyph glyph-name="uni03BC" unicode="&#x3bc;" horiz-adv-x="602" 
d="M555 86l28 2v-88c-20 -5.33301 -40.667 -8 -62 -8c-48 0 -81.333 18.333 -100 55c-30 -38.667 -71 -58 -123 -58c-49.333 0 -88.333 17.333 -117 52v-221h-105v671h105v-288c0 -34.667 10.167 -63 30.5 -85s46.5 -33 78.5 -33c32.667 0 59.167 11 79.5 33
s30.5 50.333 30.5 85v288h105v-337c0 -45.333 16.667 -68 50 -68z" />
    <glyph glyph-name="nu" unicode="&#x3bd;" horiz-adv-x="549" 
d="M418 491h112l-237 -502h-36l-238 502h112l144 -325z" />
    <glyph glyph-name="xi" unicode="&#x3be;" horiz-adv-x="479" 
d="M457 -71c0 -36 -8.66699 -72.3359 -26 -109.003h-103c15.333 32 23 60.333 23 85c0 26.667 -6.33301 47 -19 61s-34 23.333 -64 28l-38 7c-56 10.667 -99.667 33.667 -131 69s-47 79 -47 131c0 42.667 10.333 80.334 31 113.001s49.667 57.334 87 74.001
c-59.333 29.333 -89 75.333 -89 138c0 51.333 20.667 93.666 62 126.999h-85v97h398v-97h-152c-36 0 -64.667 -10.667 -86 -32s-32 -47.666 -32 -78.999s10 -57.666 30 -78.999s46.333 -32 79 -32h119v-92h-121c-40.667 0 -73 -11.167 -97 -33.5s-36 -52.5 -36 -90.5
c0 -34 10.667 -61.333 32 -82s55 -36 101 -46l36 -8c85.333 -19.333 128 -69.333 128 -150z" />
    <glyph glyph-name="omicron" unicode="&#x3bf;" horiz-adv-x="609" 
d="M45 246c-1.33301 70 23.834 130.498 75.501 181.498s112.834 75.833 183.501 74.5c71.333 1.33301 133 -23.667 185 -75s77.333 -111.666 76 -180.999c1.33301 -70 -24 -130.667 -76 -182s-113.667 -76.333 -185 -75c-70.667 -1.33301 -131.834 23.834 -183.501 75.501
s-76.834 112.167 -75.501 181.5zM457 244.998c0 45.333 -14.667 83.498 -44 114.498s-65.333 46.5 -108 46.5c-43.333 0 -79.666 -15.5 -108.999 -46.5s-44 -69.167 -44 -114.5s14.5 -83.166 43.5 -113.499s65.167 -45.5 108.5 -45.5s79.666 15.333 108.999 46
s44 68.334 44 113.001z" />
    <glyph glyph-name="pi" unicode="&#x3c0;" horiz-adv-x="592" 
d="M91 0v393h-74v98h559v-98h-74v-393h-105v393h-201v-393h-105z" />
    <glyph glyph-name="rho" unicode="&#x3c1;" horiz-adv-x="619" 
d="M575 245c0 -73.333 -22.6689 -134.333 -68.002 -183s-102 -73 -170 -73c-69.333 0 -123.333 23.667 -162 71v-240h-104v422c0 77.333 22.833 140 68.5 188s105.834 72 180.501 72s135.834 -24 183.501 -72s71.5 -109.667 71.5 -185zM466.998 245
c0 46.667 -14.001 85 -42.001 115c-28 30.667 -63.667 46 -107 46s-78.166 -14.667 -104.499 -44s-39.5 -68.333 -39.5 -117c0 -47.333 13.333 -85.833 40 -115.5s61.667 -44.5 105 -44.5c42 0 77.167 15.333 105.5 46s42.5 68.667 42.5 114z" />
    <glyph glyph-name="uni03C2" unicode="&#x3c2;" horiz-adv-x="529" 
d="M358 -95c0 24.667 -5.83105 43.667 -17.498 57s-31.834 24.333 -60.501 33l-47 13c-125.333 37.333 -188 116.333 -188 237c0 75.333 23.167 137 69.5 185s106.166 72 179.499 72c94.667 0 165.334 -38.667 212.001 -116l-74 -58c-37.333 51.333 -82.333 77 -135 77
c-42 0 -76.667 -14.667 -104 -44s-41 -66.333 -41 -111c0 -40.667 11.167 -73.667 33.5 -99s57.166 -44.666 104.499 -57.999l53 -15c81.333 -21.333 122 -71 122 -149c0 -34 -8.66699 -70.333 -26 -109h-104c15.333 29.333 23 57.666 23 84.999z" />
    <glyph glyph-name="sigma" unicode="&#x3c3;" horiz-adv-x="640" 
d="M623 491l0.000976562 -97.998h-132c44 -44 66 -96.333 66 -157c1.33301 -68.667 -23.334 -127.334 -74.001 -176.001s-111.667 -72.334 -183 -71.001c-72 0 -132.5 24.333 -181.5 73s-73.5 109 -73.5 181c0 72.667 24.5 132.167 73.5 178.5s111.5 69.5 187.5 69.5h317z
M449.001 245.002c0 44.667 -14 81.334 -42 110.001c-26.667 28.667 -62 43 -106 43c-43.333 0 -79 -14.333 -107 -43s-42 -65.667 -42 -111s14 -83 42 -113s63.333 -45 106 -45c42 0 77.333 15.167 106 45.5s43 68.166 43 113.499z" />
    <glyph glyph-name="tau" unicode="&#x3c4;" horiz-adv-x="488" 
d="M457 393l-180.999 0.000976562v-224c0 -29.333 7.66699 -50.833 23 -64.5s39.666 -20.5 72.999 -20.5c12 0 34 1.66699 66 5v-89c-33.333 -7.33301 -62.333 -11 -87 -11c-58 0 -102.5 14.667 -133.5 44s-46.5 71.666 -46.5 126.999v233h-156v98h442v-98z" />
    <glyph glyph-name="upsilon" unicode="&#x3c5;" horiz-adv-x="578" 
d="M71 210v281h105v-289c0 -34.667 10.5 -63 31.5 -85s48.167 -33 81.5 -33s60.5 11 81.5 33s31.5 50.333 31.5 85v289h105v-281c0 -66 -20 -119.333 -60 -160s-92.667 -61 -158 -61s-118 20.333 -158 61s-60 94 -60 160z" />
    <glyph glyph-name="phi" unicode="&#x3c6;" horiz-adv-x="761" 
d="M433 -10v-170h-106v170c-82 4 -149.5 29.333 -202.5 76s-79.5 106.667 -79.5 180c0 72.667 26.5 132.167 79.5 178.5s120.5 71.5 202.5 75.5v160h106v-160c82.667 -4 150.5 -29 203.5 -75s79.5 -105.667 79.5 -179s-26.667 -133.333 -80 -180s-121 -72 -203 -76zM330 80
l0.000976562 330.001c-52.667 -2.66699 -96.334 -19 -131.001 -49c-34 -28.667 -51 -67.667 -51 -117c0 -48.667 16.5 -87.334 49.5 -116.001s77.167 -44.667 132.5 -48zM613.001 244.001c0 48.667 -16.667 87.667 -50 117s-77.666 45.666 -132.999 48.999v-330
c55.333 3.33301 99.666 19.333 132.999 48s50 67.334 50 116.001z" />
    <glyph glyph-name="chi" unicode="&#x3c7;" horiz-adv-x="511" 
d="M509 -92l-0.00195312 -88.001c-18 -5.33301 -37.333 -8 -58 -8c-51.333 0 -90.666 29 -117.999 87l-81 169l-119 -248h-117l177 347l-92 193c-8 15.333 -16.333 26.333 -25 33s-20.667 10 -36 10h-34v88c14.667 4.66699 35 7 61 7c28.667 0 51.667 -6.66699 69 -20
s33.333 -35.666 48 -66.999l70 -151l113 231h116l-172 -331l104 -209c8.66699 -17.333 17.334 -29 26.001 -35s21 -9 37 -9c16.667 0 27 0.333008 31 1z" />
    <glyph glyph-name="psi" unicode="&#x3c8;" horiz-adv-x="766" 
d="M330 -180v169c-76 0 -138.167 23.833 -186.5 71.5s-72.5 109.5 -72.5 185.5v245h104v-236c0 -48 15 -88.5 45 -121.5s66.667 -49.5 110 -49.5v576h106v-576c43.333 0 80 16.5 110 49.5s45 73.5 45 121.5v236h105v-245c0 -76 -24.167 -137.833 -72.5 -185.5
s-110.833 -71.5 -187.5 -71.5v-169h-106z" />
    <glyph glyph-name="omega" unicode="&#x3c9;" horiz-adv-x="792" 
d="M747 237c0 -75.333 -18.8311 -135.5 -56.498 -180.5s-88.167 -67.5 -151.5 -67.5c-64.667 0 -112.334 24 -143.001 72c-29.333 -48 -77.333 -72 -144 -72c-62.667 0 -112.834 22.5 -150.501 67.5s-56.5 105.167 -56.5 180.5c0 65.333 15 120.666 45 165.999
s72.667 76.666 128 93.999l36 -91c-68.667 -34 -103 -91 -103 -171c0 -46 9.5 -82.5 28.5 -109.5s44.833 -40.5 77.5 -40.5c28 0 49.833 9.66699 65.5 29s23.5 45.666 23.5 78.999v140h100v-140c0 -33.333 7.83301 -59.666 23.5 -78.999s37.5 -29 65.5 -29
c32.667 0 58.5 13.333 77.5 40s28.5 63 28.5 109c0 82 -34 139.333 -102 172l35 91c55.333 -17.333 98 -48.666 128 -93.999s45 -100.666 45 -165.999z" />
    <glyph glyph-name="iotadieresis" unicode="&#x3ca;" horiz-adv-x="318" 
d="M73 154v337h106v-322c0 -30 5.66699 -51.667 17 -65s30 -20 56 -20c10.667 0 30 1.66699 58 5v-89c-30.667 -7.33301 -58 -11 -82 -11c-103.333 0 -155 55 -155 165zM-42 674c0 18 6.66699 33.501 20 46.501s29 19.5 47 19.5c19.333 0 35.5 -6.33301 48.5 -19
s19.5 -28.334 19.5 -47.001c0 -17.333 -6.66699 -32.5 -20 -45.5s-29.333 -19.5 -48 -19.5c-17.333 0 -32.833 6.5 -46.5 19.5s-20.5 28.167 -20.5 45.5zM158 674.001c0 18 6.83301 33.501 20.5 46.501s29.5 19.5 47.5 19.5c18.667 0 34.667 -6.33301 48 -19
s20 -28.334 20 -47.001c0 -17.333 -6.66699 -32.5 -20 -45.5s-29.333 -19.5 -48 -19.5c-18 0 -33.833 6.5 -47.5 19.5s-20.5 28.167 -20.5 45.5z" />
    <glyph glyph-name="upsilondieresis" unicode="&#x3cb;" horiz-adv-x="578" 
d="M71 210v281h105v-289c0 -34.667 10.5 -63 31.5 -85s48.167 -33 81.5 -33s60.5 11 81.5 33s31.5 50.333 31.5 85v289h105v-281c0 -66 -20 -119.333 -60 -160s-92.667 -61 -158 -61s-118 20.333 -158 61s-60 94 -60 160zM103 674c0 18 6.83301 33.501 20.5 46.501
s29.834 19.5 48.501 19.5s34.5 -6.33301 47.5 -19s19.5 -28.334 19.5 -47.001c0 -17.333 -6.5 -32.5 -19.5 -45.5s-28.833 -19.5 -47.5 -19.5s-34.834 6.5 -48.501 19.5s-20.5 28.167 -20.5 45.5zM328 674.001c0 18 6.83301 33.5 20.5 46.5s29.834 19.5 48.501 19.5
c18 0 33.667 -6.5 47 -19.5s20 -28.5 20 -46.5c0 -17.333 -6.66699 -32.5 -20 -45.5s-29 -19.5 -47 -19.5c-18.667 0 -34.834 6.5 -48.501 19.5s-20.5 28.167 -20.5 45.5z" />
    <glyph glyph-name="omicrontonos" unicode="&#x3cc;" horiz-adv-x="609" 
d="M45 246c-1.33301 70 23.834 130.498 75.501 181.498s112.834 75.833 183.501 74.5c71.333 1.33301 133 -23.667 185 -75s77.333 -111.666 76 -180.999c1.33301 -70 -24 -130.667 -76 -182s-113.667 -76.333 -185 -75c-70.667 -1.33301 -131.834 23.834 -183.501 75.501
s-76.834 112.167 -75.501 181.5zM457 244.998c0 45.333 -14.667 83.498 -44 114.498s-65.333 46.5 -108 46.5c-43.333 0 -79.666 -15.5 -108.999 -46.5s-44 -69.167 -44 -114.5s14.5 -83.166 43.5 -113.499s65.167 -45.5 108.5 -45.5s79.666 15.333 108.999 46
s44 68.334 44 113.001zM250 567.996l33 212h126v-19l-80 -193h-79z" />
    <glyph glyph-name="upsilontonos" unicode="&#x3cd;" horiz-adv-x="578" 
d="M71 210v281h105v-289c0 -34.667 10.5 -63 31.5 -85s48.167 -33 81.5 -33s60.5 11 81.5 33s31.5 50.333 31.5 85v289h105v-281c0 -66 -20 -119.333 -60 -160s-92.667 -61 -158 -61s-118 20.333 -158 61s-60 94 -60 160zM229 568l33 212h126v-19l-80 -193h-79z" />
    <glyph glyph-name="omegatonos" unicode="&#x3ce;" horiz-adv-x="792" 
d="M747 237c0 -75.333 -18.8311 -135.5 -56.498 -180.5s-88.167 -67.5 -151.5 -67.5c-64.667 0 -112.334 24 -143.001 72c-29.333 -48 -77.333 -72 -144 -72c-62.667 0 -112.834 22.5 -150.501 67.5s-56.5 105.167 -56.5 180.5c0 65.333 15 120.666 45 165.999
s72.667 76.666 128 93.999l36 -91c-68.667 -34 -103 -91 -103 -171c0 -46 9.5 -82.5 28.5 -109.5s44.833 -40.5 77.5 -40.5c28 0 49.833 9.66699 65.5 29s23.5 45.666 23.5 78.999v140h100v-140c0 -33.333 7.83301 -59.666 23.5 -78.999s37.5 -29 65.5 -29
c32.667 0 58.5 13.333 77.5 40s28.5 63 28.5 109c0 82 -34 139.333 -102 172l35 91c55.333 -17.333 98 -48.666 128 -93.999s45 -100.666 45 -165.999zM342.002 568l33 212h126v-19l-80 -193h-79z" />
    <glyph glyph-name="uni0400" unicode="&#x400;" horiz-adv-x="569" 
d="M83 0v660h434v-95h-328v-169h247v-92h-247v-209h340v-95h-446zM261 724l-129 167v19h128l79 -186h-78z" />
    <glyph glyph-name="uni0401" unicode="&#x401;" horiz-adv-x="569" 
d="M83 0v660h434v-95h-328v-169h247v-92h-247v-209h340v-95h-446zM108 812c0 18 6.83301 33.333 20.5 46s29.5 19 47.5 19c19.333 0 35.5 -6.16699 48.5 -18.5s19.5 -27.833 19.5 -46.5c0 -17.333 -6.66699 -32.5 -20 -45.5s-29.333 -19.5 -48 -19.5
c-18 0 -33.833 6.5 -47.5 19.5s-20.5 28.167 -20.5 45.5zM353 811c0 18 6.83301 33.501 20.5 46.501s29.5 19.5 47.5 19.5c18.667 0 34.667 -6.33301 48 -19s20 -28.334 20 -47.001c0 -17.333 -6.66699 -32.5 -20 -45.5s-29.333 -19.5 -48 -19.5
c-18 0 -33.833 6.5 -47.5 19.5s-20.5 28.167 -20.5 45.5z" />
    <glyph glyph-name="uni0402" unicode="&#x402;" horiz-adv-x="741" 
d="M472 -14l-19.998 93.998c90.667 12.667 136 52.334 136 119.001c0 34.667 -11.667 61.334 -35 80.001s-55.333 28 -96 28c-48.667 0 -94.334 -8 -137.001 -24v-283h-106v565h-198v95h536v-95h-232v-188c42 16 89.333 24 142 24c69.333 0 125.666 -17.667 168.999 -53
c44 -34.667 66 -84 66 -148c0 -66 -21.333 -116.333 -64 -151c-42 -34.667 -95.667 -55.667 -161 -63z" />
    <glyph glyph-name="uni0403" unicode="&#x403;" horiz-adv-x="515" 
d="M83 0v660h408v-95h-302v-565h-106zM231 724l79 186h128v-19l-129 -167h-78z" />
    <glyph glyph-name="uni0404" unicode="&#x404;" horiz-adv-x="717" 
d="M593 200l80.0029 -59c-28.667 -47.333 -67.834 -84.5 -117.501 -111.5s-104.834 -40.5 -165.501 -40.5c-94.667 -1.33301 -176.667 31.667 -246 99s-103 148 -101 242c-2 94 31.667 174.667 101 242s151.333 100.333 246 99c60 0 115 -13.667 165 -41
s89.333 -64.333 118 -111l-80 -59c-48.667 76 -116 114 -202 114c-59.333 0 -110.333 -18 -153 -54c-42 -34 -68.667 -80.333 -80 -139h298v-92h-300c9.33301 -59.333 35.666 -108 78.999 -146s95.333 -57 156 -57c86 0 153.333 38 202 114z" />
    <glyph glyph-name="uni0405" unicode="&#x405;" horiz-adv-x="559" 
d="M36 132l74.998 57.002c48 -70 105.667 -105 173 -105c34 0 61.5 8.33301 82.5 25s31.5 39 31.5 67c0 22.667 -7 40.5 -21 53.5s-39.333 28.167 -76 45.5l-73 34c-51.333 23.333 -89.833 49.166 -115.5 77.499s-38.5 63.5 -38.5 105.5c0 52.667 20 95.667 60 129
s89.333 50 148 50c46 0 87.833 -10.667 125.5 -32s66.834 -50 87.501 -86l-74 -57c-36 53.333 -82.333 80 -139 80c-29.333 0 -53.333 -7 -72 -21s-28 -33.667 -28 -59c0.666992 -12 2.16699 -21.833 4.5 -29.5s8.5 -15.667 18.5 -24s17 -13.5 21 -15.5l39 -20
c4 -2 7 -3.66699 9 -5l74 -34c55.333 -25.333 95.5 -52.333 120.5 -81s37.5 -64.334 37.5 -107.001c0 -56.667 -20.833 -102.667 -62.5 -138s-94.5 -53 -158.5 -53c-53.333 0 -101.666 12.667 -144.999 38s-78 60.333 -104 105z" />
    <glyph glyph-name="uni0406" unicode="&#x406;" horiz-adv-x="272" 
d="M83 0v660h106v-660h-106z" />
    <glyph glyph-name="uni0407" unicode="&#x407;" horiz-adv-x="272" 
d="M83 0v660h106v-660h-106zM-55 812c0 18 6.83301 33.333 20.5 46s29.5 19 47.5 19c19.333 0 35.5 -6.16699 48.5 -18.5s19.5 -27.833 19.5 -46.5c0 -17.333 -6.66699 -32.5 -20 -45.5s-29.333 -19.5 -48 -19.5c-18 0 -33.833 6.5 -47.5 19.5s-20.5 28.167 -20.5 45.5z
M190 811c0 18 6.83301 33.501 20.5 46.501s29.5 19.5 47.5 19.5c18.667 0 34.667 -6.33301 48 -19s20 -28.334 20 -47.001c0 -17.333 -6.66699 -32.5 -20 -45.5s-29.333 -19.5 -48 -19.5c-18 0 -33.833 6.5 -47.5 19.5s-20.5 28.167 -20.5 45.5z" />
    <glyph glyph-name="uni0408" unicode="&#x408;" horiz-adv-x="381" 
d="M21 0l-0.00195312 91c33.333 -3.33301 56 -5 68 -5c35.333 0 61.333 6.66699 78 20s25 36.333 25 69v485h106v-496c0 -57.333 -16.167 -100.833 -48.5 -130.5s-78.166 -44.5 -137.499 -44.5c-27.333 0 -57.666 3.66699 -90.999 11z" />
    <glyph glyph-name="uni0409" unicode="&#x409;" horiz-adv-x="968" 
d="M923 208c0 -61.333 -21.167 -111.332 -63.5 -149.999s-97.833 -58 -166.5 -58h-239v565h-198c-4 -147.333 -13.333 -261.833 -28 -343.5s-36 -139.834 -64 -174.501s-66.667 -53 -116 -55c-19.333 0 -35.333 2.66699 -48 8v91c4 -1.33301 13.333 -2 28 -2
c44 0 75.333 36.833 94 110.5s29.667 191.167 33 352.5l1 108h404v-244h133c68.667 0 124.167 -19.333 166.5 -58s63.5 -88.667 63.5 -150zM814 208.001c0 34.667 -10.833 62.332 -32.5 82.999s-51.5 31 -89.5 31h-132v-228h132c38 0 67.833 10.333 89.5 31
s32.5 48.334 32.5 83.001z" />
    <glyph glyph-name="uni040A" unicode="&#x40a;" horiz-adv-x="978" 
d="M83 0v660h106v-248h275v248h106v-248h133c68.667 0 124.167 -19.167 166.5 -57.5s63.5 -87.833 63.5 -148.5c0 -61.333 -21.167 -111 -63.5 -149s-97.833 -57 -166.5 -57h-239v316h-275v-316h-106zM570 94l132 0.000976562c38 0 67.833 10.167 89.5 30.5
s32.5 47.166 32.5 80.499c0 34 -10.833 61.333 -32.5 82s-51.5 31 -89.5 31h-132v-224z" />
    <glyph glyph-name="uni040B" unicode="&#x40b;" horiz-adv-x="775" 
d="M704 148v-148.001h-106v139c0 52.667 -13 93.334 -39 122.001s-61.667 43 -107 43c-48 0 -92 -7.66699 -132 -23v-281h-106v565h-198v95h536v-95h-232v-188c44.667 16 91 24 139 24c74 0 133.333 -22.167 178 -66.5s67 -106.5 67 -186.5z" />
    <glyph glyph-name="uni040C" unicode="&#x40c;" horiz-adv-x="651" 
d="M83 0v660h106v-660h-106zM325 351l304 -351h-131l-306 351l277 309h130zM285 724l79 186h128v-19l-129 -167h-78z" />
    <glyph glyph-name="uni040D" unicode="&#x40d;" horiz-adv-x="718" 
d="M598 671h37v-671h-106v461l-409 -472h-37v671h106v-460zM330 724l-129 167v19h128l79 -186h-78z" />
    <glyph glyph-name="uni040E" unicode="&#x40e;" horiz-adv-x="655" 
d="M522 660h111l-232 -499c-30 -64 -58.333 -108.333 -85 -133s-65.667 -37.667 -117 -39c-18.667 0 -40 3.66699 -64 11v91c14 -2.66699 31.333 -4 52 -4c42 0 74.333 18.667 97 56l-255 517h119l194 -398zM182 890v20h86v-23c0 -27.333 6.5 -48.833 19.5 -64.5
s31.5 -23.5 55.5 -23.5s42.667 7.66699 56 23s20 37 20 65v23h87v-20c0 -50 -15 -90.333 -45 -121s-69.333 -46 -118 -46c-48 0 -86.833 15.333 -116.5 46s-44.5 71 -44.5 121z" />
    <glyph glyph-name="uni040F" unicode="&#x40f;" horiz-adv-x="698" 
d="M615 660v-660h-214v-141h-104v141h-214v660h106v-565h320v565h106z" />
    <glyph glyph-name="uni0410" unicode="&#x410;" horiz-adv-x="662" 
d="M526 0l-47 110h-297l-47 -110h-113l291 671h36l291 -671h-114zM441 201l-110 273l-111 -273h221z" />
    <glyph glyph-name="uni0411" unicode="&#x411;" horiz-adv-x="591" 
d="M83 0v660h416v-95h-310v-169h142c66 0 119.5 -18.333 160.5 -55s61.5 -84 61.5 -142c0 -58.667 -20.5 -106.5 -61.5 -143.5s-94.5 -55.5 -160.5 -55.5h-248zM189 93h138c37.333 0 66.5 9.5 87.5 28.5s31.5 44.833 31.5 77.5s-10.5 58.5 -31.5 77.5
s-50.167 28.5 -87.5 28.5h-138v-212z" />
    <glyph glyph-name="uni0412" unicode="&#x412;" horiz-adv-x="618" 
d="M580 192c0 -56 -19.667 -102.001 -59 -138.001s-91 -54 -155 -54h-283v660h231c59.333 0 107.166 -16.5 143.499 -49.5s54.5 -75.167 54.5 -126.5s-18.333 -92.666 -55 -123.999c38.667 -12.667 68.834 -33.667 90.501 -63s32.5 -64.333 32.5 -105zM304 566.999h-116.999
v-178h117c32 0 57 8 75 24s27 38 27 66c0 27.333 -8.83301 48.833 -26.5 64.5s-42.834 23.5 -75.501 23.5zM473.001 194.999c0 32 -10.333 57.168 -31 75.501s-49 27.5 -85 27.5h-170v-205h170c36.667 0 65.167 9.16699 85.5 27.5s30.5 43.166 30.5 74.499z" />
    <glyph glyph-name="uni0413" unicode="&#x413;" horiz-adv-x="515" 
d="M83 0v660h408v-95h-302v-565h-106z" />
    <glyph glyph-name="uni0414" unicode="&#x414;" horiz-adv-x="697" 
d="M586 95h84v-236h-106v141h-445v-141h-106v236h52c62 55.333 93 212.333 93 471v94h428v-565zM181 95h299v470h-224c-1.33301 -235.333 -26.333 -392 -75 -470z" />
    <glyph glyph-name="uni0415" unicode="&#x415;" horiz-adv-x="569" 
d="M83 0v660h434v-95h-328v-169h247v-92h-247v-209h340v-95h-446z" />
    <glyph glyph-name="uni0416" unicode="&#x416;" horiz-adv-x="979" 
d="M46 660h131l256 -309l-280 -351h-131l286 351zM436 0v660h106v-660h-106zM671 351l286 -351h-131l-281 351l257 309h130z" />
    <glyph glyph-name="uni0417" unicode="&#x417;" horiz-adv-x="586" 
d="M543 193c0 -60 -22.833 -109 -68.5 -147s-104.167 -57 -175.5 -57c-56 0 -106.333 13.167 -151 39.5s-79.334 62.5 -104.001 108.5l75 55c46.667 -70.667 106.334 -106 179.001 -106c40 0 73 10.333 99 31s39 47.667 39 81c0 30.667 -11.167 55 -33.5 73
s-54.833 27 -97.5 27h-81v91h78c32 0 57 8.16699 75 24.5s27 38.166 27 65.499c0 29.333 -9.33301 52.5 -28 69.5s-45 25.5 -79 25.5c-62 0 -111.667 -29.667 -149 -89l-75 55c47.333 87.333 123 131 227 131c64 0 115.167 -16.667 153.5 -50s57.5 -78 57.5 -134
c0 -55.333 -24 -100 -72 -134c69.333 -33.333 104 -86.666 104 -159.999z" />
    <glyph glyph-name="uni0418" unicode="&#x418;" horiz-adv-x="718" 
d="M598 671h37v-671h-106v461l-409 -472h-37v671h106v-460z" />
    <glyph glyph-name="uni0419" unicode="&#x419;" horiz-adv-x="718" 
d="M598 671h37v-671h-106v461l-409 -472h-37v671h106v-460zM206 890v20h86v-23c0 -27.333 6.5 -48.833 19.5 -64.5s31.5 -23.5 55.5 -23.5s42.667 7.66699 56 23s20 37 20 65v23h87v-20c0 -50 -15 -90.333 -45 -121s-69.333 -46 -118 -46c-48 0 -86.833 15.333 -116.5 46
s-44.5 71 -44.5 121z" />
    <glyph glyph-name="uni041A" unicode="&#x41a;" horiz-adv-x="651" 
d="M83 0v660h106v-660h-106zM325 351l304 -351h-131l-306 351l277 309h130z" />
    <glyph glyph-name="uni041B" unicode="&#x41b;" horiz-adv-x="670" 
d="M156 660h431v-660h-106v565h-224c-4.66699 -148.667 -14.5 -263.834 -29.5 -345.501s-36.5 -139.667 -64.5 -174s-66.333 -52.166 -115 -53.499c-19.333 0 -35.333 2.66699 -48 8v91c4 -1.33301 13.333 -2 28 -2c44 0 75.333 36.833 94 110.5s29.667 191.167 33 352.5z
" />
    <glyph glyph-name="uni041C" unicode="&#x41c;" horiz-adv-x="793" 
d="M674 671h36v-671h-106v414l-189 -248h-36l-190 249v-415h-106v671h37l277 -369z" />
    <glyph glyph-name="uni041D" unicode="&#x41d;" horiz-adv-x="711" 
d="M83 0v660h106v-263h332v263h106v-660h-106v302h-332v-302h-106z" />
    <glyph glyph-name="uni041E" unicode="&#x41e;" horiz-adv-x="780" 
d="M43 330c-1.33301 94 32.332 174.667 100.999 242s150.334 100.333 245.001 99c94 1.33301 175.833 -31.667 245.5 -99s103.5 -148 101.5 -242c2 -94 -31.833 -174.667 -101.5 -242s-151.5 -100.333 -245.5 -99c-94.667 -1.33301 -176.5 31.667 -245.5 99
s-102.5 148 -100.5 242zM626.998 331c0 69.333 -22.668 127.167 -68.001 173.5s-101.666 69.5 -168.999 69.5c-68 0 -124.5 -23 -169.5 -69s-67.5 -104 -67.5 -174c0 -70.667 22.333 -129.167 67 -175.5s101.334 -69.5 170.001 -69.5c67.333 0 123.666 23.333 168.999 70
s68 105 68 175z" />
    <glyph glyph-name="uni041F" unicode="&#x41f;" horiz-adv-x="701" 
d="M83 0v660h534v-660h-106v565h-322v-565h-106z" />
    <glyph glyph-name="uni0420" unicode="&#x420;" horiz-adv-x="583" 
d="M83 0v660h241c66.667 0 120.667 -18.833 162 -56.5s62 -86.167 62 -145.5s-20.833 -108 -62.5 -146s-95.5 -57 -161.5 -57h-135v-255h-106zM189 349l133 0.000976562c36.667 0 65.334 9.66699 86.001 29s31 45.666 31 78.999s-10.333 59.833 -31 79.5
s-49.334 29.5 -86.001 29.5h-133v-217z" />
    <glyph glyph-name="uni0421" unicode="&#x421;" horiz-adv-x="717" 
d="M43 330c-2 94 31.6689 174.667 101.002 242s151.333 100.333 246 99c60 0 115 -13.667 165 -41s89.333 -64.333 118 -111l-80 -59c-48.667 76 -116 114 -202 114c-68 0 -124.667 -23.167 -170 -69.5s-68 -104.5 -68 -174.5s22.667 -128.167 68 -174.5
s102 -69.5 170 -69.5c86 0 153.333 38 202 114l80 -59c-28.667 -47.333 -67.834 -84.5 -117.501 -111.5s-104.834 -40.5 -165.501 -40.5c-94.667 -1.33301 -176.667 31.667 -246 99s-103 148 -101 242z" />
    <glyph glyph-name="uni0422" unicode="&#x422;" horiz-adv-x="583" 
d="M238 0v565h-222v95h551v-95h-223v-565h-106z" />
    <glyph glyph-name="uni0423" unicode="&#x423;" horiz-adv-x="655" 
d="M522 660h111l-232 -499c-30 -64 -58.333 -108.333 -85 -133s-65.667 -37.667 -117 -39c-18.667 0 -40 3.66699 -64 11v91c14 -2.66699 31.333 -4 52 -4c42 0 74.333 18.667 97 56l-255 517h119l194 -398z" />
    <glyph glyph-name="uni0424" unicode="&#x424;" horiz-adv-x="818" 
d="M461 61v-81h-106v81c-94 2 -170 27.5 -228 76.5s-87 114.833 -87 197.5c0 82 29 147.167 87 195.5s134 73.5 228 75.5v74h106v-74c94.667 -2 171.167 -27.167 229.5 -75.5s87.5 -113.833 87.5 -196.5c0 -82 -29.167 -147.5 -87.5 -196.5s-134.833 -74.5 -229.5 -76.5z
M672 334c0 56 -18.833 99.668 -56.5 131.001s-89.167 47.666 -154.5 48.999v-360c64.667 0.666992 116 17 154 49s57 75.667 57 131zM355 154.001v360c-64.667 -1.33301 -115.667 -18 -153 -50s-56 -76 -56 -132c0 -55.333 18.5 -98.5 55.5 -129.5
s88.167 -47.167 153.5 -48.5z" />
    <glyph glyph-name="uni0425" unicode="&#x425;" horiz-adv-x="607" 
d="M584 0h-121l-160 246l-159 -246h-122l223 337l-209 323h122l146 -233l144 233h121l-205 -323z" />
    <glyph glyph-name="uni0426" unicode="&#x426;" horiz-adv-x="725" 
d="M595 -141v141h-512v660h106v-565h320v565h106v-565h83v-236h-103z" />
    <glyph glyph-name="uni0427" unicode="&#x427;" horiz-adv-x="653" 
d="M464 660h106v-660h-106v255c-44 -17.333 -93.333 -26 -148 -26c-83.333 0 -147.833 21.833 -193.5 65.5s-68.5 107.167 -68.5 190.5v175h106v-166c0 -112.667 56 -169 168 -169c54.667 0 100 8.33301 136 25v310z" />
    <glyph glyph-name="uni0428" unicode="&#x428;" horiz-adv-x="976" 
d="M83 0v660h106v-565h246v565h106v-565h246v565h106v-660h-810z" />
    <glyph glyph-name="uni0429" unicode="&#x429;" horiz-adv-x="1004" 
d="M874 -141v141h-791v660h106v-565h246v565h106v-565h246v565h106v-565h84v-236h-103z" />
    <glyph glyph-name="uni042A" unicode="&#x42a;" horiz-adv-x="680" 
d="M166 0l0.000976562 565h-150v95h256v-244h133c68 0 123.5 -19.333 166.5 -58s64.5 -88.667 64.5 -150s-21.333 -111.333 -64 -150s-98.334 -58 -167.001 -58h-239zM272.001 94l133 -0.00195312c38 0 67.833 10.333 89.5 31s32.5 48.334 32.5 83.001
s-10.833 62.334 -32.5 83.001s-51.5 31 -89.5 31h-133v-228z" />
    <glyph glyph-name="uni042B" unicode="&#x42b;" horiz-adv-x="860" 
d="M83 0l0.000976562 660h106v-244h133c68 0 123.5 -19.333 166.5 -58s64.5 -88.667 64.5 -150s-21.333 -111.333 -64 -150s-98.334 -58 -167.001 -58h-239zM189.001 94l132 -0.00195312c38 0 68 10.333 90 31s33 48.334 33 83.001s-11 62.334 -33 83.001s-52 31 -90 31
h-132v-228zM670.001 -0.00195312v660h106v-660h-106z" />
    <glyph glyph-name="uni042C" unicode="&#x42c;" horiz-adv-x="597" 
d="M83 0l0.000976562 660h106v-244h133c68 0 123.5 -19.333 166.5 -58s64.5 -88.667 64.5 -150s-21.333 -111.333 -64 -150s-98.334 -58 -167.001 -58h-239zM189.001 94l132 -0.00195312c38 0 68 10.333 90 31s33 48.334 33 83.001s-11 62.334 -33 83.001s-52 31 -90 31
h-132v-228z" />
    <glyph glyph-name="uni042D" unicode="&#x42d;" horiz-adv-x="717" 
d="M674 330c2 -94 -31.666 -174.667 -100.999 -242s-151.333 -100.333 -246 -99c-60.667 0 -115.834 13.5 -165.501 40.5s-88.834 64.167 -117.501 111.5l80 59c50 -76 117.333 -114 202 -114c60.667 0 112.834 19 156.501 57s70.167 86.667 79.5 146h-286v92h284
c-11.333 58 -38.333 104.333 -81 139c-43.333 36 -94.333 54 -153 54c-84.667 0 -152 -38 -202 -114l-80 59c30 47.333 69.667 84.5 119 111.5s104 40.5 164 40.5c94.667 1.33301 176.667 -31.667 246 -99s103 -148 101 -242z" />
    <glyph glyph-name="uni042E" unicode="&#x42e;" horiz-adv-x="991" 
d="M947 330c1.33301 -94 -31.001 -174.669 -97.001 -242.002s-145 -100.333 -237 -99c-88 -1.33301 -163.833 28.334 -227.5 89.001s-97.834 135.334 -102.501 224.001h-94v-302h-106v660h106v-263h99c14 80 51.333 145.667 112 197s131.667 77 213 77
c92.667 1.33301 171.834 -31.5 237.501 -98.5s97.834 -147.833 96.501 -242.5zM837.999 330.998c0 70 -21.168 128 -63.501 174s-95.833 69 -160.5 69c-65.333 0 -119.166 -23 -161.499 -69s-63.5 -104 -63.5 -174c0 -70.667 21 -129.167 63 -175.5s96 -69.5 162 -69.5
c65.333 0 119 23.167 161 69.5s63 104.833 63 175.5z" />
    <glyph glyph-name="uni042F" unicode="&#x42f;" horiz-adv-x="626" 
d="M316 660h226.001v-660h-106v238h-109l-170 -238h-116l180 254c-44.667 16 -80 41.333 -106 76s-39 74.667 -39 120c0 62 22.167 112.5 66.5 151.5s102.166 58.5 173.499 58.5zM436.001 333l-0.00195312 232.999h-122c-39.333 0 -70.666 -10.667 -93.999 -32
s-35 -49.666 -35 -84.999s11.833 -63.5 35.5 -84.5s54.834 -31.5 93.501 -31.5h122z" />
    <glyph glyph-name="uni0430" unicode="&#x430;" horiz-adv-x="536" 
d="M466 297l-0.000976562 -297h-98v55c-36.667 -44 -89 -66 -157 -66c-51.333 0 -92.666 13 -123.999 39s-47 60.333 -47 103s16.333 76.667 49 102s76.667 38 132 38h139v32c0 34 -9.16699 60 -27.5 78s-44.166 27 -77.499 27c-50 0 -95.333 -24.333 -136 -73l-61 62
c48 70 117 105 207 105c61.333 0 110.166 -18 146.499 -54s54.5 -86.333 54.5 -151zM359.999 186v9h-126c-58 0 -87 -20 -87 -60c0 -20 7.83301 -35.833 23.5 -47.5s36.5 -17.5 62.5 -17.5c36 0 66.167 11 90.5 33s36.5 49.667 36.5 83z" />
    <glyph glyph-name="uni0431" unicode="&#x431;" horiz-adv-x="616" 
d="M572 237c0 -69.333 -24.8311 -127.834 -74.498 -175.501s-110.834 -71.5 -183.501 -71.5c-77.333 0 -139.833 26.167 -187.5 78.5s-71.5 120.833 -71.5 205.5v79c0 76 8.33301 138 25 186c34 102.667 131.667 165.667 293 189c76.667 10.667 128.667 21.667 156 33v-98
c-30.667 -12.667 -81 -23 -151 -31c-48.667 -7.33301 -87.667 -16.833 -117 -28.5s-51.833 -28 -67.5 -49s-26 -43.333 -31 -67s-7.83301 -55.167 -8.5 -94.5c42.667 60.667 102.667 91 180 91c65.333 1.33301 121.666 -22.667 168.999 -72s70.333 -107.666 69 -174.999z
M464.002 236.999c0 41.333 -14.667 76.666 -44 105.999s-65 44 -107 44c-41.333 0 -76.666 -14.667 -105.999 -44s-44 -64.666 -44 -105.999c0 -42 14.667 -77.667 44 -107s64.666 -44 105.999 -44c42 0 77.667 14.667 107 44s44 65 44 107z" />
    <glyph glyph-name="uni0432" unicode="&#x432;" horiz-adv-x="549" 
d="M497 149c0 -44 -16.168 -79.833 -48.501 -107.5s-74.5 -41.5 -126.5 -41.5h-245v491h216c48.667 0 88.334 -12.333 119.001 -37s46 -57 46 -97c0 -39.333 -15 -70 -45 -92c56 -21.333 84 -60 84 -116zM179.999 406v-111h109c46.667 0 70 18.667 70 56
c0 36.667 -23.333 55 -70 55h-109zM396.999 151c0 19.333 -7.5 34.667 -22.5 46s-35.833 17 -62.5 17h-132v-130h132c26 0 46.667 6.16699 62 18.5s23 28.5 23 48.5z" />
    <glyph glyph-name="uni0433" unicode="&#x433;" horiz-adv-x="444" 
d="M77 0v491h346v-91h-240v-400h-106z" />
    <glyph glyph-name="uni0434" unicode="&#x434;" horiz-adv-x="606" 
d="M491 91h81v-232h-102v141h-361v-141h-103v232h55c37.333 40 58 129.667 62 269l4 131h364v-400zM170 91h216v309h-164l-1 -50c-2.66699 -118.667 -19.667 -205 -51 -259z" />
    <glyph glyph-name="uni0435" unicode="&#x435;" horiz-adv-x="570" 
d="M518 211h-366.001c6.66699 -40 24.5 -71.5 53.5 -94.5s64.5 -34.5 106.5 -34.5c52 0 99.667 19.333 143 58l50 -72c-55.333 -52.667 -120.666 -79 -195.999 -79c-74.667 0 -137.334 24.5 -188.001 73.5s-76 109.833 -76 182.5c-1.33301 70.667 23.334 131.5 74.001 182.5
s110.667 75.833 180 74.5c64.667 0 118.667 -21.5 162 -64.5s65 -96.5 65 -160.5c0 -19.333 -2.66699 -41.333 -8 -66zM153.999 293h267.001c-0.666992 36.667 -13 65.834 -37 87.501s-53.667 32.5 -89 32.5c-34.667 0 -64.834 -10.833 -90.501 -32.5
s-42.5 -50.834 -50.5 -87.501z" />
    <glyph glyph-name="uni0436" unicode="&#x436;" horiz-adv-x="806" 
d="M29 491h127l188 -228l-207 -263h-123l206 263zM348 0v491h105v-491h-105zM582 266l209 -266h-128l-207 263l189 228h126z" />
    <glyph glyph-name="uni0437" unicode="&#x437;" horiz-adv-x="479" 
d="M432 143c0 -48.667 -17.167 -86.499 -51.5 -113.499s-81.5 -40.5 -141.5 -40.5c-86.667 0 -153.334 31 -200.001 93l64 63c34.667 -42 78.334 -63 131.001 -63c29.333 0 52.333 6.16699 69 18.5s25 28.833 25 49.5c0 20 -7.83301 35.667 -23.5 47s-37.5 17 -65.5 17h-57
v84h54c22.667 0 40 5 52 15s18 23.667 18 41c0 16.667 -6.5 30 -19.5 40s-31.167 15 -54.5 15c-47.333 0 -87.333 -18.333 -120 -55l-64 63c44.667 56.667 107.667 85 189 85c54 0 96.167 -12.167 126.5 -36.5s45.5 -58.5 45.5 -102.5c0 -45.333 -17.667 -80 -53 -104
c50.667 -24.667 76 -63.334 76 -116.001z" />
    <glyph glyph-name="uni0438" unicode="&#x438;" horiz-adv-x="583" 
d="M470 502h36v-502h-106v305l-286 -316h-37v502h106v-307z" />
    <glyph glyph-name="uni0439" unicode="&#x439;" horiz-adv-x="583" 
d="M470 502h36v-502h-106v305l-286 -316h-37v502h106v-307zM142 738v29h86v-28c0 -60.667 25 -91 75 -91c50.667 0 76 30.333 76 91v28h87v-29c0 -49.333 -15 -89.333 -45 -120s-69.333 -46 -118 -46c-48 0 -86.833 15.333 -116.5 46s-44.5 70.667 -44.5 120z" />
    <glyph glyph-name="uni043A" unicode="&#x43a;" horiz-adv-x="541" 
d="M77 0v491h106v-491h-106zM311 267l216 -267h-128l-212 263l197 228h124z" />
    <glyph glyph-name="uni043B" unicode="&#x43b;" horiz-adv-x="555" 
d="M117 491h360.998v-491h-105v400h-158l-1 -49c-3.33301 -128 -17.166 -219.5 -41.499 -274.5s-65.5 -82.5 -123.5 -82.5c-14 0 -26.667 2 -38 6v88c10.667 -1.33301 17.334 -2 20.001 -2c29.333 0 50.333 22 63 66s19.667 116 21 216z" />
    <glyph glyph-name="uni043C" unicode="&#x43c;" horiz-adv-x="689" 
d="M77 0v502h37l231 -267l232 267h35v-502h-105v284l-144 -167h-37l-143 166v-283h-106z" />
    <glyph glyph-name="uni043D" unicode="&#x43d;" horiz-adv-x="576" 
d="M77 0v491h106v-188h211v188h105v-491h-105v212h-211v-212h-106z" />
    <glyph glyph-name="uni043E" unicode="&#x43e;" horiz-adv-x="609" 
d="M45 246c-1.33301 70 23.834 130.498 75.501 181.498s112.834 75.833 183.501 74.5c71.333 1.33301 133 -23.667 185 -75s77.333 -111.666 76 -180.999c1.33301 -70 -24 -130.667 -76 -182s-113.667 -76.333 -185 -75c-70.667 -1.33301 -131.834 23.834 -183.501 75.501
s-76.834 112.167 -75.501 181.5zM457 244.998c0 45.333 -14.667 83.498 -44 114.498s-65.333 46.5 -108 46.5c-43.333 0 -79.666 -15.5 -108.999 -46.5s-44 -69.167 -44 -114.5s14.5 -83.166 43.5 -113.499s65.167 -45.5 108.5 -45.5s79.666 15.333 108.999 46
s44 68.334 44 113.001z" />
    <glyph glyph-name="uni043F" unicode="&#x43f;" horiz-adv-x="571" 
d="M77 0v491h417v-491h-106v400h-205v-400h-106z" />
    </font>
</defs>
</svg>
